<?xml version="1.0" standalone="no"?>
<!DOCTYPE svg PUBLIC "-//W3C//DTD SVG 1.1//EN" "http://www.w3.org/Graphics/SVG/1.1/DTD/svg11.dtd" >
<svg xmlns="http://www.w3.org/2000/svg" xmlns:xlink="http://www.w3.org/1999/xlink" version="1.1">
<metadata>
Created by FontForge 20170924 at Wed Mar 21 00:49:29 2007
 By www-data
Copyright Mustafa Jabbar, Ananda Computers, 188 Motijheel Circular Road,  Dhaka-1000, Bangladesh. Phone 7101354, 0171530452, 0171808432.
</metadata>
<defs>
<font id="BhagirathiMJ" horiz-adv-x="0" >
  <font-face 
    font-family="BhagirathiMJ"
    font-weight="400"
    font-stretch="normal"
    units-per-em="1150"
    panose-1="0 0 0 0 0 0 0 0 0 0"
    ascent="920"
    descent="-230"
    x-height="90"
    cap-height="600"
    bbox="-517 -318 871 899"
    underline-thickness="20"
    underline-position="-143"
    unicode-range="U+0020-2212"
  />
<missing-glyph horiz-adv-x="575" 
d="M72 0v725h431v-725h-431zM144 72h287v581h-287v-581z" />
    <glyph glyph-name=".notdef" horiz-adv-x="575" 
d="M72 0v725h431v-725h-431zM144 72h287v581h-287v-581z" />
    <glyph glyph-name="NULL" 
 />
    <glyph glyph-name="nonmarkingreturn" horiz-adv-x="309" 
 />
    <glyph glyph-name="space" unicode=" " horiz-adv-x="309" 
 />
    <glyph glyph-name="exclam" unicode="!" horiz-adv-x="400" 
d="M304 164l26 362q0 3 3.5 10.5t3.5 10.5q0 19 -15.5 35.5t-34.5 16.5q-16 0 -26.5 -17.5t-10.5 -34.5q0 -63 11 -177l17 -176zM250 71q0 -23 15 -43t37 -20q21 0 33.5 20t12.5 42q0 23 -15 42t-37 19q-21 0 -33.5 -19t-12.5 -41z" />
    <glyph glyph-name="quotedbl" unicode="&#x22;" horiz-adv-x="399" 
d="M340 631q0 -53 -34 -208h-38q-35 155 -35 208q0 21 17 35.5t38 14.5t36.5 -14.5t15.5 -35.5zM164 631q0 -53 -34 -208h-38q-36 161 -36 208q0 21 16.5 35.5t37.5 14.5t37.5 -14.5t16.5 -35.5z" />
    <glyph glyph-name="numbersign" unicode="#" horiz-adv-x="540" 
d="M499 379h-98l-15 -105h90v-69h-101l-29 -199h-72l28 199h-104l-30 -199h-73l30 199h-96v69h108l16 105h-99v69h109l29 185h72l-28 -185h103l28 185h72l-27 -185h87v-69zM329 379h-103l-17 -105h104z" />
    <glyph glyph-name="dollar" unicode="$" horiz-adv-x="379" 
d="M144 27l-54 66v407h-40l-40 50h80v51q0 33 -37 59q-33 24 -68 24q-42 0 -69 -21q32 -11 32 -60q0 -17 -17 -27t-35 -10q-17 0 -28 25q-9 20 -9 39q0 52 38.5 86t91.5 34q41 0 98 -45.5t57 -85.5v-69h242l40 -50h-282v-411l11 -10q43 0 87 83q40 75 40 123q0 23 -6 37
q-20 -13 -38 -13q-23 0 -37.5 18.5t-14.5 42.5q0 84 58 84q53 0 79 -63q19 -46 19 -108q0 -96 -51 -168q-55 -78 -147 -88z" />
    <glyph glyph-name="percent" unicode="%" horiz-adv-x="469" 
d="M340 605l-259 -535l50 -55l253 530zM201 515q0 30 -16.5 51.5t-45.5 21.5q-33 0 -56.5 -24t-23.5 -57q0 -29 17.5 -50t45.5 -21q32 0 55.5 23.5t23.5 55.5zM410 107q0 27 -17.5 48t-43.5 21q-33 0 -56 -23.5t-23 -56.5q0 -29 15 -48q17 -22 45 -22q32 0 56 24.5t24 56.5z
" />
    <glyph glyph-name="ampersand" unicode="&#x26;" 
d="M-72 -130v-81l-92 117v79z" />
    <glyph glyph-name="quotesingle" unicode="'" horiz-adv-x="201" 
d="M151 631q0 -53 -34 -208h-38q-34 155 -34 208q0 21 15.5 35.5t36.5 14.5t37.5 -14.5t16.5 -35.5z" />
    <glyph glyph-name="parenleft" unicode="(" horiz-adv-x="413" 
d="M59 278q0 -138 83 -256q79 -113 208 -172h24q-113 73 -178.5 191.5t-65.5 252.5q0 137 65 259.5t179 196.5h-32q-283 -130 -283 -472z" />
    <glyph glyph-name="parenright" unicode=")" horiz-adv-x="447" 
d="M392 278q0 -137 -79 -254q-75 -112 -202 -174h-23q110 75 173 193t63 251q0 135 -63 257.5t-173 198.5h30q274 -135 274 -472z" />
    <glyph glyph-name="asterisk" unicode="*" horiz-adv-x="514" 
d="M253 272l-36 -186q15 -33 51 -33q13 0 25.5 12.5t12.5 25.5q0 34 -13 91l-21 92l113 -140q53 7 53 59q0 37 -19 52l-145 44l147 54q8 10 8 36l-3 23q-15 28 -53 37l-103 -134l35 182q-8 34 -46 34q-10 0 -24 -12.5t-19 -23.5l34 -180l-102 132l-21 1q-43 2 -43 -61
q0 -32 20 -39l140 -51l-142 -40q-17 -5 -17 -45q0 -38 25 -55q24 -5 31 -4h4z" />
    <glyph glyph-name="plus" unicode="+" horiz-adv-x="374" 
d="M40 265v-58h120v-150h54v150h120v58h-120v150h-54v-150h-120z" />
    <glyph glyph-name="comma" unicode="," horiz-adv-x="280" 
d="M174 54q-4 -15 -20 -26l-14 -3l-18 5l-16 12l-8 16l-2 21q0 23 14.5 42t36.5 19q77 0 77 -94q0 -103 -84 -134l-21 25q30 7 50.5 34t20.5 58l-2 13z" />
    <glyph glyph-name="hyphen" unicode="-" horiz-adv-x="360" 
d="M40 267h280v68h-280v-68z" />
    <glyph glyph-name="period" unicode="." horiz-adv-x="218" 
d="M117 -48q22 0 38 15.5t16 37.5q0 24 -17.5 41.5t-41.5 17.5q-23 0 -38.5 -15t-15.5 -38q0 -24 17.5 -41.5t41.5 -17.5z" />
    <glyph glyph-name="slash" unicode="/" horiz-adv-x="420" 
d="M324 600l-259 -535l50 -55l253 530z" />
    <glyph glyph-name="zero" unicode="0" horiz-adv-x="445" 
d="M214 478q-80 0 -124 -61q-40 -54 -40 -137q0 -92 44 -158q50 -76 138 -76q84 0 124 75q32 59 32 151q0 79 -46 140q-51 66 -128 66zM191 100q-35 0 -56 34q-18 29 -18 66q0 88 30 148q38 78 117 78q32 0 51 -39q16 -32 16 -68q0 -70 -35 -138q-42 -81 -105 -81z" />
    <glyph glyph-name="one" unicode="1" horiz-adv-x="391" 
d="M157 484q8 14 8 30q0 26 -15 44.5t-41 18.5q-25 0 -41 -21t-16 -47q0 -46 59 -99q31 -27 109 -97q59 -54 59 -108q0 -33 -15 -59q-27 44 -83 44q-37 0 -63 -31.5t-26 -69.5q0 -30 33 -50q28 -17 60 -17q65 0 102 50q33 44 33 112q0 88 -50 166q-23 36 -113 134z" />
    <glyph glyph-name="two" unicode="2" horiz-adv-x="403" 
d="M227 228q-74 0 -175 71l48 -162q183 -72 304 -231q-27 121 -177 235q46 0 77 40q29 37 29 84q0 70 -36 128q-39 63 -103 82l3 17q0 54 -54 54q-40 0 -40 -63q0 -53 50 -82q26 -14 94 -51q50 -28 50 -71q0 -51 -70 -51z" />
    <glyph glyph-name="three" unicode="3" horiz-adv-x="494" 
d="M295 154q47 0 72 48q21 39 21 91q0 116 -85 126q9 -23 9 -43q0 -35 -17 -66q-20 -37 -52 -37q-42 0 -67 36q-22 31 -22 75q0 54 32 90.5t85 36.5q158 0 158 -290q0 -65 -33 -118q-38 -62 -99 -62q-101 0 -181 154q-61 117 -81 246l24 -17q26 -104 78 -176q68 -94 158 -94
z" />
    <glyph glyph-name="four" unicode="4" horiz-adv-x="401" 
d="M288 177q0 30 -45 60q-12 8 -68 41q-59 -42 -59 -105q0 -34 29.5 -59.5t63.5 -25.5q79 0 79 89zM210 363q70 50 70 101q0 35 -29 55q-25 18 -61 18q-80 0 -80 -79q0 -30 37 -58q12 -9 63 -37zM132 308q-79 64 -79 157q0 55 48 91q44 34 100 34q58 0 93 -29q39 -32 39 -88
q0 -87 -71 -139q96 -59 96 -142q0 -63 -47 -110t-110 -47q-50 0 -100 33q-54 36 -54 84q0 88 85 156z" />
    <glyph glyph-name="five" unicode="5" horiz-adv-x="456" 
d="M410 401l-6 -1q-58 0 -119 27q-19 18 -19 51q0 48 54 84q-134 -7 -204 -95q-66 -82 -66 -219q0 -104 79 -159q69 -49 177 -49q68 0 98 15q-46 28 -93 55q-28 27 -28 105q0 44 42 100t84 75zM313 382q-31 -17 -64 -63t-33 -79q0 -67 11 -95q14 -36 64 -70q-77 5 -124 48
q-51 46 -51 121q0 147 102 227q0 -38 28.5 -63.5t66.5 -25.5z" />
    <glyph glyph-name="six" unicode="6" horiz-adv-x="486" 
d="M72 379l-20 22q4 -106 73 -229q80 -142 175 -142q73 0 113 76q32 61 32 141q0 134 -95 213q-23 -69 -90 -163l-22 4l-3 8l1 10q0 27 -4.5 82t-4.5 82q0 77 -64 85q-45 -10 -45 -57q0 -51 43 -50l10 -83q17 -137 87 -137q37 0 81 31q48 32 49 67q24 -32 24 -105
q0 -45 -45 -75q-40 -28 -87 -28q-68 0 -135 92q-56 77 -73 156z" />
    <glyph glyph-name="seven" unicode="7" horiz-adv-x="423" 
d="M138 349q-28 0 -28 40q0 45 37 82.5t82 44.5q41 -55 41 -142v-25h-132zM270 272v-173q0 -30 13 -53q15 -28 43 -28q51 0 51 49q0 38 -28 45l-25 -7l1 166q2 308 -133 308q-73 0 -111 -56q-32 -47 -32 -124q0 -132 221 -127z" />
    <glyph glyph-name="eight" unicode="8" horiz-adv-x="468" 
d="M271 261q0 34 -39 53h-93v-220l16 -8q53 10 86 67q30 50 30 108zM139 349l43 53h27q18 0 45 -25.5t34 -44.5q0 39 34 46l63 4q24 15 24 41q0 6 -1 13l15 -13q4 -12 4 -40q0 -33 -21 -57.5t-54 -24.5q-9 0 -33 6l-21 -5q40 -52 40 -96q0 -62 -50.5 -117.5t-112.5 -55.5
q-25 0 -51 19t-39 43v364q-52 0 -52 51q0 59 48 59q63 0 63 -119q0 -17 -2.5 -50.5t-2.5 -50.5z" />
    <glyph glyph-name="nine" unicode="9" horiz-adv-x="468" 
d="M142 517q19 10 19 38q0 52 -46 52l-20 -4q-25 -24 -25 -59q0 -70 81 -112q15 -8 150 -71q81 -48 81 -126q0 -36 -15.5 -53t-52.5 -28q0 63 -29 116q-35 64 -93 64q-132 0 -132 -162q0 -41 20 -81q23 -48 60 -48q20 0 33 18.5t13 39.5q0 52 -43 52q-8 0 -16 -2
q-10 25 -10 59q0 24 13 50q15 31 37 31q46 0 73 -85q21 -66 21 -124q0 -30 -8 -46q75 0 123 69q43 61 43 140q0 121 -90 179z" />
    <glyph glyph-name="colon" unicode=":" horiz-adv-x="325" 
d="M266 417q0 27 -17.5 48t-43.5 21q-33 0 -56 -23.5t-23 -56.5q0 -29 15 -48q17 -22 45 -22q32 0 56 24.5t24 56.5zM270 107q0 27 -17.5 48t-43.5 21q-33 0 -56 -23.5t-23 -56.5q0 -29 15 -48q17 -22 45 -22q32 0 56 24.5t24 56.5z" />
    <glyph glyph-name="semicolon" unicode=";" horiz-adv-x="273" 
d="M226 352q0 27 -17.5 48t-43.5 21q-33 0 -56 -23.5t-23 -56.5q0 -29 15 -48q17 -22 45 -22q32 0 56 24.5t24 56.5zM169 70q-5 -25 -34 -29l-18 5l-16 12l-8 16l-2 21q0 23 14.5 42t36.5 19q77 0 77 -94q0 -103 -84 -134l-21 25q71 35 71 92l-2 13z" />
    <glyph glyph-name="less" unicode="&#x3c;" horiz-adv-x="471" 
d="M107 290l346 -218l-37 -36l-395 246l395 292l37 -48z" />
    <glyph glyph-name="equal" unicode="=" horiz-adv-x="400" 
d="M40 357h316v68h-316v-68zM40 172h316v68h-316v-68z" />
    <glyph glyph-name="greater" unicode="&#x3e;" horiz-adv-x="501" 
d="M387 290l-346 -218l37 -36l395 246l-395 292l-37 -48z" />
    <glyph glyph-name="question" unicode="?" horiz-adv-x="436" 
d="M324 61q0 22 -15 40.5t-36 18.5q-28 0 -48 -18t-20 -46q0 -23 15 -40.5t37 -17.5q67 0 67 63zM404 471q0 -72 -38 -130q-18 -28 -70 -78q-38 -37 -38 -58l5 -18l17 -14l4 -12q-35 0 -56.5 24t-21.5 59q0 43 73 122.5t73 121.5q0 28 -16 47.5t-43 19.5q-42 0 -57 -39
q29 -20 29 -60q0 -55 -44 -55l-16 4q-38 30 -38 73q0 67 30 95.5t98 28.5q45 0 78 -44q31 -40 31 -87z" />
    <glyph glyph-name="at" unicode="@" horiz-adv-x="748" 
d="M698 293q0 -76 -42 -154q-49 -90 -117 -90q-47 0 -111 47q-73 54 -105 62q-28 4 -81 13l-59 144q77 -54 142 -54q39 0 75 19q43 22 43 58q0 45 -62 45l-8 -1q-4 -32 -30.5 -55.5t-58.5 -23.5q-53 0 -53 48q0 42 32.5 70.5t75.5 28.5q159 0 159 -115q0 -105 -117 -149
q131 -85 166 -85q42 0 74 78q27 65 27 115q0 92 -67 162.5t-159 70.5q-136 0 -213 -103q-70 -92 -70 -232q0 -115 60 -188q64 -79 176 -79q96 0 199 57l23 -47q-115 -61 -248 -61q-128 0 -220 111q-87 105 -87 235q0 144 108 250t252 106q126 0 211 -79t85 -204z" />
    <glyph glyph-name="A" unicode="A" horiz-adv-x="595" 
d="M432 279q19 -29 54 -94l-4 351h-216l26 -27q144 -27 144 -177q0 -25 -4 -53zM300 225q42 0 67 35q22 31 22 75q0 87 -73 94q10 -17 10 -38q0 -29 -19 -51.5t-47 -22.5q-64 0 -64 90q0 58 53 94q-22 20 -55 35h-143l-51 64h596l51 -64h-111v-526l-24 28q0 80 -92 172
q-6 -33 -35.5 -57t-63.5 -24q-100 0 -184 145q-75 129 -75 237l20 -14q44 -121 75 -172q61 -100 143 -100z" />
    <glyph glyph-name="B" unicode="B" horiz-adv-x="423" 
d="M0 600l51 -64h89q18 -11 49 -40q-93 -8 -93 -134q0 -18 19 -32.5t38 -14.5q40 0 67.5 32t23.5 72q20 7 35 7q57 0 57 -67q0 -111 -143 -111q-90 0 -136 38l66 -146q86 -17 185 -86q88 -61 152 -138q-22 68 -89 136q-41 41 -126 106q63 11 99 70q33 53 33 121
q0 70 -40 112t-109 38l-17 37h263l-51 64h-75l1 18q3 52 -38.5 94t-94.5 42q-17 0 -51.5 -6t-51.5 -6q-77 0 -77 62q0 29 16 50l-13 16q-31 -48 -31 -93q0 -112 126 -112q19 0 56 4t56 4q61 0 61 -37q0 -20 -13 -36h-294z" />
    <glyph glyph-name="C" unicode="C" horiz-adv-x="507" 
d="M403 600l1 15q4 54 -37 96.5t-95 42.5q-19 0 -57.5 -7.5t-57.5 -7.5q-77 0 -77 62q0 29 16 50l-13 16q-31 -48 -31 -92q0 -112 111 -112q23 0 69 5t69 5q61 0 61 -37q0 -20 -13 -36h-349l49 -63q40 -13 49 -17q27 -12 42 -29q-32 -3 -50.5 -26.5t-18.5 -56.5
q0 -30 12 -53q14 -28 42 -28q33 0 51 31q17 28 12 61l21 10q16 0 25 -23q7 -18 7 -37q0 -37 -30 -88q-31 -54 -63 -67h-12q-24 17 -29 55l-17 -28q0 -39 25 -72q27 -36 65 -36q35 0 68 55q15 27 45 82q38 68 74 110q-33 -88 -33 -210q0 -79 34 -151l30 -22q-23 76 -23 145
q0 91 18 147.5t71 129.5q-24 50 -67 72q-70 -30 -127 -104q0 41 -28 74.5t-68 38.5q-10 20 -25 36h412l-51 64h-107z" />
    <glyph glyph-name="D" unicode="D" horiz-adv-x="494" 
d="M0 600l51 -64h163q0 -21 -2 -61.5t-2 -61.5q0 -60 17 -104q23 -61 73 -61q24 0 61 33.5t42 58.5h7q14 -20 14 -46q0 -55 -35 -93t-89 -38q-89 0 -149 117q-51 99 -51 197l-16 21l-2 -64q-4 -121 55 -238q67 -133 184 -133q77 0 115 76q29 58 29 144q0 81 -82 171
q-14 -33 -43 -67q-34 -40 -62 -45l-10 16v178h278l-51 64h-67l2 21q0 53 -39.5 93t-92.5 40q-24 0 -70.5 -7t-69.5 -7q-77 0 -77 62q0 25 15 50l-12 16q-31 -48 -31 -94q0 -110 125 -110q26 0 77 4.5t77 4.5q56 0 56 -37q0 -21 -12 -36h-376z" />
    <glyph glyph-name="E" unicode="E" horiz-adv-x="550" 
d="M225 150q-64 57 -100 152q-33 87 -33 180l-18 21v-51q0 -157 61 -264q75 -132 221 -132q84 0 127 82q35 66 35 158q0 69 -82 159q-13 -33 -42 -67q-33 -38 -62 -45l-11 16v177h289l-52 65h-76l2 21q0 53 -39.5 93t-92.5 40q-29 0 -87.5 -5t-87.5 -5q-68 0 -68 62
q0 25 15 50l-12 16q-31 -48 -31 -93q0 -69 44 -95q33 -19 108 -19q25 0 74 4t74 4q61 0 61 -37q0 -20 -13 -36h-429l52 -65h216q0 -21 -2.5 -61.5t-2.5 -61.5q0 -59 17 -103q23 -61 73 -61q25 0 61.5 33.5t41.5 58.5h8q14 -20 14 -46q0 -53 -37 -92t-90 -39q-91 0 -147 117
q-45 94 -44 197l-16 21l-2 -71q-4 -149 83 -278z" />
    <glyph glyph-name="F" unicode="F" horiz-adv-x="546" 
d="M208 293q74 -30 127 -157q-17 34 -17 135q0 45 3 102q-61 -31 -113 -80zM160 528q28 0 57 64q81 -45 104 -126v202l54 -67v-273q41 -45 76 -124l-10 46v417l54 -67v-534q-26 24 -61 92q-36 72 -59 96v-242l-21 21q-11 69 -62.5 122t-120.5 72l-72 92q92 83 189 145
q-23 25 -32 25l-6 -1q-11 -23 -60 -39q-41 -14 -74 -14q-30 0 -49 28q-17 25 -17 56q0 67 50 67l18 -5q30 -22 30 -53h12z" />
    <glyph glyph-name="G" unicode="G" horiz-adv-x="481" 
d="M163 381q0 71 45 139q51 77 117 77q31 0 60 -23.5t43 -54.5v-519l-26 33q0 36 -29 62.5t-66 26.5q-17 0 -51.5 -7t-51.5 -7q-81 0 -122 55q-37 49 -37 133q0 76 35 135l11 -20q-21 -46 -21 -108q0 -46 30.5 -77t76.5 -31q17 0 51 3t51 3q24 0 60.5 -31.5t45.5 -55.5
q-12 22 -12 123q0 59 2 115l3 84q2 46 -5 82q-9 15 -25 15q-41 0 -73.5 -43.5t-30.5 -85.5l1 -19l28 7q21 0 33 -18.5t12 -40.5q0 -27 -23 -48t-50 -21q-42 0 -64 40q-18 32 -18 77z" />
    <glyph glyph-name="H" unicode="H" horiz-adv-x="537" 
d="M428 477q9 -12 22 -12l15 3q20 17 20 51q0 75 -83 114l-155 52q-83 28 -83 85q0 45 6 66q9 32 38 52l12 -15q-28 -22 -28 -57q0 -49 84 -69q119 -29 155 -52q84 -55 84 -186q0 -99 -87 -105v-404l-26 33q0 36 -29 62.5t-66 26.5q-17 0 -51.5 -7t-51.5 -7q-159 0 -159 190
q0 74 35 133l11 -20q-21 -46 -21 -108q0 -45 30.5 -76.5t75.5 -31.5q17 0 51.5 3t51.5 3q24 0 60.5 -31.5t45.5 -55.5q-10 15 -12 93q-2 56 0 147l2 110q1 30 -2 53l-13 14l-12 2q-41 0 -73.5 -43.5t-30.5 -85.5l1 -19l28 7q21 0 33 -18.5t12 -40.5q0 -27 -23 -48t-50 -21
q-42 0 -64 40q-18 32 -18 78q0 68 46 138q51 77 116 77q64 0 103 -78v-42z" />
    <glyph glyph-name="I" unicode="I" horiz-adv-x="494" 
d="M330 181q82 0 82 76q0 31 -26 54q-10 -20 -49 -24q-51 13 -51 78q0 23 17 46t39 23q19 0 32 -14q31 17 31 61q0 26 -15 44.5t-41 18.5q-42 0 -72 -26t-40 -67q24 -18 24 -50q0 -30 -17.5 -49.5t-47.5 -19.5q-52 0 -52 109q0 70 60 116q55 43 127 43q58 0 90 -53
q27 -44 27 -106q0 -63 -33 -98q35 -42 35 -138q0 -55 -33 -93t-87 -38q-34 0 -86 39q-153 116 -214 422l25 -22q15 -96 97 -207q92 -125 178 -125z" />
    <glyph glyph-name="J" unicode="J" horiz-adv-x="527" 
d="M440 205q0 -55 -33 -93t-87 -38q-34 0 -86 39q-153 115 -214 422l25 -22q15 -96 97 -207q92 -125 178 -125q82 0 82 76q0 31 -26 54q-10 -20 -49 -24q-51 13 -51 78q0 23 17 46t39 23q19 0 32 -14q31 17 31 61q0 26 -15 44.5t-41 18.5q-42 0 -72 -26t-40 -67
q24 -18 24 -50q0 -30 -17.5 -49.5t-47.5 -19.5q-52 0 -52 109q0 70 60 116q55 43 127 43q46 0 77 -33.5t31 -79.5q0 -20 -8 -41q29 46 29 102q0 75 -82 101q-2 0 -151 42q-82 33 -82 118q0 53 53 80l15 -18q-37 -12 -37 -55q0 -33 83 -53q114 -28 154 -53q83 -53 83 -165
q0 -114 -81 -201q35 -46 35 -139z" />
    <glyph glyph-name="K" unicode="K" horiz-adv-x="582" 
d="M321 401v-241q-75 104 -143 147q80 63 143 94zM551 303q0 68 -54.5 131.5t-121.5 63.5v38h261l-50 64h-586l49 -64h272v-42q-148 -50 -249 -160l59 -103q81 -13 140 -70q56 -54 81 -136l23 -29v409q50 -1 89 -26q46 -29 46 -75q0 -33 -5 -49q0 20 -16.5 35t-36.5 15
q-44 0 -44 -66q0 -61 51 -61q44 0 70 42q22 35 22 83z" />
    <glyph glyph-name="L" unicode="L" horiz-adv-x="471" 
d="M252 292q78 39 78 139q0 118 -94 170q-9 -27 -33 -55q-26 -31 -50 -39l-8 4l3 18q-5 12 -16 31q-10 11 -31 11q-49 0 -49 -71q0 -35 22.5 -58.5t57.5 -23.5q36 0 80 27.5t64 59.5l19 -29v-21q0 -55 -80 -85q-66 -25 -127 -20l73 -104q74 -9 119 -49q32 -28 66 -90
q43 -78 66 -107v536h112l-52 64h-64q-22 34 -29 94l-20 25v-551l26 -69q-38 116 -133 193z" />
    <glyph glyph-name="M" unicode="M" horiz-adv-x="458" 
d="M191 464q-38 0 -55 -24q0 37 23.5 64t59.5 27q132 0 132 -309q0 -45 -3 -100l-3 -55l54 -67v536h121l-51 64h-76q-22 34 -29 94l-19 23v-199q0 -3 15 -80q-2 59 -57 109.5t-115 50.5q-65 0 -103 -52q-34 -46 -34 -114q0 -86 55 -96q13 3 47 34.5t59 36.5q23 -5 23 -33
q0 -39 -38 -86q-21 -26 -68 -70l71 -87q82 99 82 200q0 133 -91 133z" />
    <glyph glyph-name="N" unicode="N" horiz-adv-x="426" 
d="M356 17l19 -17v536h101l-51 64h-425l51 -64h25q-24 -31 -24 -63q0 -49 38 -81t87 -26l-79 -91l63 -82q71 0 126 -52t69 -124zM182 406q-40 0 -40 62q0 31 21.5 49.5t52.5 18.5h105v-396q-57 85 -120 129l90 108l-48 60q-33 -31 -61 -31z" />
    <glyph glyph-name="O" unicode="O" horiz-adv-x="475" 
d="M226 474q0 28 17 46.5t45 18.5q37 0 47 -21q0 -51 -75 -51q-23 0 -34 7zM69 469l-23 29q0 -154 52 -286q69 -175 197 -175q75 0 105 53q22 40 22 122q0 47 -27 97q-25 47 -64 78q-32 -46 -43 -58q-33 -37 -56 -38q-8 14 -8 26v116q25 -14 70 -14q34 0 56 28q20 25 20 60
q0 41 -27.5 67.5t-68.5 26.5q-42 0 -70.5 -32.5t-28.5 -75.5q-40 39 -50 108l-71 -22q11 -41 43.5 -77t72.5 -49q0 -17 -1.5 -50t-1.5 -50q0 -72 25 -118q30 -25 61 -25q30 0 63 23q30 21 45 49q25 -35 25 -61q0 -41 -33.5 -64.5t-76.5 -23.5q-89 0 -153 128
q-54 108 -54 208z" />
    <glyph glyph-name="P" unicode="P" horiz-adv-x="426" 
d="M177 119l-12 6l-5 16v336q7 -55 48 -101q38 -43 93 -62v-12q0 -57 -35.5 -107.5t-88.5 -75.5zM160 534h315l-50 66h-425l49 -66h58v-396q0 -16 28 -48q22 -25 42 -40q92 28 146 112q51 79 51 178q0 36 -54 72q-53 0 -98 37q-41 33 -62 85z" />
    <glyph glyph-name="Q" unicode="Q" horiz-adv-x="462" 
d="M219 467q-32 0 -56.5 19t-28.5 50h387l-51 64h-470l49 -64h32q0 -22 -3 -64.5t-3 -64.5q0 -173 90 -173q61 0 97 55q30 45 35 112q35 -3 48 -17t13 -49q0 -63 -47.5 -108.5t-110.5 -45.5q-64 0 -107 25l55 -133q99 0 192 -46t155 -124q-21 67 -83.5 129t-129.5 84
q72 20 101 71q25 44 25 123q0 59 -36 107q-39 53 -96 52q-8 0 -27.5 -1t-29.5 -1zM138 282l-3 11v201q12 -76 81 -101l2 -18q0 -29 -20.5 -60t-47.5 -36z" />
    <glyph glyph-name="R" unicode="R" horiz-adv-x="612" 
d="M337 278l13 2q6 -22 6 -52q0 -27 -34 -45q-28 -15 -58 -15q-80 0 -128 113q-39 91 -37 183l-19 26q-5 -40 -5 -72q0 -114 45 -217q57 -131 156 -131q62 0 91 61q22 46 22 116q0 90 -66 139q-65 -54 -79 -54l-17 3l-13 15l-6 26q0 70 64 113h12q18 -48 59 -77t92 -29
q17 0 34 4q-36 -62 -36 -154q0 -80 5 -113q6 -38 28 -109l25 -26q-18 59 -18 145q0 177 92 254l-84 108q-28 -36 -91 -36q-53 0 -78 62q36 24 159 24q32 0 96.5 -3t96.5 -3l-50 64h-618l52 -64h156q-43 -60 -43 -159q0 -47 33 -86q34 -42 80 -42q38 0 63 29z" />
    <glyph glyph-name="S" unicode="S" horiz-adv-x="546" 
d="M321 409v-257q-86 110 -149 155q43 49 149 102zM451 204q-32 79 -76 124v272h-375l51 -64h270v-30q-144 -61 -249 -172l56 -97q76 -7 141 -73q61 -61 83 -139l23 -29v258q23 -25 57 -94q33 -65 60 -91v467h111l-51 64h-62q-25 41 -30 94l-18 23v-467q0 -8 9 -46z" />
    <glyph glyph-name="T" unicode="T" horiz-adv-x="703" 
d="M617 258q0 29 -20 48q-13 -18 -59 -22q-43 15 -43 61q0 82 49 82q20 0 40 -18q21 13 21 50q0 14 -16.5 27t-31.5 13q-35 0 -82 -52t-47 -87q0 -52 44 -102.5t95 -50.5q50 0 50 51zM567 585q35 0 58 -49q19 -40 19 -80q0 -82 -28 -117q48 -33 48 -95q0 -42 -17 -79
q-22 -48 -58 -48q-60 0 -101 48q-21 24 -59 100l-1 -265l-26 33q0 36 -29 62.5t-66 26.5q-17 0 -51.5 -7t-51.5 -7q-159 0 -159 190q0 74 35 133l11 -20q-21 -46 -21 -108q0 -45 30.5 -76.5t75.5 -31.5q17 0 51.5 3t51.5 3q24 0 60.5 -31.5t45.5 -55.5q-10 14 -12 93
q-2 56 0 147l2 110q1 30 -2 53l-13 14l-12 2q-41 0 -73.5 -43.5t-30.5 -85.5l1 -19l28 7q21 0 33 -18.5t12 -40.5q0 -27 -23 -48t-50 -21q-42 0 -64 40q-18 32 -18 78q0 68 46 138q51 77 116 77q31 0 60 -23.5t43 -54.5l1 -84q51 150 138 150z" />
    <glyph glyph-name="U" unicode="U" horiz-adv-x="439" 
d="M327 636q0 -20 -13 -36h-314l49 -64h78v-351q0 -55 60 -117q38 -3 34 -3q17 0 46 18q116 73 116 242q0 42 -18 76q-22 43 -60 43q-26 0 -44 -28q-16 -24 -16 -52q0 -50 49 -65l17 3q1 -14 1 -42q0 -44 -34.5 -82.5t-78.5 -52.5l-14 7q-5 14 -5 36v368h312l-52 64h-72
l1 15q4 55 -37 97t-96 42q-17 0 -51.5 -6t-51.5 -6q-77 0 -77 62q0 29 16 50l-13 16q-31 -48 -31 -93q0 -112 126 -112q19 0 56 4t56 4q61 0 61 -37z" />
    <glyph glyph-name="V" unicode="V" horiz-adv-x="406" 
d="M261 498q48 -117 48 -215q0 -65 -21 -120q-28 -74 -83 -74q-32 0 -51 22t-19 54l3 21q130 61 130 262q0 16 -7 50zM210 835l-50 62q-43 0 -59 -29q-11 -21 -11 -68q0 -49 108 -200h-198l49 -64h165l1 -74q1 -64 -40 -116.5t-104 -66.5q-16 -27 -16 -58q0 -64 48 -118
q49 -57 112 -57q65 0 108 69q37 60 37 129q0 84 -22 152q-17 53 -65 140h186l-49 64h-165l-63 95q-41 63 -41 100q0 46 69 40z" />
    <glyph glyph-name="W" unicode="W" horiz-adv-x="498" 
d="M80 477l-16 21l-2 -64q-4 -121 56 -239q69 -136 185 -136q71 0 111 77q32 62 32 140q0 88 -83 178q-14 -33 -43 -67q-34 -40 -62 -45l-10 16v178h298l-51 64h-505l51 -64h153q0 -21 -2 -61.5t-2 -61.5q0 -59 16 -103q22 -62 71 -62q26 0 63 33t43 59h7q14 -20 14 -46
q0 -54 -35.5 -91.5t-88.5 -37.5q-94 0 -150 114q-43 88 -50 198z" />
    <glyph glyph-name="X" unicode="X" horiz-adv-x="410" 
d="M0 600l49 -64h58v-351q0 -55 60 -117q38 -3 32 -3q19 0 48 18q116 73 116 243q0 42 -18 76q-22 42 -60 42q-26 0 -44 -28q-16 -24 -16 -52q0 -50 49 -65l17 3q1 -14 1 -42q0 -44 -34.5 -82.5t-78.5 -52.5l-14 7q-5 14 -5 36v368h302l-52 64h-410z" />
    <glyph glyph-name="Y" unicode="Y" horiz-adv-x="410" 
d="M302 490l-6 227l19 -23q2 -49 29 -94h66l51 -64h-111v-539l-54 68v313q0 52 -28 95q-32 50 -81 50q-79 0 -79 -122q0 -57 50 -76q-11 13 -11 33q0 25 14 44t38 19q56 0 56 -76q0 -83 -76 -83q-58 0 -97 61q-35 54 -35 115q0 162 114 162q52 0 87 -33q21 -20 54 -77z" />
    <glyph glyph-name="Z" unicode="Z" horiz-adv-x="527" 
d="M-4 600l51 -64h535l-52 64h-534zM52 511l18 -21q16 -97 79 -197q75 -119 158 -119q63 0 98 38.5t35 102.5q0 125 -95 125l-25 -16l17 -11q24 -38 24 -64q0 -33 -14 -57q-17 -28 -48 -27l-23 1q-63 27 -63 104q0 135 137 135q64 0 101 -77q30 -62 30 -134q0 -74 -33 -139
q-41 -80 -107 -80q-124 0 -213 161q-76 138 -76 275z" />
    <glyph glyph-name="bracketleft" unicode="[" horiz-adv-x="247" 
d="M53 718v-834h161v50h-107v734h107v50h-161z" />
    <glyph glyph-name="backslash" unicode="\" horiz-adv-x="540" 
d="M212 88q0 -35 15 -60q18 -30 51 -30q22 0 34 22q11 19 11 42q0 22 -16.5 40.5t-38.5 23.5q0 65 2.5 195t2.5 195q0 26 -20.5 55t-45.5 29q-48 0 -48 -64q0 -49 55 -64l-1 -192zM396 88q0 -35 15 -60q18 -30 51 -30q22 0 34 22q11 19 11 42q0 22 -16.5 40.5t-38.5 23.5
q0 65 2.5 195t2.5 195q0 26 -20.5 55t-45.5 29q-48 0 -48 -64q0 -49 55 -64l-1 -192z" />
    <glyph glyph-name="bracketright" unicode="]" horiz-adv-x="296" 
d="M231 717v-834h-160v50h106v734h-106v50h160z" />
    <glyph glyph-name="asciicircum" unicode="^" 
d="M-144 269v-193l20 -31q-12 38 -54 83q-38 41 -78 64q33 35 112 77zM-144 341q-111 -44 -188 -129l43 -72q65 -16 96 -42q20 -17 46 -59q32 -52 56 -79v381h-53z" />
    <glyph glyph-name="underscore" unicode="_" horiz-adv-x="442" 
d="M216 265q85 54 85 180q0 64 -36 110q-39 50 -101 50q-51 0 -83.5 -36t-32.5 -88q0 -87 63 -87q51 0 51 57q0 37 -31 50q19 42 70 42q57 0 57 -71q0 -57 -45 -99t-102 -42q-14 0 -40 6l68 -132h12q77 0 141 -58q56 -52 84 -131l17 -18v538h111l-51 64h-65q-23 36 -30 93
l-18 18v-564q-72 90 -124 118z" />
    <glyph glyph-name="grave" unicode="`" horiz-adv-x="412" 
d="M0 600l51 -64h56v-286q0 -16 20 -32.5t38 -21.5q14 39 55 91t76 77q-15 -70 -15 -152q0 -106 31 -196l25 -16q-14 75 -14 158q0 87 14 138q10 38 52 127q-11 49 -65 69q-103 -68 -180 -174l16 30v188h328l-52 64h-436z" />
    <glyph glyph-name="a" unicode="a" horiz-adv-x="374" 
d="M268 400q0 -25 8 -123q7 -88 4 -123l-1 -11q-30 80 -134 144zM151 634q-23 2 -30 2q-37 0 -60.5 -30t-23.5 -68q0 -48 28 -83t75 -48l-106 -94l46 -93q72 -3 137 -62q61 -56 81 -129l23 -29v536h111l-51 64h-113v-81l-83 -71l-25 -5q-33 0 -69 50l-7 26q0 31 34 44l-1 -8
q0 -49 40 -49q19 0 32.5 13.5t13.5 32.5q0 58 -52 82z" />
    <glyph glyph-name="b" unicode="b" horiz-adv-x="426" 
d="M157 192q34 0 53 31q16 26 16 62q0 24 -18 48q62 -8 107 -129q38 -102 38 -178l22 -26v536h101l-51 64h-425l49 -64h272l1 -278q-1 59 -44 107.5t-101 48.5q-47 0 -76.5 -33.5t-29.5 -81.5q0 -44 20 -74q23 -33 66 -33z" />
    <glyph glyph-name="c" unicode="c" horiz-adv-x="501" 
d="M408 386q0 68 -71.5 141t-139.5 73q-62 0 -104.5 -48.5t-42.5 -111.5q0 -57 39 -62q18 10 56 24l23 -8q7 -17 7 -37q0 -43 -55 -98l81 -24l155 193q43 -39 43 -198q0 -27 -2.5 -82t-2.5 -82l54 -67v537h101l-51 64h-56q-25 41 -30 94l-18 23v-248q2 -14 14 -83zM132 448
q0 37 23.5 60t60.5 23q62 0 88 -42l-101 -126l2 15q0 33 -20 53t-53 17z" />
    <glyph glyph-name="d" unicode="d" horiz-adv-x="580" 
d="M375 402h48q68 0 68 -73l-7 -20q-13 30 -39 30q-19 0 -29 -19.5t-10 -40.5q0 -56 46 -56q35 0 53 37q14 28 14 67q0 58 -29 107q-33 58 -87 58h-82v-312l23 -86q-15 52 -59.5 112t-88.5 88l82 85q-60 114 -118 157h475l-51 64h-584l50 -63l3 -1q0 -40 24 -51
q55 -10 67 -14q36 -11 58 -34l-118 -122l60 -92q66 0 127 -64q54 -56 76 -126l28 -34v403z" />
    <glyph glyph-name="e" unicode="e" horiz-adv-x="438" 
d="M321 409v-257q-86 110 -149 155q43 49 149 102zM496 536l-51 64h-445l50 -64h271v-30q-144 -61 -249 -172l56 -97q73 -7 141 -74q64 -62 85 -137l21 -27v537h121z" />
    <glyph glyph-name="f" unicode="f" horiz-adv-x="520" 
d="M0 600l50 -64h522l-49 64h-523zM396 468q-1 -32 -33.5 -68t-63.5 -38q16 19 16 45q0 73 -63 73q-29 0 -46 -24.5t-17 -54.5q0 -54 30 -93q32 -42 85 -42q35 0 74 27.5t52 60.5l11 -6q10 -16 10 -42q0 -57 -44 -93q-40 -33 -99 -33q-78 0 -151 114q-58 91 -80 185l-22 28
q0 -129 83 -273q93 -162 212 -162q76 0 111 80q25 57 25 145q0 98 -90 171z" />
    <glyph glyph-name="g" unicode="g" horiz-adv-x="430" 
d="M358 21l17 -21v536h111l-51 64h-435l52 -64h-11l-1 -18q-2 -40 42 -56q78 -28 84 -32q44 -31 42 -104q-21 9 -44 9q-36 0 -56.5 -23.5t-20.5 -59.5q0 -42 19 -72q22 -35 62 -35q26 0 48 15.5t28 40.5q35 -14 74 -77.5t40 -102.5zM268 274q0 75 -39 142l-86 120h178v-372
q-23 69 -53 110z" />
    <glyph glyph-name="h" unicode="h" horiz-adv-x="432" 
d="M324 144q-4 53 -43 91q-22 22 -85 59l82 85q-60 114 -118 157h161zM145 476q21 0 57 -39l-118 -122l60 -92q66 0 127 -64q54 -56 76 -126l28 -34v537h111l-51 64h-435l50 -63l3 -1q0 -18 4 -31q18 -22 39 -27q9 -2 49 -2z" />
    <glyph glyph-name="i" unicode="i" horiz-adv-x="442" 
d="M321 405v-245q-75 104 -143 147q62 67 143 98zM159 96q0 -67 45 -67q19 0 30 17t11 37t-13 36t-33 16q-40 0 -40 -39zM352 25l23 -29v540h122l-51 64h-446l49 -64h272v-26q-148 -72 -249 -176l59 -103q81 -13 140 -70q56 -54 81 -136z" />
    <glyph glyph-name="j" unicode="j" horiz-adv-x="537" 
d="M204 198q-61 18 -61 84q0 38 23 72.5t60 34.5q61 0 98 -84l26 -11q-9 7 -9 36q0 34 4 45q8 21 35 21q45 -28 51 -75l-3 -11v-244l54 -66v536h111l-51 64h-542l49 -64h379v-17q0 -62 12 -158q-10 38 -33 73q-30 46 -59 46q-48 0 -58 -65q-10 28 -36 46.5t-56 18.5
q-59 0 -90 -61q-25 -49 -25 -114q0 -54 38 -104q40 -54 93 -54q38 0 61 28t23 67q0 27 -15.5 49t-41.5 22l-23 -3q-23 -20 -28 -27q-10 -14 -10 -38q0 -26 24 -47z" />
    <glyph glyph-name="k" unicode="k" horiz-adv-x="478" 
d="M276 599q-19 0 -36 -4q-50 -36 -57 -62q-27 69 -111 69q-12 0 -36.5 -1t-36.5 -1l51 -64l20 3q63 0 85 -49q-43 -8 -73 -47t-30 -84q0 -89 58 -89q34 0 62 33t28 68l-4 19q-6 -11 -6 -26q0 -34 25 -68q26 -37 59 -37q31 0 48 29q15 24 15 57q0 42 -24.5 78t-63.5 51
q18 50 54 50q28 0 48 -31q6 -9 24 -55v-371l53 -67v536h102l-52 64h-54q-22 33 -29 94l-20 25v-185l15 -68q-5 41 -38 85q-37 48 -76 48z" />
    <glyph glyph-name="l" unicode="l" horiz-adv-x="429" 
d="M202 444l-113 -140l55 -81q66 0 127 -64q54 -56 76 -126l28 -34v537h101l-51 64h-425l50 -63l3 -1q0 -38 28 -54q14 -8 61 -16q42 -7 60 -22zM321 329q-2 -27 -2 -62q0 -52 5 -123q-26 88 -128 150l72 90zM321 536v-166q-19 33 -74 93q-60 65 -87 73h161z" />
    <glyph glyph-name="m" unicode="m" horiz-adv-x="475" 
d="M284 448q-14 0 -29.5 -13.5t-19.5 -27.5q3 26 3 29q0 75 -50 100h187q-3 -60 -3 -85q0 -66 12 -108q-57 105 -100 105zM163 154q12 0 25 11l54 99q32 58 65 90l17 7q54 0 54 -176q0 -11 -1 -32q-1 -27 -1 -39l-1 -48l53 -66v536h102l-52 64h-478l48 -62h4q7 -52 49 -63
l73 -12q38 -13 38 -66q0 -25 -31 -81q-33 -59 -54 -65q-28 14 -26 50l-19 -25q2 -35 24 -75q26 -47 57 -47z" />
    <glyph glyph-name="n" unicode="n" horiz-adv-x="432" 
d="M0 600l51 -64h89q18 -11 49 -40q-47 -4 -72 -47q-21 -36 -21 -87q0 -18 19 -32.5t38 -14.5q40 0 67.5 32t23.5 72q20 7 35 7q57 0 57 -67q0 -60 -54 -89q-42 -23 -107 -23q-66 0 -118 39l66 -152q76 -11 180 -84q90 -63 153 -134l-13 51q-74 96 -198 191q57 10 95 62
q36 49 36 109q0 168 -128 168q-10 0 -20 -1q-5 14 -17 40h273l-51 64h-433z" />
    <glyph glyph-name="o" unicode="o" horiz-adv-x="501" 
d="M100 477l-16 21l-2 -64q-4 -123 54 -238q67 -133 185 -133q75 0 109 84q25 61 25 148q0 80 -72 159q-16 -35 -43 -67q-33 -40 -62 -45l-10 16v178h288l-51 64h-505l51 -64h163q0 -21 -2 -61.5t-2 -61.5q0 -60 17 -104q23 -61 73 -61q24 0 60.5 33.5t42.5 58.5h7
q14 -20 14 -46q0 -51 -33 -90.5t-83 -39.5q-96 0 -155 113q-46 88 -53 200zM196 -40q0 -21 15.5 -36t36.5 -15q19 0 32.5 13.5t13.5 32.5q0 22 -15 36.5t-37 14.5q-46 0 -46 -46z" />
    <glyph glyph-name="p" unicode="p" horiz-adv-x="406" 
d="M0 600l49 -64h58v-351q0 -55 60 -117q37 -3 32 -3q19 0 48 18q116 73 116 243q0 42 -18 76q-22 42 -60 42q-26 0 -44 -28q-16 -24 -16 -52q0 -50 49 -65l17 3q1 -14 1 -42q0 -44 -34.5 -82.5t-78.5 -52.5l-14 7q-5 14 -5 36v368h302l-52 64h-410zM126 -30q0 -21 15.5 -36
t36.5 -15q19 0 32.5 13.5t13.5 32.5q0 22 -15 36.5t-37 14.5q-46 0 -46 -46z" />
    <glyph glyph-name="q" unicode="q" horiz-adv-x="426" 
d="M148 75q0 -51 52 -51q46 0 46 46q0 22 -15 36.5t-37 14.5q-46 0 -46 -46zM324 154q-23 76 -128 140l82 85q-60 114 -118 157h161q-1 -31 -1 -89q0 -103 4 -293zM145 476q21 0 57 -39l-118 -122l60 -92q66 0 127 -64q54 -56 76 -126l28 -34v537h101l-51 64h-425l50 -63
l3 -1q0 -18 4 -31q18 -22 39 -27q9 -2 49 -2z" />
    <glyph glyph-name="r" unicode="r" horiz-adv-x="319" 
d="M114 509q-7 -17 -7 -32q0 -41 30.5 -75t71.5 -34q36 0 58 34q19 29 19 67q0 130 -119 130q-62 0 -98 -60q-31 -50 -31 -116q0 -111 77 -168q40 -21 144 -77q77 -43 77 -130l28 -34q2 29 2 40q0 82 -49 150q-47 65 -124 98q-33 14 -79 38q-37 25 -37 98q0 36 37 71z
M137 527q22 13 35 13q34 0 57.5 -19.5t23.5 -52.5q0 -41 -35 -41q-32 0 -57.5 26t-25.5 58z" />
    <glyph glyph-name="s" unicode="s" horiz-adv-x="325" 
d="M403 -16q-38 16 -94 71q-77 77 -99 95q-64 54 -130 75v86q179 -75 323 -327zM237 545l4 -20q0 -42 -32 -86q-35 -47 -76 -47l-9 3l-3 14q0 47 27 92q31 50 75 50zM203 604q-57 0 -91 -59q-29 -49 -29 -111q0 -98 63 -98q59 0 95 58q32 50 32 112q0 98 -70 98z" />
    <glyph glyph-name="t" unicode="t" horiz-adv-x="320" 
d="M237 545l4 -20q0 -42 -32 -86q-35 -47 -76 -47l-9 3l-3 14q0 47 27 92q31 50 75 50zM203 604q-57 0 -91 -59q-29 -49 -29 -111q0 -98 63 -98q59 0 95 58q32 50 32 112q0 98 -70 98zM237 212l4 -20q0 -42 -32 -86q-35 -47 -76 -47l-9 3l-3 14q0 47 27 92q31 50 75 50z
M203 271q-57 0 -91 -59q-29 -49 -29 -111q0 -98 63 -98q59 0 95 58q32 50 32 112q0 98 -70 98z" />
    <glyph glyph-name="u" unicode="u" 
d="M-230 820l-1 -25q-2 -51 31 -100q37 -53 86 -53q45 0 74 46q24 38 28 88l-7 9q-1 -25 -49 -73q-32 -12 -48 -12q-33 0 -65.5 35t-35.5 69zM-150 807q0 -17 12 -33t28 -16q14 0 25 16t11 31q0 17 -11.5 32.5t-28.5 16.5q-36 -12 -36 -47z" />
    <glyph glyph-name="v" unicode="v" horiz-adv-x="208" 
d="M160 536h102l-52 64h-53q-22 33 -29 94l-21 25v-161l17 -58q-13 55 -74 98l-11 2h-39l50 -64q57 -24 57 -86v-383l53 -67v536z" />
    <glyph glyph-name="w" unicode="w" horiz-adv-x="204" 
d="M235 852q-63 0 -113.5 -47t-50.5 -109q0 -58 37 -96h-108l49 -64h58v-474l53 -64v538h102l-51 64h-58q-7 8 -19 31.5t-12 31.5q0 51 54 88q49 35 102 35q143 0 238 -126q-21 79 -111 137q-84 55 -170 55z" />
    <glyph glyph-name="x" unicode="x" horiz-adv-x="188" 
d="M-139 865q-56 0 -96 -24q-49 -29 -49 -81q0 -63 62 -80q1 -1 93 -9l22 -2q62 -6 62 -41q0 -17 -7 -28h40q-8 99 -54 126q-31 18 -139 18q-49 0 -49 27q0 25 45 39q32 10 66 10q92 0 160 -64.5t68 -155.5h-85l50 -64h34v-471l55 -65v536h101l-51 64h-50q-9 115 -86.5 190
t-191.5 75z" />
    <glyph glyph-name="y" unicode="y" 
d="M-92 110l40 -51v-64l131 -165l17 -98l-157 196q0 -36 -26 -64.5t-62 -28.5q-42 0 -72 31.5t-30 73.5t26.5 72.5t67.5 30.5q33 0 65 -19v86zM-152 -4q-25 0 -44.5 -17.5t-19.5 -42.5q0 -16 18 -27.5t35 -11.5q26 0 43 20t17 47q-16 32 -49 32z" />
    <glyph glyph-name="z" unicode="z" 
d="M-252 90l40 -51v-64l131 -165l17 -98l-157 196q0 -36 -26 -64.5t-62 -28.5q-42 0 -72 31.5t-30 73.5t26.5 72.5t67.5 30.5q33 0 65 -19v86zM-312 -24q-25 0 -44.5 -17.5t-19.5 -42.5q0 -16 18 -27.5t35 -11.5q26 0 43 20t17 47q-16 32 -49 32z" />
    <glyph glyph-name="braceleft" unicode="{" horiz-adv-x="318" 
d="M40 284q74 -41 93 -118q8 -33 8 -155q0 -242 173 -242l-7 17q-24 1 -82 36q-30 43 -30 125v134q0 82 -27.5 131t-98.5 87q92 46 113 121q10 35 10 169q0 143 33 189l39 24q19 12 43 12l7 17q-119 0 -149 -102l-26 -218q-17 -142 -99 -203v-24z" />
    <glyph glyph-name="bar" unicode="|" horiz-adv-x="315" 
d="M214 597v-530l54 -67v531z" />
    <glyph glyph-name="braceright" unicode="}" horiz-adv-x="423" 
d="M376 301q-89 -33 -111 -117q-10 -38 -10 -168q0 -103 -51 -164q-55 -66 -156 -66l8 17l10 -1q23 -2 88 37q38 51 38 170v46q0 -3 -1 26v17q0 88 34 139.5t116 78.5q-92 28 -124 95q-22 46 -22 141v62q0 122 -41 181q-40 21 -47 24q-28 12 -51 12l-8 17h15q132 0 165 -106
q7 -62 28 -222q19 -138 120 -195v-24z" />
    <glyph glyph-name="asciitilde" unicode="~" 
d="M-81 56l26 -33l13 -84q-29 11 -60 11q-52 0 -52 -36q0 -14 12.5 -23t26.5 -9q48 0 64 20l15 -4l102 -98l8 -52l-104 96q-25 -25 -69 -25q-36 0 -61 35q-24 32 -24 69q0 30 16.5 51t45.5 21q24 0 41 -11v72z" />
    <glyph glyph-name="quotesinglbase" unicode="&#x201a;" 
d="M-241 76l26 -33l13 -84q-29 11 -60 11q-52 0 -52 -36q0 -14 12.5 -23t26.5 -9q48 0 64 20l15 -4l102 -98l8 -52l-104 96q-25 -25 -69 -25q-36 0 -61 35q-24 32 -24 69q0 30 16.5 51t45.5 21q24 0 41 -11v72z" />
    <glyph glyph-name="florin" unicode="&#x192;" horiz-adv-x="93" 
d="M-66 600l47 -64h172l-50 64h-169zM-96 447v-80q49 41 80 50l-7 -145q0 -5 7 -173l48 -58l-8 227q-1 26 3 73q5 51 5 73q0 14 -18 40t-32 36q-44 -10 -78 -43z" />
    <glyph glyph-name="quotedblbase" unicode="&#x201e;" 
d="M-92 64l-99 -64l175 -138l-14 43l-86 70l64 38z" />
    <glyph glyph-name="ellipsis" unicode="&#x2026;" 
d="M-243 44l-99 -64l176 -138l-14 43l-88 70l64 38z" />
    <glyph glyph-name="dagger" unicode="&#x2020;" horiz-adv-x="225" 
d="M183 53q65 0 65 79q0 63 -63 63q-28 0 -46.5 -25.5t-14.5 -53.5q-30 54 -30 142q0 199 184 278l-51 64q-73 -47 -120.5 -132t-47.5 -170q0 -83 24 -150q34 -95 100 -95z" />
    <glyph glyph-name="daggerdbl" unicode="&#x2021;" horiz-adv-x="225" 
d="M278 536l-51 64h-227l49 -64h91q-81 -113 -81 -238q0 -83 24 -151q33 -94 100 -94q65 0 65 79q0 63 -63 63q-28 0 -46.5 -25.5t-14.5 -53.5q-30 54 -30 142q0 199 184 278z" />
    <glyph glyph-name="circumflex" unicode="&#x2c6;" horiz-adv-x="217" 
d="M26 289q0 -78 34 -164q42 -107 108 -107q22 0 38 21t16 44t-13.5 43t-35.5 20q-20 0 -34 -20t-14 -41q0 -18 10 -28q-67 90 -67 223q0 171 160 271q-1 15 1 40q3 29 3 40q0 77 -69 96q-22 6 -131 6q-90 0 -90 62q0 18 14 35l-11 12q-21 -37 -21 -57q0 -54 36 -84t91 -30
q15 0 44.5 3.5t44.5 3.5q67 0 67 -46q0 -23 -23 -32q-158 -142 -158 -311z" />
    <glyph glyph-name="perthousand" unicode="&#x2030;" horiz-adv-x="260" 
d="M277 537q12 26 12 54q0 62 -40 112.5t-101 50.5q-17 0 -51.5 -6t-51.5 -6q-76 0 -76 62q0 31 15 50l-12 16q-31 -51 -31 -94q0 -111 125 -111q20 0 59 4.5t59 4.5q52 0 52 -32q0 -28 -10 -42h-226l49 -64h94zM140 536q-81 -113 -81 -238q0 -83 24 -151q33 -94 100 -94
q65 0 65 79q0 63 -63 63q-28 0 -46.5 -25.5t-14.5 -53.5q-30 54 -30 142q0 199 184 278h-138z" />
    <glyph glyph-name="Scaron" unicode="&#x160;" horiz-adv-x="198" 
d="M160 600q0 68 -38 116q-41 53 -107 53q-23 0 -69.5 -7t-69.5 -7q-77 0 -77 62q0 31 15 50l-13 16q-31 -45 -31 -101q0 -102 129 -102q25 0 73.5 3.5t73.5 3.5q27 0 48 -12q26 -14 26 -39q0 -19 -13 -36h-107l52 -64h55v-469l53 -67v536h92l-52 64h-40z" />
    <glyph glyph-name="guilsinglleft" unicode="&#x2039;" horiz-adv-x="66" 
d="M-121 300v-159q-52 68 -95 97q31 23 95 62zM-121 362q-100 -34 -164 -106l39 -68q66 -7 100 -59q14 -21 61 -100v274q44 -9 62 -23q23 -19 23 -60l-2 -15q0 32 -32 32l-8 -1l-17 -16l-6 -27q0 -39 41 -39q45 0 45 77q0 112 -142 131zM119 536l-51 64h-148l50 -64h149z
" />
    <glyph glyph-name="OE" unicode="&#x152;" horiz-adv-x="112" 
d="M-70 600l49 -64h191l-49 64h-191zM-53 17l-16 21q-13 51 -66 51q-8 0 -24.5 -1t-24.5 -1q-95 0 -95 106q0 44 20 74l6 -13q-7 -18 -7 -47q0 -65 59 -65q9 0 28 1t28 1q15 0 38 -23q20 -20 28 -36q-13 20 -9 166l2 76q-26 -3 -45 -23.5t-23 -46.5l15 3q28 0 28 -37
q0 -18 -13.5 -31t-31.5 -13q-48 0 -48 79q0 33 28.5 69.5t60.5 36.5q39 0 62 -45l-1 -55q46 51 69 51q49 0 49 -79q0 -29 -12 -55q-15 -33 -41 -30l-9 1q-24 13 -24 35q0 37 24 37q11 0 19 -11t8 -22q14 12 14 23q0 49 -31 49q-36 0 -65 -38v-208z" />
    <glyph glyph-name="quoteleft" unicode="&#x2018;" 
d="M-126 81q59 0 59 56q0 15 -11 33q-9 -15 -40 -21q-35 8 -35 55q0 17 11 32.5t27 15.5l24 -10q17 13 17 37q0 34 -36 34q-58 0 -80 -53q17 -13 17 -36q0 -48 -46 -48q-35 0 -35 74q0 48 42 77q37 26 87 26q38 0 60 -37q19 -31 19 -72q0 -29 -17 -56q21 -28 21 -95
q0 -37 -25 -61.5t-62 -24.5q-77 0 -145 132q-60 116 -60 202l14 -15q9 -75 64 -155q62 -90 130 -90z" />
    <glyph glyph-name="quoteright" unicode="&#x2019;" 
d="M-194 348q-55 -30 -55 -87q0 -22 16 -39q21 -8 26 -8q31 0 52.5 24t16.5 54q22 5 27 5q41 0 41 -47q0 -41 -27.5 -63.5t-69.5 -22.5q-76 0 -111 28l49 -114q53 -5 135 -63q71 -50 114 -100l-9 38q-53 72 -148 143q42 9 69.5 46t27.5 80q0 133 -110 128z" />
    <glyph glyph-name="quotedblleft" unicode="&#x201c;" horiz-adv-x="676" 
d="M390 425q-18 0 -37 5q-128 -46 -167 -46q-54 0 -98 33q-48 36 -46 88q3 17 20 50q15 15 39 21q37 9 69 -5q36 -16 36 -54q0 -31 -27 -37q-9 -2 -28 4t-19 14q1 2 5 2t15 -2t17 -1q14 2 14 16q0 26 -30 34q-18 5 -29 5q-28 0 -47 -33q0 -38 25 -60t64 -22q32 0 118 27
q-39 34 -38 63q3 18 21 51q13 14 38 20q38 9 69 -4q36 -15 36 -54q0 -31 -27 -37q-9 -2 -28 3.5t-19 13.5q1 2 5 2t15 -2t17 -1q14 2 14 17q0 25 -30 33q-18 5 -29 5q-28 0 -47 -32q0 -63 90 -63q25 4 80 19q61 25 113 25q58 0 92 -23l48 -32v-57q-19 30 -56 50.5t-72 20.5
q-28 0 -91 -27q-49 -30 -95 -30z" />
    <glyph glyph-name="quotedblright" unicode="&#x201d;" horiz-adv-x="167" 
d="M145 224l-11 6l-1 10v252q15 -94 106 -122q0 -97 -94 -146zM132 535l162 1l-50 64h-244l49 -64h43v-298q18 -38 53 -66q70 21 110 83q38 58 38 134q0 29 -41 54q-38 0 -73 27.5t-47 64.5z" />
    <glyph glyph-name="bullet" unicode="&#x2022;" horiz-adv-x="224" 
d="M160 510q0 20 13 34.5t33 14.5q11 0 24 -4l12 -12q0 -38 -62 -38q-10 0 -20 5zM42 506l-16 22q0 -116 39 -215q52 -131 150 -131q43 0 67.5 29t24.5 73q0 105 -68 160q-26 -37 -32 -44q-24 -28 -42 -28l-7 20v87q20 -11 53 -11q24 0 40 21.5t16 46.5q0 31 -19.5 50
t-50.5 19q-34 0 -54.5 -23t-20.5 -58q-33 39 -38 81l-54 -17q22 -66 88 -94q0 -12 -1 -37t-1 -37q0 -109 65 -109q21 0 46 17.5t34 37.5q19 -29 19 -47q0 -31 -28 -49q-24 -16 -56 -16q-65 0 -113 97q-41 82 -41 155z" />
    <glyph glyph-name="endash" unicode="&#x2013;" 
d="M-72 60l40 -51v-64l131 -165l17 -98l-157 196q0 -36 -26 -64.5t-62 -28.5q-42 0 -72 31.5t-30 73.5t26.5 72.5t67.5 30.5q33 0 65 -19v86zM-132 -54q-25 0 -44.5 -17.5t-19.5 -42.5q0 -16 18 -27.5t35 -11.5q26 0 43 20t17 47q-16 32 -49 32z" />
    <glyph glyph-name="emdash" unicode="&#x2014;" 
d="M-274 244q0 -31 21.5 -57.5t51.5 -26.5q59 0 59 71q0 32 -21 59q20 3 24 3q55 0 55 -95q0 -50 -27.5 -81.5t-76.5 -31.5q-106 0 -187 134q-63 104 -84 231l-17 20q0 -153 77 -308q92 -185 229 -185q75 0 110 69q28 54 28 136q0 76 -39 124q-42 52 -117 52q-39 0 -64 -39
q-22 -34 -22 -75z" />
    <glyph glyph-name="tilde" unicode="&#x2dc;" horiz-adv-x="265" 
d="M0 600l51 -64h56v-286q0 -16 20 -32.5t38 -21.5q14 39 55 91t76 77q-15 -70 -15 -152q0 -106 31 -196l25 -16q-14 75 -14 158q0 87 14 138q10 38 52 127q-11 49 -65 69q-103 -68 -180 -174l16 30v188h158l-52 64h-266z" />
    <glyph glyph-name="trademark" unicode="&#x2122;" horiz-adv-x="477" 
d="M337 336q0 45 10 77q-67 -48 -119 -131q-37 14 -68 67v187h-110l-50 64h488l51 -64h-325v-145q62 83 150 122q47 -20 76 -62q-66 -75 -66 -181l-22 -23q-15 48 -15 89z" />
    <glyph glyph-name="scaron" unicode="&#x161;" horiz-adv-x="537" 
d="M481 427q0 23 -13 59t-28 50h152l-52 64h-540l52 -64h339q16 -7 26.5 -31t10.5 -44q0 -34 -47 -53q-15 37 -59.5 67t-84.5 30q-79 0 -79 -106q0 -33 11 -49t41 -32q20 -3 25 -3q48 0 48 70q0 45 -25 64q45 -5 77 -37t32 -76l50 -9q64 30 64 100z" />
    <glyph glyph-name="guilsinglright" unicode="&#x203a;" horiz-adv-x="201" 
d="M344 234l-59 54q-5 42 -25 54q-30 9 -59 17q8 -13 8 -30q0 -30 -23.5 -51.5t-53.5 -21.5q-41 0 -67.5 31.5t-26.5 73.5q0 101 122 101q68 0 116 -67v141h-283l-79 64h390q44 0 44 -50q0 -53 -2 -158t-2 -158z" />
    <glyph glyph-name="oe" unicode="&#x153;" 
d="M-108 382v-322l8 -39q0 39 -41.5 83.5t-80.5 44.5q-33 0 -56 -26t-23 -59t16 -56q18 -26 49 -26q50 0 50 62q0 14 -10 28h11q37 -21 74 -92q35 -65 41 -113l18 -20l-1 535h-55z" />
    <glyph glyph-name="glyph121" horiz-adv-x="438" 
d="M321 409v-257q-86 110 -149 155q43 49 149 102zM496 536l-51 64h-445l50 -64h271v-30q-144 -61 -249 -172l56 -97q73 -7 141 -74q64 -62 85 -137l21 -27v537h121zM154 124l3 43q43 0 83.5 -36t50.5 -79q1 -3 -2 -40q-38 94 -135 112z" />
    <glyph glyph-name="Ydieresis" unicode="&#x178;" horiz-adv-x="235" 
d="M132 409v-237q-83 91 -150 135q48 55 150 102zM284 536l-49 64h-384l50 -64h231v-30q-144 -61 -249 -172l55 -97q90 -10 174 -112q16 -20 37 -64.5t36 -63.5v539h99z" />
    <glyph glyph-name="nonbreakingspace" unicode="&#xa0;" horiz-adv-x="338" 
d="M100 477l-16 21l-2 -64q-4 -123 54 -238q67 -133 185 -133q75 0 109 84q25 61 25 148q0 80 -72 159q-16 -35 -43 -67q-33 -40 -62 -45l-10 16v178h208l-51 64h-425l51 -64h163q0 -21 -2 -61.5t-2 -61.5q0 -60 17 -104q23 -61 73 -61q24 0 60.5 33.5t42.5 58.5h7
q14 -20 14 -46q0 -51 -33 -90.5t-83 -39.5q-96 0 -155 113q-46 88 -53 200zM196 -40q0 -21 15.5 -36t36.5 -15q19 0 32.5 13.5t13.5 32.5q0 22 -15 36.5t-37 14.5q-46 0 -46 -46z" />
    <glyph glyph-name="exclamdown" unicode="&#xa1;" 
d="M-261 28v-193l21 -31q-47 97 -133 147q36 38 112 77zM-261 100q-120 -57 -187 -129l42 -72q63 -16 95 -42q20 -17 47 -59q30 -48 56 -79v381h-53z" />
    <glyph glyph-name="cent" unicode="&#xa2;" 
d="M-98 372q45 -36 61.5 -72t16.5 -96q0 -80 -36 -131q-41 -58 -118 -58q-43 0 -87 37q-165 139 -181 455l17 -21q25 -138 75 -233q72 -137 179 -137q51 0 85 32.5t34 83.5q0 24 -9 45q-10 -34 -47.5 -63t-73.5 -29q-107 0 -107 121q0 28 16.5 49.5t43.5 21.5q55 0 55 -68
q0 -31 -22 -49q34 11 59 47z" />
    <glyph glyph-name="sterling" unicode="&#xa3;" 
d="M-213 373q-53 0 -53 -68q0 -35 20 -60q21 -28 55 -28q75 0 105 65v-215l9 -25q-16 47 -72 63q-20 6 -75 7q-48 1 -68 17q-24 18 -24 65q0 32 8 54l-8 11q-21 -42 -21 -83q0 -64 22 -92q25 -31 88 -31q14 0 41 1t41 1q33 0 59 -32q2 -3 39 -60v366q-18 18 -57 49
q0 -65 -81 -93q15 12 15 37q0 51 -43 51z" />
    <glyph glyph-name="currency" unicode="&#xa4;" horiz-adv-x="416" 
d="M156 536q10 -17 13 -47q10 -6 52 -40q34 -27 57 -27q45 0 45 52q0 43 -43 62h-124zM423 600l50 -64h-135q36 -57 36 -110q0 -78 -54 -97q-55 6 -82 43q-41 57 -60 70l1 -16q2 -32 -15 -55t-48 -23q-59 0 -59 74q0 84 75 84q-5 32 -44 32q-7 0 -19.5 -1t-19.5 -1l-49 64
h423z" />
    <glyph glyph-name="yen" unicode="&#xa5;" horiz-adv-x="195" 
d="M-148 -21q0 -28 20.5 -51t48.5 -23t44.5 20.5t16.5 49.5q0 8 -1 15q107 -48 135 -154l17 -21v721h129l-51 64h-231l50 -64h50q-3 -141 -3 -286q0 -275 14 -303q-12 34 -64 81.5t-85 47.5q-90 0 -90 -97z" />
    <glyph glyph-name="brokenbar" unicode="&#xa6;" 
d="M-201 18v-193l21 -31q-47 97 -133 147q36 38 112 77zM-201 90q-120 -57 -187 -129l42 -72q63 -16 95 -42q20 -17 47 -59q30 -48 56 -79v381h-53z" />
    <glyph glyph-name="section" unicode="&#xa7;" horiz-adv-x="192" 
d="M-51 364h-42l60 -117l-22 1q-34 2 -51 -31q-14 -26 -14 -63q0 -29 19.5 -51.5t48.5 -22.5t46 22q15 19 15 49q0 7 -1 14q90 -47 115 -148l17 -21v540h109l-51 64h-222l51 -64h59q0 -34 -1.5 -102t-1.5 -102q0 -178 15 -204q-21 65 -89 99z" />
    <glyph glyph-name="dieresis" unicode="&#xa8;" horiz-adv-x="217" 
d="M165 181q0 40 -18 119t-18 119q0 78 75 117h68l-52 64h-220l50 -64h104q-85 -51 -85 -161q0 -41 16 -122t16 -122q0 -51 -25 -79q-22 -24 -73 -42l30 -15q76 8 107 61q25 43 25 125z" />
    <glyph glyph-name="copyright" unicode="&#xa9;" 
d="M-85 600l192 186h-35l-273 -187z" />
    <glyph glyph-name="ordfeminine" unicode="&#xaa;" 
d="M-381 113q0 33 15 60l-11 20q-31 -44 -31 -135q0 -49 36 -94q38 -48 86 -48q9 0 81 8q27 3 49 3h12q36 -18 53 -42l38 -55v303h-54v-158l25 -75q-3 20 -30 53q-39 47 -77 47q-12 0 -34.5 -1.5t-34.5 -1.5q-123 0 -123 116z" />
    <glyph glyph-name="guillemotleft" unicode="&#xab;" 
d="M-22 82h-55v-86l24 -60q-6 32 -44.5 66.5t-70.5 34.5q-11 0 -33 -3t-33 -3q-66 0 -100.5 39.5t-34.5 106.5q0 19 6 35l-13 17q-14 -42 -14 -84q0 -66 26 -123q33 -73 91 -73q22 0 64.5 6.5t64.5 6.5q43 0 70.5 -28t26.5 -71l25 -30v249z" />
    <glyph glyph-name="logicalnot" unicode="&#xac;" 
d="M-259 159v-87l10 -45q-7 30 -25 61q-23 40 -45 40q-17 0 -30 -18t-13 -36q-6 22 -26.5 38t-43.5 16q-41 0 -65 -46q-20 -38 -20 -83q0 -53 23 -94q28 -50 77 -50q29 0 45 22t16 52q0 39 -30 54l-12 1l-16 -2q-33 -18 -33 -55q0 -22 19 -38q-43 20 -43 75q0 30 15 56
q18 32 45 32q28 0 49.5 -19.5t28.5 -47.5l16 -10q-7 17 -7 37q0 47 29 47q43 0 36 -148l54 -66v314h-54z" />
    <glyph glyph-name="minus" unicode="&#x2212;" horiz-adv-x="546" 
d="M255 415v185h292l52 -64h-291v-368q0 -22 5 -36l14 -7q44 14 78.5 52.5t34.5 82.5q0 28 -1 42l-17 -3q-49 15 -49 65q0 28 16 52q18 28 44 28q38 0 60 -43q18 -34 18 -76q0 -169 -116 -242q-29 -18 -46 -18q4 0 -34 3q-61 63 -61 160v38l1 43q-53 98 -98 128h-11
q15 -18 15 -31q0 -68 -51 -68q-32 0 -53 29q-19 26 -19 59q0 39 19 65q22 30 59 30q35 0 80 -35.5t59 -70.5z" />
    <glyph glyph-name="registered" unicode="&#xae;" horiz-adv-x="333" 
d="M382 536h-91q9 -7 9 -29q0 -82 -35 -138q-41 -67 -118 -67q-36 0 -61 32t-25 69q0 86 47 133h-59l-49 64h333zM263 500q0 44 -37 44q-43 0 -70 -43l68 -84q39 53 39 83zM208 395l-68 84q-39 -32 -39 -93l7 -25q11 -12 29 -12q48 0 71 46z" />
    <glyph glyph-name="macron" unicode="&#xaf;" horiz-adv-x="464" 
d="M512 536h-121q33 -59 33 -77q0 -77 -73 -115q-110 0 -136 129q-16 -66 -26 -90q-24 -60 -58 -60q-29 0 -58.5 29t-31.5 58l11 23q15 -35 43 -35l10 1l10 8q35 84 37 129h-101l-51 64h473zM369 480q0 36 -30 56h-118q12 -39 36 -68q30 -36 65 -36q19 0 33 14.5t14 33.5z
" />
    <glyph glyph-name="degree" unicode="&#xb0;" horiz-adv-x="546" 
d="M296 196q-61 -17 -113 -69q47 -20 76 -49q23 -23 53 -73q-20 34 -20 114q0 34 4 77zM148 312q48 -24 68 -50q28 17 80 38v101q-76 -25 -148 -89zM452 237q31 -47 31 -106q0 -93 -63 -93q-34 0 -34 47t33 47q23 0 37 -24l5 18q0 41 -34.5 67t-76.5 26v-322l-17 20
q-18 57 -63 98t-102 48l-66 105q32 32 78 70q-21 14 -61 13l-66 91q107 111 243 152v42h-245l-51 64h543l51 -64h-244v-35q157 -47 157 -153t-55 -111zM480 335q-14 79 -98 79q-5 -1 -32 -5v-103q28 -6 52 -20v2q0 46 36 46q20 0 34 -12z" />
    <glyph glyph-name="plusminus" unicode="&#xb1;" horiz-adv-x="501" 
d="M268 407v-89q0 -31 -18 -74q-31 45 -39 54q-19 21 -53 43q32 42 110 66zM236 216q-22 -39 -88 -82q-7 -15 -7 -30q0 -57 45 -90q40 -29 99 -29q58 0 97.5 32t39.5 89q0 90 -56 90q-46 0 -46 -58q0 -30 24 -50q-33 -43 -92 -43q-33 0 -60 22q84 50 112 154q19 70 17 195
q52 0 79.5 -32t27.5 -85q-12 30 -45 30q-15 0 -24.5 -17.5t-9.5 -34.5q0 -19 10 -34q11 -18 29 -18q65 0 65 100q0 131 -132 182v29h235l-51 64h-85q0 59 -37 103t-95 44q-23 0 -69.5 -4.5t-69.5 -4.5q-65 0 -65 61l3 20l10 18l-13 16q-28 -27 -28 -75q0 -116 128 -116
q21 0 62.5 4.5t62.5 4.5q75 0 75 -40q0 -14 -9 -31h-375l49 -64h219v-35q-128 -37 -215 -136l72 -89q73 -11 111 -60z" />
    <glyph glyph-name="twosuperior" unicode="&#xb2;" horiz-adv-x="726" 
d="M350 458q13 0 25 6v72h-83l-7 -28q7 -50 65 -50zM399 116q-14 30 -46 56q-16 12 -57 45q0 -21 -18.5 -40t-39.5 -19q-26 0 -44.5 22.5t-18.5 49.5q0 43 17 60.5t60 17.5q7 14 7 29q0 28 -15 50q-17 26 -43 26q-3 0 -25 -3q7 -18 7 -27q0 -24 -18 -42.5t-42 -18.5
q-27 0 -43 26q-14 22 -14 51q0 67 66 82q-23 58 -81 55l-51 64h721l51 -64h-109v-651l-17 21q-28 106 -135 154q2 -8 2 -16q0 -27 -17.5 -48t-44.5 -21q-28 0 -48.5 23t-20.5 51q0 40 17 67zM428 536v-67q156 0 156 -167q0 -98 -60 -98q-23 0 -39.5 22.5t-16.5 46.5
q0 22 14 40.5t35 18.5q14 0 25.5 -12.5t12.5 -27.5l7 24q0 63 -68 63h-66v-239q33 11 61 9l15 -1q77 -36 107 -109l-1 497h-182zM162 484q68 -16 102 -74q24 -41 39 -124q46 -18 72 -83q-1 67 -1 111q0 45 1 68q-59 9 -96.5 52t-37.5 102h-97q7 -17 18 -52z" />
    <glyph glyph-name="threesuperior" unicode="&#xb3;" horiz-adv-x="709" 
d="M451 272q30 -40 30 -136q0 -53 -36 -88t-89 -35q-109 0 -207 188q-86 165 -86 289l20 -22q13 -105 93 -220q91 -130 185 -130q84 0 84 80q0 22 -16 48q-12 -21 -57 -30q-50 11 -50 78q0 23 16.5 46t38.5 23q17 0 34 -14q24 18 24 52q0 49 -52 49q-83 0 -114 -76
q25 -19 25 -51q0 -30 -18 -49t-48 -19q-50 0 -50 105q0 70 61 111q53 36 126 36q44 0 76 -41q29 -36 33 -82l62 69q18 9 36 9q78 0 78 -128q0 -107 -85 -132l-14 1q-38 21 -38 56q0 58 37 58q17 0 30 -17t13 -35q23 18 23 34q0 28 -12 51q-15 29 -40 29q-43 0 -72 -35
q-14 -17 -41 -72zM765 536l-52 64h-713l52 -64h713z" />
    <glyph glyph-name="acute" unicode="&#xb4;" horiz-adv-x="576" 
d="M241 435q-39 -19 -108 -70q48 -33 108 -111v181zM243 200q-55 98 -145 108l-44 77q73 82 187 120v31h-191l-50 64h568l51 -64h-119v-570l-17 21q-22 89 -135 148l1 -16q2 -27 -16 -48t-45 -21q-29 0 -48.5 22.5t-19.5 51.5q0 48 23 76zM446 536h-165v-28q46 0 83 -39.5
t37 -85.5q0 -114 -50 -114q-47 0 -47 44q0 32 26 49h9q37 0 37 -35l2 17q0 46 -27 68q-20 16 -70 26v-220q9 -1 53 -4q63 -31 70 -36q40 -26 42 -60v418z" />
    <glyph glyph-name="mu" unicode="&#xb5;" horiz-adv-x="650" 
d="M0 600l49 -64h661l-49 64h-661zM409 -45l-26 33q-21 85 -108 85q-12 0 -37 -3.5t-37 -3.5q-151 0 -151 168q0 70 32 118l9 -20q-11 -29 -11 -76q0 -106 92 -106q15 0 45.5 3.5t45.5 3.5q22 0 60 -37q32 -31 45 -57q-11 18 -14 103q-2 51 0 161l2 120q-41 -5 -71.5 -37
t-36.5 -74l25 5q21 0 32.5 -18.5t11.5 -40.5q0 -27 -22 -48t-49 -21q-49 0 -66 41q-10 24 -10 83q0 53 43 109q46 60 98 60q62 0 98 -72l-1 -87q29 32 49 51q31 30 60 30q78 0 78 -126q0 -46 -19 -86q-24 -51 -65 -48l-14 1q-38 21 -38 56q0 58 37 58q17 0 30 -17t13 -35
q22 19 22 37q0 27 -11 49q-14 28 -38 28q-57 0 -103 -59v-331z" />
    <glyph glyph-name="paragraph" unicode="&#xb6;" horiz-adv-x="641" 
d="M350 458q13 0 25 6v72h-83l-7 -28q7 -50 65 -50zM51 536l-51 64h640l52 -64h-264v-67q156 0 156 -167q0 -98 -60 -98q-23 0 -39.5 22.5t-16.5 46.5q0 22 14 40.5t35 18.5q14 0 25.5 -12.5t12.5 -27.5l7 24q0 64 -83 64h-26q-34 -1 -25 -1v-379l-17 23q-14 108 -115 194
q0 -21 -18.5 -40t-39.5 -19q-26 0 -44.5 22.5t-18.5 49.5q0 43 17 60.5t60 17.5q7 14 7 29q0 28 -15 50q-17 26 -43 26q-5 0 -25 -3q7 -18 7 -27q0 -24 -18 -42.5t-42 -18.5q-27 0 -43 26q-14 22 -14 51q0 67 66 82q-23 59 -81 55zM162 484q68 -16 102 -74q24 -41 39 -124
q43 -47 82 -133q-12 33 -12 130q0 43 2 99q-59 9 -96.5 52t-37.5 102h-97q7 -17 18 -52z" />
    <glyph glyph-name="periodcentered" unicode="&#xb7;" horiz-adv-x="696" 
d="M321 401q-63 -31 -143 -94q68 -43 143 -147v241zM330 52q-58 157 -199 179l-59 103q101 110 249 160v42h-272l-49 64h706l50 -64h-123v-652l-54 66v45q-16 24 -104 48q-23 -3 -104 -48q-75 -42 -99 -62q-36 1 -62 34q-24 30 -29 68l17 28q10 -32 29 -47l8 -1q65 14 95 37
zM579 536h-204v-38q73 0 127 -77q49 -70 49 -146q0 -96 -80 -96q-63 0 -63 60q0 66 44 66q20 0 36.5 -15t16.5 -35q5 16 5 49q0 46 -46 75q-39 25 -89 26v-333l64 56q18 4 33 4q68 0 107 -82v486z" />
    <glyph glyph-name="cedilla" unicode="&#xb8;" horiz-adv-x="595" 
d="M396 0q119 0 119 157q0 44 -27 90q45 35 45 88q0 69 -25 113q-5 9 -50 65q-29 36 -34 74l-16 19l-23 -102q-10 41 -47.5 68t-80.5 27q-56 0 -89 -43q-30 -38 -30 -96q0 -65 42 -75l106 41q18 1 18 -20q0 -55 -100 -121l88 -48q49 62 49 130q0 59 -15 82q-19 28 -76 28
q-19 0 -41 -14q6 65 71 65q46 0 82 -45q32 -39 39 -88l17 -17l22 110q42 -38 42 -95q0 -31 -14 -58q-20 18 -44 18q-22 0 -34.5 -19t-12.5 -42q0 -74 55 -74l11 1l18 10q10 -21 10 -37q0 -33 -23 -59.5t-55 -26.5q-114 0 -207 148q-65 103 -107 251l-22 25q21 -159 105 -323
q106 -207 234 -207z" />
    <glyph glyph-name="onesuperior" unicode="&#xb9;" horiz-adv-x="419" 
d="M176 420q29 27 29 56q0 22 -22 26q-19 -3 -56 -29t-44 -26q-22 0 -38 27q-14 23 -14 47q0 57 36 93t93 36q55 0 98.5 -32t62.5 -84q-4 25 -6 183l19 -23q7 -61 29 -94h66l51 -64h-111v-556l-54 67l-3 198q-52 123 -112 123q-32 0 -55.5 -19.5t-23.5 -50.5q16 18 52 18
q96 0 96 -87q0 -42 -33 -80q-32 -30 -64 -61l-67 68q33 18 67 37q43 28 43 53q0 22 -22 26q-19 -3 -56 -29t-44 -26q-22 0 -38 27q-14 23 -14 47q0 59 38 94.5t97 34.5zM310 340q-2 116 -13 158q-26 100 -107 100q-32 0 -55.5 -19.5t-23.5 -50.5q16 18 52 18q96 0 96 -87
q0 -32 -26 -49q41 -15 77 -70z" />
    <glyph glyph-name="ordmasculine" unicode="&#xba;" horiz-adv-x="664" 
d="M337 600h339l52 -64h-338v-188l-16 -30q77 106 180 174q54 -20 65 -69q-42 -89 -52 -127q-14 -51 -14 -138q0 -83 14 -158l-25 16q-31 90 -31 196q0 82 15 152q-35 -25 -76 -77.5t-55 -90.5q-62 16 -62 116q0 34 5 94q-58 118 -110 118q-33 0 -54 -24t-21 -58
q15 22 49 22q82 0 82 -120q0 -39 -23 -76q-8 -13 -50 -64l-64 79q53 35 61 41q34 29 34 59q0 25 -21 30q-21 -5 -52.5 -33t-42.5 -31q-24 4 -38 34q-12 25 -12 52q0 61 31 103q34 47 93 47q61 0 89 -23q21 -17 49 -79z" />
    <glyph glyph-name="guillemotright" unicode="&#xbb;" horiz-adv-x="534" 
d="M325 186q-45 -26 -95 -66q45 -32 60 -46q30 -27 44 -61q-9 35 -9 173zM171 464q44 0 69 -31.5t25 -75.5q0 -49 -42 -92q-17 -17 -83 -64l-61 67q5 5 82 44q54 27 54 62q0 27 -23 33q-25 -5 -59 -36.5t-47 -34.5q-55 10 -55 96q0 68 34 114q38 52 103 52q116 0 169 -145
q-12 50 -12 65v199l19 -23q7 -60 29 -94h166l51 -64h-211v-229q29 12 59 22q35 -30 50 -76q-16 -70 -16 -215q0 -45 16 -121l-46 58q-12 67 -12 133q0 81 6 141q-33 -5 -57 -30v-323l-22 19q-19 51 -62 92q-48 46 -97 49l-72 90q95 84 199 136v70q0 55 -35 113
q-40 66 -91 66q-36 0 -59.5 -27t-23.5 -64q17 24 55 24z" />
    <glyph glyph-name="onequarter" unicode="&#xbc;" horiz-adv-x="524" 
d="M284 271q-2 -29 -2 -64q0 -95 17 -127q-30 50 -53 73q-29 29 -76 49q41 51 114 69zM428 508q0 -33 -31 -33q-19 0 -43 21t-34 40h94q14 -14 14 -28zM339 381q-8 52 -51 89t-95 37q-13 0 -25 -3q-7 21 -21 32h144q1 -32 46.5 -80.5t77.5 -48.5q45 0 45 63q0 38 -20 66h143
l-51 64h-532l51 -64q36 0 51 -6q19 -8 39 -34q-29 0 -52 -34q-21 -30 -21 -61q0 -27 14.5 -47t40.5 -20q57 0 60 101q15 30 49 30q56 -29 56 -76l-4 -14q-75 -25 -195 -132l67 -105q57 -7 102 -48.5t62 -97.5l17 -20v322h31q26 0 53 -33.5t27 -59.5l-4 -18q-14 24 -38 24
q-33 0 -33 -46q0 -40 35 -48q38 6 52 32q10 19 10 61q0 65 -34.5 111.5t-96.5 63.5z" />
    <glyph glyph-name="onehalf" unicode="&#xbd;" horiz-adv-x="530" 
d="M365 517q0 -39 -30 -39q-39 0 -74 58h95zM360 417q19 0 31.5 20t12.5 40q0 32 -21 59h197l-51 64h-529l52 -64h9q20 0 38.5 -14t24.5 -33q-54 -26 -54 -87q0 -75 58 -75q26 0 40 26q13 23 9 49l15 9h17q23 -13 23 -63q0 -35 -26 -81q-28 -52 -60 -52q-34 0 -38 51
l-17 -28v-7q0 -31 26 -67q27 -39 57 -39q36 0 102 85q80 103 95 114q-37 -78 -37 -213q0 -57 43 -143l31 -22q-31 83 -31 151q0 92 22.5 150.5t84.5 124.5q-19 48 -66 72q-76 -37 -150 -104l2 20q0 58 -26 94q-28 40 -84 42q0 14 -17 40h92q15 -46 46 -79q37 -40 79 -40z
" />
    <glyph glyph-name="threequarters" unicode="&#xbe;" horiz-adv-x="823" 
d="M359 195q12 -62 55 -107q47 -49 107 -49q51 0 77 46q22 38 22 92q0 104 -70 159q-55 -55 -82 -55q-24 0 -25 31q15 47 27 66q19 30 54 45q50 -87 161 -87q-26 -90 -26 -202q0 -56 25 -152l26 -22q-18 60 -18 164q0 102 84 213l-76 99q-31 -21 -79 -21q-42 0 -77 33
q-31 29 -45 72q-45 -54 -133 -54q-22 0 -39 18t-22 41l2 4q16 7 142 9q113 2 247 0l175 -2l-51 64h-820l51 -64h129q-32 -50 -32 -109q0 -56 24 -98q28 -51 80 -51q42 0 69 27l9 -13l4 -24q0 -32 -18.5 -53.5t-50.5 -21.5q-85 0 -135 106q-37 79 -45 182l-14 17v-55
q0 -105 42 -206q54 -129 142 -129q35 0 64 26t40 61zM269 514q18 -109 147 -116q-14 -34 -14 -56q0 -48 21 -88q26 -50 69 -50q42 0 88 29l7 -27q0 -37 -25 -58.5t-63 -21.5q-62 0 -96 55q-19 31 -45 116q-24 79 -50 107q-63 -54 -97 -60q-26 6 -26 35q0 74 84 135z" />
    <glyph glyph-name="questiondown" unicode="&#xbf;" 
d="M-42 299v-415l-58 76q-31 31 -89 31q-9 0 -27.5 -3t-27.5 -3q-158 0 -158 168q0 70 32 118l9 -20q-11 -29 -11 -76q0 -43 25 -74q27 -34 68 -34q12 0 36 4.5t36 4.5l29 -1q66 -38 94 -93q-17 33 -13 224l2 103q-30 0 -49 -18l-39 -36l-6 -24l17 2q18 0 29 -19.5t11 -39.5
q0 -28 -22.5 -49t-50.5 -21q-70 0 -70 95q0 58 43 110.5t100 52.5q24 0 49 -11z" />
    <glyph glyph-name="Aacute" unicode="&#xc1;" horiz-adv-x="657" 
d="M512 150q52 0 52 61q0 22 -24 42q-12 -25 -44 -25q-47 0 -47 64q0 20 14 35.5t34 15.5q18 0 32 -11q17 19 17 46q0 43 -52 43q-43 0 -75 -51q-28 -46 -28 -91q0 -46 38 -87.5t83 -41.5zM276 494q-28 -14 -49.5 -56t-21.5 -75q0 -38 33 -38q44 0 83 56zM400 178
q0 -113 -114 -113q-110 0 -168 159q-43 118 -43 253l17 -23q0 -90 53 -184q61 -108 144 -108q28 0 53.5 19t25.5 46q0 40 -18 61q-36 -37 -76 -37q-47 0 -81 42q-33 39 -33 87q0 99 53 156h-162l-51 64h658l52 -64h-389l-25 -12l74 -175q33 77 42 92q33 56 75 56
q96 0 96 -132q0 -57 -26 -87q38 -34 38 -123q0 -34 -17 -59q-19 -28 -52 -28q-45 0 -78 36q-18 19 -48 74z" />
    <glyph glyph-name="Acircumflex" unicode="&#xc2;" horiz-adv-x="638" 
d="M168 282q49 -32 84 -77q21 -27 61 -95q-21 40 -21 161q0 52 4 119q-41 -38 -128 -108zM541 264q0 29 -20 48q-13 -18 -59 -22q-43 15 -43 61q0 82 49 82q20 0 40 -18q21 14 21 50q0 16 -15.5 28t-32.5 12q-35 0 -82 -52t-47 -87q0 -52 44 -102.5t95 -50.5q50 0 50 51z
M350 -1l-20 25q-18 65 -72 118t-119 69l-67 106q92 52 200 156q-24 68 -85 68q-57 0 -56 -48q39 -7 39 -40q0 -22 -11 -40q-13 -21 -34 -21q-73 0 -73 109q0 47 36 76q33 28 81 28q36 0 79 -36t48 -71v169l54 -67v-159q12 54 49 98q43 52 92 52q35 0 58 -49q19 -40 19 -80
q0 -82 -28 -117q48 -33 48 -95q0 -42 -17 -79q-22 -48 -58 -48q-60 0 -102 48q-20 22 -61 100v-272z" />
    <glyph glyph-name="Atilde" unicode="&#xc3;" horiz-adv-x="540" 
d="M229 329l-1 -26q-1 -20 14 -57q0 -46 -72 -46q-43 0 -60 40v10q78 16 119 79zM294 426q0 31 33 66t64 35q18 0 35 -11q12 -20 12 -52q0 -21 -17 -37q-9 24 -36 24q-24 -10 -28 -15q-8 -9 -8 -31q0 -59 42 -59q21 0 35 22q21 -14 21 -40q0 -42 -40 -42q-43 0 -78 48
t-35 92zM67 292q0 -57 31 -108q35 -59 89 -59q93 0 93 78q0 9 -1 18q43 -11 43 -49q0 -54 -48 -83q-41 -25 -98 -25q-38 0 -72 15l53 -119q79 -7 178 -63q95 -53 149 -117q-20 62 -93 129q-63 58 -132 93q46 0 81.5 40t35.5 87q0 44 -33 81q-19 17 -56.5 51.5t-37.5 59.5
q0 17 29 81q8 -77 36 -122q32 -50 98 -81q78 17 78 102q0 61 -47 94q30 30 30 85q0 116 -90 116q-40 0 -91 -94q-9 43 -45 71t-80 28q-46 0 -80.5 -37t-34.5 -84q0 -102 56 -102q46 0 52 59l-4 16l-16 15q3 76 63 76q47 0 47 -51q0 -52 -47 -96q-23 -21 -89 -61
q-47 -28 -47 -44z" />
    <glyph glyph-name="Adieresis" unicode="&#xc4;" horiz-adv-x="579" 
d="M323 432q0 31 33 66t63 35q19 0 35 -13q13 -21 13 -50q0 -21 -17 -37q-9 24 -36 24q-24 -10 -28 -15q-8 -9 -8 -31q0 -43 33 -58q18 2 25 4q12 5 19 17q21 -14 21 -40q0 -43 -40 -43q-41 0 -78 51q-35 47 -35 90zM412 602q-40 0 -91 -94q-9 36 -45.5 65.5t-73.5 29.5
q-55 0 -90 -45q-33 -41 -33 -97q0 -85 48 -85q47 0 47 52q0 26 -22 41q0 73 74 73q13 0 31 -9t18 -20q0 -14 -63.5 -106t-63.5 -140q0 -44 41 -77q38 -32 83 -32q32 0 55 29q17 -24 17 -51t-23.5 -46t-51.5 -19q-78 0 -141 109q-57 98 -57 181l-18 23q4 -135 47 -248
q60 -157 167 -157q53 0 81 47q24 40 24 96q0 105 -71 160q-27 -41 -78 -47l-14 7l-1 11q-2 24 37 83q31 47 59 76q0 -145 137 -207q-20 -57 -20 -149q0 -102 23 -177l34 -29q-22 60 -22 115q0 122 61 207l-41 52q42 29 42 84q0 63 -46 93q30 30 30 85q0 116 -90 116z" />
    <glyph glyph-name="Aring" unicode="&#xc5;" horiz-adv-x="605" 
d="M516 340q0 19 -15 35q-15 -17 -43 -17q-15 0 -24.5 15t-9.5 31q0 61 37 61q17 0 31 -13q12 14 15 37q-11 31 -36 31t-60.5 -40t-35.5 -65q0 -42 31.5 -78t72.5 -36q37 0 37 39zM209 72q71 -32 128 -137l-16 23v193q-74 -36 -112 -79zM507 238v-326l-19 18
q-4 38 -40.5 77.5t-73.5 46.5v-190l-18 11q-49 115 -180 147l-42 72q66 71 182 127q-54 13 -73 13q-12 0 -34.5 -4t-34.5 -4q-52 0 -80 48q-24 40 -24 95q0 50 31 99l8 -15q-15 -28 -15 -68q0 -71 45 -84q92 -6 108 -9q59 -14 83 -61q-12 18 -12 73q0 28 3.5 83.5t3.5 83.5
q0 56 -14 72l-8 1q-32 0 -53 -33q-11 -17 -26 -62l1 -15l21 6l11 -3q23 -17 23 -53q0 -21 -15.5 -35t-36.5 -14q-67 0 -67 88q0 60 32 111q36 59 92 59q68 0 90 -59v-63q42 113 105 113q26 0 43 -40q13 -31 13 -62q0 -55 -20 -83q35 -23 35 -72q0 -64 -44 -89zM375 344
l-1 -212q54 -31 99 -124l-19 38v196q-37 25 -49 44q-5 6 -30 58z" />
    <glyph glyph-name="AE" unicode="&#xc6;" horiz-adv-x="439" 
d="M313 94q0 -71 -81 -71q-59 0 -117 66q-54 62 -63 123l-14 -13q12 -81 73 -159q69 -88 143 -88q45 0 73 39q26 35 26 81q0 60 -43 97q32 52 42.5 88.5t10.5 95.5q0 42 -18 76q-22 42 -60 42q-26 0 -44 -28q-16 -24 -16 -52q0 -50 49 -65l17 3q1 -14 1 -42
q0 -44 -34.5 -82.5t-78.5 -52.5l-14 7q-5 14 -5 36v341h332l-52 64h-92v16q0 55 -38.5 96.5t-93.5 41.5q-17 0 -51.5 -6t-51.5 -6q-77 0 -77 62q0 29 16 50l-13 16q-31 -48 -31 -93q0 -112 126 -112q19 0 56 4t56 4q61 0 61 -37q0 -20 -13 -36h-294l49 -64h58v-324
q0 -55 60 -117l36 -3q17 -1 45 14t40 30l7 2q18 -16 18 -44z" />
    <glyph glyph-name="Ccedilla" unicode="&#xc7;" horiz-adv-x="722" 
d="M533 181q-57 0 -96 60q-19 29 -57 122q-31 75 -55 93q-14 -24 -32 -53q-22 -32 -44 -41l-13 13v161h215l-1 -80q-2 -198 58 -198q34 0 68 23q28 24 56 47q8 -9 8 -28q0 -48 -29 -82q-31 -37 -78 -37zM600 441q-7 -31 -35.5 -60t-60.5 -41v196h276l-53 64h-727l49 -64h134
q0 -16 -2 -46.5t-2 -46.5q0 -53 13 -97q18 -62 58 -62q22 0 53 24t41 45q11 -19 11 -58q0 -32 -29 -55t-62 -23q-71 0 -121 98q-39 77 -48 162l-20 26q15 -155 40 -232q48 -148 149 -148q50 0 85.5 40t35.5 90q10 -57 62 -112q55 -59 110 -59q63 0 93 71q22 52 22 126
q0 85 -72 162z" />
    <glyph glyph-name="Egrave" unicode="&#xc8;" horiz-adv-x="546" 
d="M255 415v185h187q13 16 13 36q0 37 -61 37q-19 0 -56 -4t-56 -4q-126 0 -126 112q0 45 31 93l13 -16q-16 -21 -16 -50q0 -62 77 -62q17 0 51.5 6t51.5 6q60 0 98 -46.5t34 -107.5h51l52 -64h-291v-368q0 -22 5 -36l14 -7q44 14 78.5 52.5t34.5 82.5q0 28 -1 42l-17 -3
q-49 15 -49 65q0 28 16 52q18 28 44 28q38 0 60 -43q18 -34 18 -76q0 -169 -116 -242q-29 -18 -46 -18q4 0 -34 3q-61 63 -61 160v38l1 43q-53 98 -98 128h-11q15 -18 15 -31q0 -68 -51 -68q-32 0 -53 29q-19 26 -19 59q0 39 19 65q22 30 59 30q35 0 80 -35.5t59 -70.5z" />
    <glyph glyph-name="Eacute" unicode="&#xc9;" horiz-adv-x="471" 
d="M228 412q0 19 -10 36q-11 21 -28 21q-49 0 -49 -50q0 -26 23 -41q-54 8 -54 67q0 35 24 64t58 29q40 0 68.5 -35.5t28.5 -76.5q0 -66 -45.5 -112.5t-111.5 -47.5q-7 -35 -7 -49q0 -71 38 -121q42 -56 110 -56q81 0 122 70q34 57 34 144q0 153 -98 282h190l-51 64h-167
q-43 70 -51 86q-28 55 -28 93q0 25 27 42q24 15 51 15q15 0 26 -6l-56 69q-51 -5 -70 -27.5t-19 -74.5q0 -62 43 -150q56 -115 65 -145q-6 35 -49 66t-79 31q-113 0 -113 -129q0 -52 29 -90q31 -42 82 -42q26 0 46.5 24t20.5 50zM323 497q60 -116 60 -256q0 -57 -23 -101
q-28 -54 -80 -54q-39 0 -60 29q-19 26 -19 67q139 35 139 204q0 68 -17 111z" />
    <glyph glyph-name="Ecircumflex" unicode="&#xca;" horiz-adv-x="676" 
d="M287 425q19 0 37 5l82 -30q44 -16 85 -16q53 0 98 33q49 37 47 88q-3 17 -21 50q-14 15 -38 21q-37 9 -69 -5q-36 -16 -36 -54q0 -31 27 -37q9 -2 28 4t19 14q-1 2 -5 2t-15 -2t-17 -1q-14 2 -14 16q0 26 29 34q18 5 30 5q28 0 46 -33q0 -38 -25 -60t-64 -22
q-32 0 -118 27q40 35 38 63q-1 16 -20 51q-14 14 -38 20q-36 9 -71 -5q-17 -7 -30 -32q-5 -10 -5 -21q0 -31 28 -37q9 -2 28 3.5t19 13.5q-1 2 -5 2t-15 -2t-17 -1q-8 1 -12 8q-3 4 -3 9q0 25 30 33q18 5 29 5q29 0 47 -32q0 -63 -89 -63q-26 4 -81 19q-61 25 -114 25
q-57 0 -91 -23l-47 -32v-57q18 30 55.5 50.5t72.5 20.5q27 0 90 -27q49 -30 95 -30z" />
    <glyph glyph-name="Edieresis" unicode="&#xcb;" horiz-adv-x="530" 
d="M582 536l-52 64h-530l52 -64h530zM361 118q84 0 84 80q0 22 -16 48q-12 -21 -57 -30q-50 11 -50 78q0 23 16.5 46t38.5 23q17 0 34 -14q24 18 24 52q0 49 -51 49q-84 0 -115 -76q25 -19 25 -51q0 -30 -18 -49t-48 -19q-50 0 -50 105q0 68 60 110q53 37 124 37
q53 0 85 -54q28 -46 28 -102q0 -42 -24 -79q30 -40 30 -136q0 -53 -36 -88t-89 -35q-109 0 -207 188q-86 165 -86 289l20 -22q13 -105 93 -220q91 -130 185 -130z" />
    <glyph glyph-name="Igrave" unicode="&#xcc;" horiz-adv-x="517" 
d="M146 338q-25 0 -37 8l87 -127q79 0 154 -65q72 -61 96 -139l11 -14v535h111l-51 64h-65q-23 31 -30 94l-18 23v-576l13 -40q-40 113 -134 174q86 35 86 159q0 54 -30 103q-8 13 -59 90l-52 -97q-44 69 -98 69q-41 0 -61 -45q-15 -34 -15 -81q0 -32 22 -61q23 -32 54 -32
q53 0 53 56l-3 22l-7 12q-15 4 -42 20q-2 14 -2 19q0 11 8 23l17 5q55 0 79 -81q11 -37 19 -44l55 120q23 -23 23 -65q0 -64 -63 -99q-52 -30 -121 -30z" />
    <glyph glyph-name="Iacute" unicode="&#xcd;" 
d="M-274 244q0 -31 21.5 -57.5t51.5 -26.5q59 0 59 71q0 32 -21 59q20 3 24 3q55 0 55 -95q0 -50 -27.5 -81.5t-76.5 -31.5q-106 0 -187 134q-63 104 -84 231l-17 20q0 -153 77 -308q92 -185 229 -185q75 0 110 69q28 54 28 136q0 76 -39 124q-42 52 -117 52q-39 0 -64 -39
q-22 -34 -22 -75z" />
    <glyph glyph-name="Icircumflex" unicode="&#xce;" horiz-adv-x="488" 
d="M0 600l49 -64h500l-49 64h-500zM69 231q0 70 32 118l9 -20q-11 -29 -11 -76q0 -44 25 -75t68 -31q15 0 45 3.5t45 3.5q21 0 59 -37q34 -33 46 -57q-11 18 -14 103q-2 51 0 161l2 120q-41 -5 -70.5 -37t-36.5 -74l25 5q19 0 31 -19.5t12 -39.5q0 -27 -22 -48.5t-49 -21.5
q-38 0 -58 33q-17 28 -17 68q0 61 39 123q44 70 101 70q62 0 98 -72v-479l-26 33q-21 85 -108 85q-12 0 -37 -3.5t-37 -3.5q-151 0 -151 168z" />
    <glyph glyph-name="Idieresis" unicode="&#xcf;" horiz-adv-x="576" 
d="M528 316q-25 64 -73 89q-60 -31 -106.5 -89.5t-64.5 -124.5q-3 30 -3 37q0 122 89 207q-18 54 -85 67q-109 -52 -161 -173l18 39v168h490l-52 64h-580l51 -64h37v-266q0 -66 65 -99q20 122 110 216q-20 -74 -20 -134q0 -72 16 -113q21 -53 75 -84q0 120 97 222
q-18 -59 -18 -118q0 -123 43 -215l25 -17q-20 73 -20 165q0 76 11 117q14 52 56 106z" />
    <glyph glyph-name="Eth" unicode="&#xd0;" horiz-adv-x="403" 
d="M70 323v-66h280v66h-280z" />
    <glyph glyph-name="Ntilde" unicode="&#xd1;" horiz-adv-x="598" 
d="M70 323v-66h480v66h-480z" />
    <glyph glyph-name="Ograve" unicode="&#xd2;" horiz-adv-x="419" 
d="M311 643l9 17l11 8l14 4q45 -10 45 -54q0 -25 -14 -43t-38 -18q-78 0 -78 95q0 101 86 133l20 -25q-29 -7 -49.5 -33t-20.5 -56l2 -15l6 -9zM131 643l9 17l11 8l14 4q45 -10 45 -54q0 -25 -14 -43t-38 -18q-78 0 -78 95q0 101 86 133l20 -25q-29 -7 -49.5 -33t-20.5 -56
l2 -15l6 -9z" />
    <glyph glyph-name="Oacute" unicode="&#xd3;" horiz-adv-x="419" 
d="M143 707q-5 -25 -34 -29l-18 5l-16 12l-8 16l-2 21q0 23 14.5 42t36.5 19q77 0 77 -94q0 -101 -84 -134l-21 25q71 33 71 92l-2 13zM323 707q-5 -25 -34 -29l-18 5l-16 12l-8 16l-2 21q0 23 14.5 42t36.5 19q77 0 77 -94q0 -101 -84 -134l-21 25q71 33 71 92l-2 13z" />
    <glyph glyph-name="Ocircumflex" unicode="&#xd4;" horiz-adv-x="243" 
d="M121 633l9 17l11 8l14 4q45 -10 45 -54q0 -25 -14 -43t-38 -18q-78 0 -78 95q0 101 86 133l20 -25q-29 -7 -49.5 -33t-20.5 -56l2 -15l6 -9z" />
    <glyph glyph-name="Otilde" unicode="&#xd5;" horiz-adv-x="243" 
d="M143 697q-5 -25 -34 -29l-18 5l-16 12l-8 16l-2 21q0 23 14.5 42t36.5 19q77 0 77 -94q0 -101 -84 -134l-21 25q71 33 71 92l-2 13z" />
    <glyph glyph-name="Odieresis" unicode="&#xd6;" 
d="M-221 106q-12 0 -36 -3t-36 -3q-68 0 -107 37.5t-39 105.5q0 20 6 35l-14 17q-15 -41 -15 -83q0 -63 29 -121q36 -71 98 -71q31 0 94 6.5t94 6.5q34 0 49.5 -13t23.5 -46l17 17q-52 115 -164 115z" />
    <glyph glyph-name="multiply" unicode="&#xd7;" horiz-adv-x="569" 
d="M341 245q-3 -32 -3 -73q0 -112 21 -147q-25 88 -114 153q38 30 96 67zM398 371q-3 35 -36.5 73t-67.5 38q-41 0 -87.5 -33.5t-67.5 -72.5q5 15 5 160h482l-50 64h-576l51 -64h40v-227q0 -36 53 -61q14 52 74.5 103t112.5 51l13 -6v-55q-110 -56 -202 -137l72 -90
q48 -2 96 -47t62 -94l23 -19v317q22 24 57 30q-6 -51 -6 -135q0 -67 13 -133l45 -58l-12 121v84q0 75 12 135q-15 46 -50 76z" />
    <glyph glyph-name="Oslash" unicode="&#xd8;" horiz-adv-x="452" 
d="M343 245q-3 -34 -3 -75q0 -110 20 -145q-22 87 -113 153q51 40 96 67zM397 383q0 28 -36.5 63.5t-64.5 35.5q-43 0 -89 -33t-67 -73q7 16 6 160h372l-50 64h-467l51 -64h40v-227q0 -17 18 -36t36 -25q14 52 74.5 103t112.5 51l12 -6v-55q-112 -59 -201 -137l72 -90
q46 -3 96 -50q47 -44 62 -91l22 -19z" />
    <glyph glyph-name="Ugrave" unicode="&#xd9;" horiz-adv-x="539" 
d="M160 536v-188l-16 -30q77 106 180 174q54 -20 65 -69q-30 -64 -39 -88q-18 -47 -23 -92q77 -33 106 -104l2 397h-275zM282 247q2 61 14 117q-34 -24 -75 -76.5t-56 -91.5q-18 5 -38 21.5t-20 32.5v286h-56l-51 64h547l51 -64h-109v-540l-17 21q-25 101 -115 148l2 -16
q0 -28 -17 -48.5t-45 -20.5q-29 0 -48.5 22.5t-19.5 51.5q0 83 53 93z" />
    <glyph glyph-name="Uacute" unicode="&#xda;" horiz-adv-x="455" 
d="M301 498q7 -34 7 -50q0 -201 -130 -262l-3 -21q0 -32 19 -54t51 -22q55 0 83 74q21 55 21 120q0 98 -48 215zM241 393q15 33 14 79l-1 64h-205l-49 64h238q-108 151 -108 200q0 47 11 68q16 29 59 29l50 -62h-9q-60 0 -60 -40q0 -37 41 -100q11 -17 63 -95h165l49 -64
h-186q48 -87 65 -140q22 -68 22 -152q0 -69 -37 -129q-43 -69 -108 -69q-63 0 -112 57q-48 54 -48 118q0 31 16 58q60 14 101 65q-4 55 -46 85l-28 -1q10 -14 10 -28q0 -62 -50 -62q-31 0 -49 26q-16 23 -16 56t23 59t56 26q80 0 129 -112z" />
    <glyph glyph-name="Ucircumflex" unicode="&#xdb;" horiz-adv-x="529" 
d="M230 431q0 18 2 52.5t2 52.5h-183l-51 64h535l51 -64h-298v-178l10 -16q28 4 62 45q28 33 43 67q30 -33 54 -79q28 -53 28 -90q0 -95 -44 -156q-49 -69 -141 -69q-91 0 -142 40q-45 36 -81 124q-33 80 -33 101q58 -102 88 -137q62 -72 136 -72h53q56 0 92 63
q31 55 31 115q0 26 -14 46h-7q-5 -25 -43 -58.5t-63 -33.5q-63 0 -82 103q-41 50 -74 69h-11q10 -14 10 -28q0 -62 -50 -62q-31 0 -49 26q-16 23 -16 56t23 59t56 26q50 0 106 -66z" />
    <glyph glyph-name="Udieresis" unicode="&#xdc;" horiz-adv-x="543" 
d="M375 536h220l-52 64h-542l50 -64h271l-1 -138l7 -31q-16 51 -59 89q-46 41 -97 41q-90 0 -90 -99q0 -34 16 -60q19 -31 51 -31q69 0 69 78q0 26 -17 43l19 4q38 -9 91 -81q-95 -58 -189 -133l72 -90q111 -24 158 -141l23 -19v323q22 24 57 30q-6 -54 -6 -141
q0 -67 13 -133l45 -58q-16 77 -16 121q0 145 16 215q-15 46 -50 76q-16 -1 -60 -17zM321 259q-3 -32 -3 -73q0 -112 21 -147q-25 88 -114 153q38 30 96 67z" />
    <glyph glyph-name="Yacute" unicode="&#xdd;" horiz-adv-x="550" 
d="M344 448q31 0 57.5 -22t32.5 -53l1 163h-187q49 -24 49 -102q0 -13 -2 -27q4 14 19.5 27.5t29.5 13.5zM252 339q20 40 20 58q0 53 -38 66l-73 12q-42 11 -49 63h-74l-48 62h568l52 -64h-122v-536l-53 66q0 22 1 65.5t1 65.5q0 164 -53 164l-17 -7q-32 -32 -64 -90
l-55 -99q-13 -11 -25 -11q-31 0 -57 47q-22 40 -24 75l19 25q-2 -36 26 -50q13 4 36 38q-40 90 -76 110h-11q10 -14 10 -28q0 -62 -50 -62q-31 0 -49 26q-16 23 -16 56t23 59t56 26q37 0 86 -51q47 -47 56 -86z" />
    <glyph glyph-name="Thorn" unicode="&#xde;" horiz-adv-x="647" 
d="M337 401v135h-58l-49 64h294q13 16 13 36q0 37 -61 37q-19 0 -56 -4t-56 -4q-126 0 -126 112q0 45 31 93l13 -16q-16 -21 -16 -50q0 -62 77 -62q17 0 51.5 6t51.5 6q60 0 98 -46.5t34 -107.5h82l52 -64h-322v-368q0 -22 5 -36l14 -7q44 14 78.5 52.5t34.5 82.5
q0 28 -1 42l-17 -3q-49 15 -49 65q0 28 16 52q18 28 44 28q38 0 60 -43q18 -34 18 -76q0 -169 -116 -242q-29 -18 -46 -18q4 0 -34 3q-62 64 -62 165q0 16 1 47.5t1 47.5q-10 27 -23 39l-139 -174l-74 22q50 57 50 88q0 18 -6 33l-21 8q-16 -9 -50 -22q-36 7 -36 56
q0 56 39 100t94 44q46 0 96 -41q42 -34 70 -80zM112 385h8q58 0 58 -61q0 -8 -1 -16l90 114q-25 38 -79 38q-66 0 -76 -75z" />
    <glyph glyph-name="germandbls" unicode="&#xdf;" horiz-adv-x="565" 
d="M240 413q-6 68 -69 68q21 59 70 59q44 0 79 -29zM397 60q-187 0 -338 396l-19 16q29 -170 117 -322q113 -195 252 -195q64 0 96 53q27 44 27 112q0 72 -50 125v291h138l-50 64h-93q-25 41 -30 94l-19 23v-217q0 -4 13 -84q-69 195 -206 195q-59 0 -101.5 -39t-42.5 -98
q0 -50 34 -50q11 0 32 5.5t32 5.5q19 -14 19 -28q0 -26 -19 -45l-36 -36l78 -47l147 179q17 -13 33.5 -44t16.5 -52v-95q-22 4 -27 4q-34 0 -57 -19.5t-23 -52.5q0 -28 20 -50t48 -22q25 0 49 14.5t30 37.5q26 -8 26 -34q0 -85 -97 -85z" />
    <glyph glyph-name="agrave" unicode="&#xe0;" horiz-adv-x="475" 
d="M186 413l80 98q-35 29 -78 29q-44 0 -72 -59q64 0 70 -68zM205 139l89 96q-23 29 -77 29q-45 0 -69 -53q58 -7 58 -58q0 -6 -1 -14zM223 336q54 -7 102 -60q43 -47 61 -105q-9 32 -9 121q0 120 -53 166zM99 326q54 51 54 79q0 31 -40 31q-24 -12 -41 -12q-35 0 -35 50
q0 59 42.5 98t101.5 39q69 0 130 -65q54 -57 76 -130l-12 84v217l18 -23q5 -53 30 -94h62l51 -64h-108v-588l-32 40q-6 74 -12 101q-10 45 -38 95l-141 -165l-78 34q15 21 31 42q16 25 16 48l-2 12q-7 11 -19 11q-9 0 -26 -8t-27 -7h-6q-28 18 -28 57q0 55 63 100z" />
    <glyph glyph-name="aacute" unicode="&#xe1;" horiz-adv-x="611" 
d="M404 448q49 0 90 -75l1 163h-187q49 -24 49 -102q0 -13 -2 -27q4 14 19.5 27.5t29.5 13.5zM329 365q4 14 4 26q0 42 -30 69q-19 17 -65.5 38.5t-65.5 39.5h-134l-48 62h628l52 -64h-122v-536l-53 66q0 22 1 65.5t1 65.5q0 164 -53 164l-17 -7q-32 -32 -64 -90l-55 -99
q-13 -11 -25 -11q-31 0 -55.5 30t-25.5 62l19 25q-1 -14 36 -30q21 6 55 80q-21 27 -41 45l-134 -144l-45 29q35 35 35 58q0 16 -6 29l-18 7q-15 -7 -45 -19q-32 6 -32 49q0 53 41 87q38 32 92 32q48 0 99 -43q44 -37 71 -86zM91 382h7q52 0 52 -55q0 -6 -1 -13l81 101
q-16 24 -54 24q-40 0 -57 -9q-23 -12 -28 -48z" />
    <glyph glyph-name="acircumflex" unicode="&#xe2;" horiz-adv-x="602" 
d="M654 536q-31 0 -93.5 3t-93.5 3q-124 0 -155 -24q25 -62 78 -62q63 0 91 36l84 -108q-92 -77 -92 -254q0 -86 18 -145l-25 26q-22 72 -28 109q-5 33 -5 113q0 92 36 154q-8 -2 -17 -2q-77 0 -188 104v-162q22 5 35 25q20 31 24 34q66 -49 66 -139q0 -70 -22 -116
q-29 -61 -91 -61q-111 0 -191 130q-72 118 -66 232l1 18q21 -54 81 -193q57 -126 163 -126q32 0 63 40q30 37 30 70q0 14 -7 39l-13 -2q-27 -32 -58 -32q-27 0 -52 36l-45 65q-31 34 -73 29l-34 57q54 58 150 104l-177 -1l-52 64h608zM225 365v114q-61 -31 -90 -62z" />
    <glyph glyph-name="atilde" unicode="&#xe3;" horiz-adv-x="553" 
d="M227 467q-74 -38 -110 -76q60 -35 110 -71v147zM-10 600h566l52 -64h-330v-199q72 93 166 155q54 -20 65 -69q-42 -89 -52 -127q-14 -51 -14 -138q0 -83 14 -158l-25 16q-31 90 -31 196q0 82 15 152q-35 -26 -76 -78t-55 -90q-22 6 -40 23q-21 20 -18 41q-51 55 -143 79
l-42 72q65 70 179 125h-180z" />
    <glyph glyph-name="adieresis" unicode="&#xe4;" horiz-adv-x="513" 
d="M566 536h-231v-190q31 13 63 23q35 -30 50 -76q-16 -70 -16 -215q0 -45 16 -121l-46 58q-12 67 -12 133q0 81 6 141q-33 -5 -57 -30v-323l-22 19q-19 51 -62 92q-48 46 -97 49l-72 90q24 21 48 40q-23 9 -46 11l-56 97q105 111 249 172v30h-231l-50 64h515zM281 409
q-107 -54 -149 -102l59 -40q44 30 90 53v89zM287 58l-1 179q-45 -27 -96 -67q48 -36 58 -46q16 -16 39 -66z" />
    <glyph glyph-name="aring" unicode="&#xe5;" horiz-adv-x="494" 
d="M0 600l49 -64h500l-49 64h-500zM206 492q-71 0 -71 -91q0 -47 26 -80q28 -37 74 -37q44 0 83 23.5t57 62.5v-233l13 -33q-22 64 -83 84q-36 12 -121 12q-43 0 -67 33q-21 29 -21 74q0 43 10 72l-11 14q-27 -55 -27 -110q0 -168 133 -168q16 0 47.5 3t47.5 3q52 0 80 -43
l52 -80v435q-24 24 -77 65q0 -41 -34 -77q-30 -32 -73 -47q20 17 20 50q0 68 -58 68z" />
    <glyph glyph-name="ae" unicode="&#xe6;" horiz-adv-x="154" 
d="M49 398q7 -20 7 -25q0 -40 -33 -40q-20 0 -33.5 13.5t-13.5 33.5q0 68 49 68q40 0 65 -41q23 -36 23 -78q0 -118 -71 -118q-36 0 -75 32q-34 28 -53 64v55q9 -26 43.5 -55t60.5 -29q65 0 65 61q0 38 -34 59zM-45 600l50 -64h200l-52 64h-198z" />
    <glyph glyph-name="ccedilla" unicode="&#xe7;" horiz-adv-x="705" 
d="M156 536q10 -17 13 -47q10 -6 52 -40q34 -27 57 -27q45 0 45 52q0 43 -43 62h-124zM320 329q-55 6 -86 37q-7 7 -56 76l1 -16q2 -32 -15 -55t-48 -23q-59 0 -59 74q0 84 75 84q-5 32 -44 32q-7 0 -19.5 -1t-19.5 -1l-49 64h717l51 -62h-425q33 -66 33 -91q0 -41 -10 -70
l49 -94l-82 -95q53 -33 72 -51q16 -16 53 -70l-1 11l1 408h82q61 0 96 -54q30 -46 30 -111q0 -39 -19 -69q-22 -35 -58 -35q-46 0 -46 56q0 50 39 50q30 0 39 -20l7 20q0 54 -34 67q-15 6 -82 6v-463l-38 34q-20 65 -73 107.5t-120 42.5l-60 92l118 122z" />
    <glyph glyph-name="egrave" unicode="&#xe8;" 
d="M-258 232v-192l8 -39q0 39 -41.5 83.5t-80.5 44.5q-33 0 -56 -26t-23 -59t16 -56q18 -26 49 -26q50 0 50 62q0 14 -10 28h11q37 -21 74 -92q35 -65 41 -113l18 -20l-1 405h-55z" />
    <glyph glyph-name="eacute" unicode="&#xe9;" horiz-adv-x="595" 
d="M375 251v-179q-56 67 -118 103q36 28 57 42q33 22 61 34zM0 599l52 -63h323q-2 -26 -2 -51q0 -67 15 -104q-45 108 -90 108q-39 0 -46 -59q-9 21 -42.5 40.5t-57.5 19.5q-42 0 -65 -36q-19 -30 -19 -75q0 -61 29 -101q33 -45 92 -45q25 0 41 25q14 22 14 48q0 46 -47 46
q-19 0 -32 -16t-13 -36q0 -24 20 -37q-44 30 -44 80q0 30 20 50.5t50 20.5q26 0 56 -29q37 -36 50 -42l-2 14q0 50 28 50q12 0 29 -28t17 -42l-1 -6q-122 -32 -203 -124l56 -90q61 -8 97 -36q22 -17 53 -67q37 -60 50 -75v317h17q32 0 55.5 -25t23.5 -57q0 -4 -3 -39
q0 35 -45 35q-26 -15 -26 -49q0 -44 47 -44q50 0 50 117q0 58 -58 116q-20 10 -61 21v205h226l-52 64z" />
    <glyph glyph-name="ecircumflex" unicode="&#xea;" horiz-adv-x="512" 
d="M135 282q-67 29 -67 119q0 42 21.5 70t62.5 28q23 0 57 -17t43 -36q7 52 46 52q51 0 77 -56v94h-323l-52 63h512l52 -63h-136v-583l-53 59q0 242 -124 242q-93 0 -93 -54q17 22 55 22q97 0 97 -100q0 -38 -43 -71q-38 -23 -75 -46l-41 61q4 4 65 29q41 17 41 47
q0 25 -23 29q-20 -3 -59.5 -32.5t-46.5 -29.5q-45 0 -45 84q0 61 52 89zM375 364q0 13 -16.5 37t-28.5 24q-28 0 -28 -43q0 -7 2 -13q-13 5 -50 37q-30 26 -56 26q-29 0 -49.5 -17.5t-20.5 -45.5q0 -43 41 -69q-17 12 -17 31q0 18 13.5 32t31.5 14q19 0 33 -11.5t14 -29.5
q0 -16 -7 -30h18q95 0 120 -106v164z" />
    <glyph glyph-name="edieresis" unicode="&#xeb;" horiz-adv-x="588" 
d="M287 433v103h-248l-49 64h484q13 16 13 36q0 37 -61 37q-19 0 -56 -4t-56 -4q-126 0 -126 112q0 45 31 93l13 -16q-16 -21 -16 -50q0 -62 77 -62q17 0 51.5 6t51.5 6q60 0 98 -46.5t34 -107.5h72l52 -64h-312v-368q0 -22 5 -36l14 -7q44 14 78.5 52.5t34.5 82.5
q0 29 -1 42l-17 -3q-49 15 -49 65q0 28 16 52q18 28 44 28q38 0 60 -43q18 -34 18 -76q0 -169 -116 -242q-29 -18 -46 -18q6 0 -34 3q-63 65 -63 174q0 20 1.5 59t1.5 59q-6 12 -11 25q-9 18 -16 18q-29 0 -29 -47q0 -20 7 -37l-16 10q-7 28 -28.5 47.5t-49.5 19.5
q-27 0 -45 -32q-15 -26 -15 -56q0 -55 43 -75q-19 16 -19 38q0 37 33 55l16 2l12 -1q30 -15 30 -54q0 -30 -16 -52t-45 -22q-49 0 -77 50q-23 41 -23 94q0 45 20 83q24 46 65 46q23 0 43.5 -16t26.5 -38q0 18 13 36t30 18q19 0 51 -39z" />
    <glyph glyph-name="igrave" unicode="&#xec;" horiz-adv-x="637" 
d="M322 471q2 44 2 65h-283l-51 64h645l51 -64h-308v-178l10 -16q28 4 62 45q28 33 43 67q32 -35 64 -69q28 -39 28 -90q0 -108 -73 -178.5t-181 -70.5q-72 0 -130 48q-61 52 -61 122q0 8 4 21l49 7q29 -135 159 -135q61 0 121.5 62t60.5 123q0 26 -14 46h-7
q-5 -25 -43 -58.5t-63 -33.5q-43 0 -67 54q-18 41 -20 91q-15 33 -42 33q-20 0 -32.5 -18.5t-12.5 -39.5q0 -9 3 -16h-26q-20 77 -68 77q-27 0 -47 -15q-23 -17 -23 -43q0 -55 43 -75q-19 16 -19 38q0 38 33 55l16 2l12 -1q30 -15 30 -54q0 -30 -16 -52t-45 -22
q-50 0 -76 37q-23 33 -23 85q0 45 29.5 78t74.5 33q23 0 43.5 -16t26.5 -38q0 18 22 36t41 18q26 0 58 -24z" />
    <glyph glyph-name="iacute" unicode="&#xed;" horiz-adv-x="472" 
d="M195 150l89 84q-23 26 -77 26q-45 0 -69 -47q58 -6 58 -50q0 -6 -1 -13zM112 293q-54 33 -54 111q0 39 38 65q34 24 75 24q51 0 71 -44q7 43 56 43q51 0 67 -69v113h-323l-52 63l493 1l52 -64h-117v-553l-42 35q-5 77 -7 89q-7 43 -33 83l-141 -145l-78 30q15 18 31 36
q16 22 16 43l-2 10q-7 10 -19 10q-9 0 -26 -7t-27 -6h-6q-28 16 -28 50q0 45 56 82zM150 313q-8 10 -8 22q0 18 14 32t32 14q45 0 45 -44q0 -7 -1 -15q109 -11 133 -88l1 133q0 13 -17 37.5t-29 24.5q-14 0 -30.5 -15t-16.5 -29l-16 -4q-23 54 -69 54q-28 0 -49 -17.5
t-21 -44.5q0 -37 30 -61z" />
    <glyph glyph-name="icircumflex" unicode="&#xee;" horiz-adv-x="668" 
d="M40 535l-50 65h684l51 -65h-387v-96q14 -19 40 -60l-82 -85q44 -28 88.5 -88t59.5 -112l-23 86v312h82q54 0 87 -58q29 -49 29 -107q0 -39 -14 -67q-18 -37 -53 -37q-46 0 -46 56q0 21 10 40.5t29 19.5q26 0 39 -30l7 20q0 54 -34 67q-15 6 -82 6v-403l-28 34
q-22 70 -76 126q-61 64 -127 64l-60 92l98 92q4 8 3 11q-13 41 -29 41q-23 0 -23 -36q0 -19 5 -32l-23 8q-16 64 -74 64t-58 -54q0 -35 46 -56q-15 13 -15 32q0 27 27 42l6 1q40 3 40 -43q0 -24 -13 -42t-36 -18q-37 0 -63 23t-26 60q0 43 27 69.5t70 26.5q47 0 56 -33
q0 33 35 33q34 0 54 -41q1 -6 1 56q0 10 -1 16h-251z" />
    <glyph glyph-name="idieresis" unicode="&#xef;" horiz-adv-x="602" 
d="M434 9q57 0 85 54q22 42 22 105q0 50 -27 85q45 34 45 91q0 65 -24 111l-63 93q-2 3 -13 33q-8 20 -19 29l-21 -93q-7 35 -45 59q-34 23 -72 23q-43 -41 -49 -71q-12 38 -57 58q-39 17 -83 15l-18 -1l56 -69q13 3 23 3q34 0 50 -32q-33 -8 -52.5 -38.5t-19.5 -66.5
q0 -23 12 -42q14 -22 36 -22q27 0 50.5 26.5t23.5 54.5q0 6 -1 12l-3 -17q0 -26 16 -50q18 -27 43 -27q26 0 42 18.5t16 45.5q0 61 -61 103q5 14 22 36q35 0 59 -52q18 -39 22 -83l18 -21l25 123q16 -13 29 -42.5t13 -51.5q0 -30 -19 -67q-19 17 -44 17q-22 0 -37.5 -18.5
t-15.5 -41.5q0 -73 59 -73q15 0 31 10q14 -22 14 -40q0 -36 -25 -56t-62 -20q-124 0 -222 136q-76 105 -114 250l-22 25q24 -180 112 -331q111 -190 265 -190z" />
    <glyph glyph-name="eth" unicode="&#xf0;" horiz-adv-x="643" 
d="M407 119q57 27 90.5 79.5t33.5 115.5q-55 19 -93 62q-41 46 -48 101v-336l5 -16zM336 534l1 66h318l50 -66h-315q21 -52 62 -85q45 -37 98 -37q54 -36 54 -72q0 -99 -51 -178q-54 -84 -146 -112q-20 14 -42 40q-26 30 -28 48q-7 62 -5 160l4 165q-27 69 -61 69l-15 -2
q-28 -18 -35 -43q35 -10 57 -44t22 -72q0 -29 -13 -51q-15 -26 -42 -26q-26 0 -48 24q-19 20 -27 48q-27 -63 -74 -63q-51 0 -51 80q0 41 26 76t65 42q-16 44 -71 44q-11 0 -23 -2l-46 57q11 0 33.5 1t33.5 1q31 0 61 -17t38 -45q4 14 26 36.5t35 22.5q72 0 109 -65z" />
    <glyph glyph-name="ntilde" unicode="&#xf1;" horiz-adv-x="721" 
d="M388 282l12 -3q27 5 47.5 36t20.5 60l-2 18q-69 25 -81 101v-201zM330 545v55h400l51 -64h-397q6 -51 54 -63q16 -4 88 -4q58 0 96 -52q36 -48 36 -107q0 -79 -25 -123q-29 -51 -101 -71q67 -22 129.5 -84t83.5 -129q-62 78 -155 124t-192 46l-55 133q43 -25 107 -25
q63 0 110.5 45.5t47.5 108.5q0 35 -13 48.5t-48 17.5q-5 -67 -35 -112q-36 -55 -97 -55q-87 0 -87 162q0 14 1 41t1 41q-22 54 -55 54l-15 -2q-28 -18 -35 -43q35 -10 57 -44t22 -72q0 -29 -13 -51q-15 -26 -42 -26q-26 0 -48 24q-19 20 -27 48q-27 -63 -74 -63
q-51 0 -51 80q0 41 26 76t65 42q-16 44 -71 44q-11 0 -23 -2l-46 57q11 0 33.5 1t33.5 1q31 0 61 -17t38 -45q4 14 26 36.5t35 22.5q64 0 103 -54z" />
    <glyph glyph-name="ograve" unicode="&#xf2;" horiz-adv-x="657" 
d="M268 384l-72 -90q45 -29 88 -89q40 -55 60 -111q-27 59 -27 162q0 37 4 73zM160 536q28 -8 86 -73q48 -54 75 -93v166h-161zM563 264q0 30 -20 48q-13 -18 -60 -22q-43 16 -43 61q0 82 50 82q20 0 40 -18q21 13 21 50q0 14 -16.5 27t-31.5 13q-35 0 -82 -52t-47 -87
q0 -54 43 -103.5t96 -49.5q50 0 50 51zM375 -1l-28 34q-22 72 -75 124q-57 57 -128 66l-55 81l113 140q-17 13 -60 21q-46 9 -61 17q-28 16 -28 54l-3 1l-50 63h375v-159q47 150 140 150q33 0 56 -50q19 -42 19 -79q0 -82 -28 -117q47 -36 47 -96q0 -50 -21 -85
q-25 -42 -71 -42q-70 0 -142 149v-272z" />
    <glyph glyph-name="oacute" unicode="&#xf3;" horiz-adv-x="436" 
d="M194 506q32 37 80 37q37 0 37 -49q0 -22 -12.5 -46.5t-30.5 -34.5zM252 389q-27 -29 -70 -29q-8 0 -21 7q-17 19 -17 45q0 48 35 67zM300 569q-36 31 -63 31h-237l49 -64h78q-37 -46 -37 -124q0 -40 30 -66q27 -24 68 -29q-65 -49 -65 -131q0 -51 33 -87.5t84 -36.5
q59 0 104 38q49 40 49 97q0 82 -53 82q-51 0 -51 -62q0 -30 26 -47q-12 -23 -43 -38q-27 -13 -56 -13q-36 0 -48 17l-4 21q0 30 50 79q76 74 92 95q50 65 50 131q0 39 -28 74h161l-49 64h-87l1 19q3 53 -37.5 94t-94.5 41q-17 0 -51.5 -6t-51.5 -6q-77 0 -77 62q0 25 15 50
l-13 16q-29 -41 -29 -96q0 -109 125 -109q18 0 54.5 4t54.5 4q66 0 66 -58q0 -26 -15 -46z" />
    <glyph glyph-name="ocircumflex" unicode="&#xf4;" horiz-adv-x="432" 
d="M291 498q7 -34 7 -50q0 -201 -130 -262l-3 -21q0 -32 19 -54t51 -22q55 0 83 74q21 55 21 120q0 98 -48 215zM-10 600h238q-108 151 -108 200q0 47 11 68q16 29 59 29l50 -62h-10q-59 0 -59 -40q0 -37 41 -100q11 -17 63 -95h165l49 -64h-186q48 -87 65 -140
q22 -68 22 -152q0 -69 -37 -129q-43 -69 -108 -69q-63 0 -112 57q-48 54 -48 118q0 31 16 58q30 7 57 25l-21 -2q-35 -3 -60.5 31t-25.5 70q0 86 47 133h-59zM146 501l68 -84q23 32 27 41q6 13 12 53l-14 25h-54q-25 -12 -39 -35zM198 395l-68 84q-39 -32 -39 -93l7 -25
q11 -12 29 -12q48 0 71 46z" />
    <glyph glyph-name="otilde" unicode="&#xf5;" horiz-adv-x="604" 
d="M0 600h604l51 -64l-374 1q8 -19 8 -58q0 -55 -30 -103q26 -35 59 -97l-82 -85q43 -24 87 -47q48 -31 61 -73q-23 92 -23 106v312h82q54 0 87 -58q29 -49 29 -107q0 -39 -14 -67q-18 -37 -53 -37q-46 0 -46 56q0 21 10 40.5t29 19.5q26 0 39 -30l7 20q0 54 -34 67
q-15 6 -82 6v-423l-28 34q-35 110 -203 110l-60 92l118 122l-7 9q-42 -44 -98 -44q-36 0 -61 32t-25 69q0 86 47 133h-49zM146 501l68 -84q39 53 39 83q0 44 -37 44q-43 0 -70 -43zM198 395l-68 84q-39 -32 -39 -93l7 -25q11 -12 29 -12q48 0 71 46z" />
    <glyph glyph-name="odieresis" unicode="&#xf6;" horiz-adv-x="596" 
d="M221 536q10 -34 38.5 -59t62.5 -25q19 0 33 14.5t14 33.5q0 17 -30 36h-118zM303 600q46 0 83.5 -37.5t37.5 -83.5q0 -49 -40 -76q56 -38 56 -102q0 -75 -88 -119q90 -17 146 -82l-9 68v551l20 -25q7 -61 29 -94h64l52 -64h-112v-556q-52 77 -121 113q-60 31 -160 43
l-63 94q21 -3 46 -3q68 0 102 16q49 23 49 83l-19 19q-19 -32 -62.5 -54.5t-81.5 -22.5q-33 0 -56.5 20t-23.5 52q0 61 49 61q22 0 30 -5.5t17 -26.5l-3 -18l8 -4q26 9 55 41q-75 14 -93 105q-9 -37 -33 -70q-29 -40 -61 -40q-31 0 -58 18q-30 20 -32 49l11 23
q15 -35 43 -35l10 1l10 8q3 8 28 43q19 26 19 46h-101l-51 64h303z" />
    <glyph glyph-name="divide" unicode="&#xf7;" horiz-adv-x="699" 
d="M437 68q38 -3 34 -3q17 0 46 18q116 73 116 242q0 42 -18 76q-22 43 -60 43q-26 0 -44 -28q-16 -24 -16 -52q0 -50 49 -65l17 3q1 -14 1 -42q0 -44 -34.5 -82.5t-78.5 -52.5q-19 9 -19 34v377h332l-52 64h-92l1 15q4 54 -37.5 96.5t-95.5 42.5q-17 0 -51.5 -6t-51.5 -6
q-77 0 -77 62q0 29 16 50l-13 16q-31 -48 -31 -93q0 -112 126 -112q19 0 56 4t56 4q61 0 61 -37q0 -20 -13 -36h-564l48 -62h4q7 -52 49 -63l73 -12q38 -13 38 -66q0 -24 -26 -66q-28 -45 -49 -50q-28 14 -26 50l-19 -25q2 -35 24 -75q26 -47 57 -47q12 0 25 11q25 42 49 83
q31 48 60 76l17 7q54 0 54 -98q0 -12 -1 -34.5t-1 -34.5q0 -89 61 -126zM235 407q3 26 3 29q0 75 -50 100h186q-2 -31 -2 -69t2 -84q-8 30 -20 45.5t-39 23.5q-68 -7 -80 -45z" />
    <glyph glyph-name="oslash" unicode="&#xf8;" 
d="M-107 379v-287l9 -45q-7 29 -24 56q-21 34 -45 34q-17 0 -30 -15.5t-13 -33.5q-16 49 -70 49q-39 0 -64 -41q-22 -35 -22 -77q0 -49 25 -87q28 -44 75 -44q26 0 43.5 21t17.5 48q0 57 -48 57q-19 0 -31 -15t-12 -35q0 -27 21 -39q-44 10 -44 63q0 29 16.5 54.5t43.5 25.5
q26 0 46.5 -18.5t26.5 -44.5l20 -8q-6 14 -6 32q0 45 29 45q31 -22 36 -68v-80l53 -65v518h-53z" />
    <glyph glyph-name="ugrave" unicode="&#xf9;" horiz-adv-x="696" 
d="M211 536q12 -39 36 -68q30 -36 65 -36q19 0 33 14.5t14 33.5q0 36 -30 56h-118zM704 600l51 -64h-368q27 -41 27 -77q0 -55 -38 -90q15 -23 42 -70l-82 -85q70 -43 87 -57q48 -39 61 -83q-23 91 -23 106v312h82q61 0 97 -56q31 -48 31 -113q0 -40 -19 -68
q-22 -32 -60 -32q-46 0 -46 56q0 21 10 40.5t29 19.5q26 0 39 -30l7 20q0 54 -34 67q-15 6 -82 6v-423l-28 34q-20 61 -80 97q-55 33 -123 33l-60 92l105 109q-100 6 -124 129q-18 -72 -25 -90q-24 -60 -58 -60q-29 0 -59 29t-32 58l11 23q15 -35 43 -35l9 1l11 8
q35 84 37 129h-101l-51 64h714z" />
    <glyph glyph-name="uacute" unicode="&#xfa;" horiz-adv-x="361" 
d="M278 386q0 68 -71.5 141t-139.5 73q-62 0 -104.5 -48.5t-42.5 -111.5q0 -57 39 -62q18 10 56 24l22 -8q8 -17 8 -37q0 -43 -55 -98l81 -24l155 193q43 -39 43 -198q0 -27 -2.5 -82t-2.5 -82l54 -67v537h111l-51 64h-66q-25 41 -30 94l-18 23v-248q2 -14 14 -83zM2 448
q0 37 23.5 60t60.5 23q62 0 88 -42l-101 -126l2 15q0 33 -20 53t-53 17z" />
    <glyph glyph-name="ucircumflex" unicode="&#xfb;" horiz-adv-x="462" 
d="M0 600l49 -64h465l-51 64h-463zM407 281q0 -118 -115 -148q117 -94 192 -198l10 -41q-114 165 -333 214l-57 127q60 -23 84 -23q81 0 122 23q53 30 53 105q0 35 -23 68l-77 -98l-7 8q-21 105 -76 105q-33 0 -33 -33l2 -14q52 1 52 -47q0 -64 -52 -64q-39 0 -61 34
q-20 30 -20 71q0 48 24 81q27 37 73 37q53 0 87 -86l4 21l62 79q89 -119 89 -221z" />
    <glyph glyph-name="udieresis" unicode="&#xfc;" horiz-adv-x="559" 
d="M374 363q2 -16 2 -34q0 -60 -36 -109q-38 -52 -95 -62q124 -95 198 -191l13 -51q-61 70 -153 134q-105 73 -180 84l-66 152q52 -39 118 -39q65 0 107 23q54 29 54 89q0 67 -57 67q-15 0 -35 -7v-9q0 -39 -26 -67t-65 -28q-19 0 -38 14.5t-19 32.5q0 51 21 87q25 43 72 47
q-12 17 -49 40h-89l-51 64h563l51 -64h-403q3 -7 17 -40l21 1q74 4 108 -68q33 32 75 41q14 -10 32 -36t18 -40q0 -24 -4 -73t-4 -73q0 19 8 -207l-48 58l-7 153q0 10 3 73l4 72q-26 -7 -60 -34z" />
    <glyph glyph-name="yacute" unicode="&#xfd;" horiz-adv-x="602" 
d="M245 158q132 -101 198 -191l13 -51q-65 74 -152 133q-97 66 -181 85l-66 152q52 -38 145 -38q54 0 92 30q42 32 42 84q0 64 -57 64q-18 0 -35 -7l1 -11q0 -37 -28 -65.5t-65 -28.5q-25 0 -40.5 19t-15.5 45q0 93 93 118q-9 15 -49 40h-89l-51 64h606l52 -64h-447l17 -40
l28 1q55 2 88 -42q30 -39 30 -95l62 69q18 9 36 9q78 0 78 -128q0 -107 -85 -132l-14 1q-38 21 -38 56q0 58 37 58q17 0 30 -17t13 -35q23 18 23 37q0 29 -13 51q-15 27 -42 27q-53 0 -84 -47q0 -57 -37.5 -98t-94.5 -53z" />
    <glyph glyph-name="thorn" unicode="&#xfe;" horiz-adv-x="621" 
d="M504 406q-5 -58 -5 -113v-94q0 -60 10 -112l59 -70q-20 89 -20 223q0 65 23 160q-15 47 -57 86q-8 -1 -85 -18l-1 68h252l-52 64h-628l51 -64q47 4 81 -55q-66 -18 -66 -95q0 -25 19.5 -44t44.5 -19q21 0 37 19.5t16 41.5q0 15 -7 26q20 3 25 3q25 0 42 -27
q15 -23 15 -50q0 -14 -6 -28q-42 0 -60 -17t-18 -59q0 -27 10 -41q7 -10 33 -28l22 -5q22 4 39.5 21t17.5 38q47 -38 85.5 -124t46.5 -93v373q47 10 76 33zM375 372q-2 -42 -2 -85q0 -103 12 -134q-11 55 -82 133q0 66 -29 106q33 -24 72 -24q15 0 29 4zM305 443
q-36 0 -73 14q-19 7 -70 27q-3 14 -18 52h231v-76q-43 -17 -70 -17z" />
    <glyph glyph-name="ydieresis" unicode="&#xff;" horiz-adv-x="634" 
d="M350 458q13 0 25 6v72h-83l-7 -28q7 -50 65 -50zM51 536l-51 64h640l52 -64h-264v-67q156 0 156 -167q0 -98 -60 -98q-23 0 -39.5 22.5t-16.5 46.5q0 22 14 40.5t35 18.5q14 0 25.5 -12.5t12.5 -27.5l7 24q0 64 -83 64h-26q-34 -1 -25 -1v-379l-17 23q-14 108 -115 194
q0 -21 -18.5 -40t-39.5 -19q-26 0 -44.5 22.5t-18.5 49.5q0 43 17 60.5t60 17.5q7 14 7 29q0 28 -15 50q-17 26 -43 26q-5 0 -25 -3q7 -18 7 -27q0 -24 -18 -42.5t-42 -18.5q-27 0 -43 26q-14 22 -14 51q0 67 66 82q-23 59 -81 55zM162 484q68 -16 102 -74q24 -41 39 -124
q43 -47 82 -133q-12 33 -12 130q0 43 2 99q-59 9 -96.5 52t-37.5 102h-97q7 -17 18 -52z" />
    <glyph glyph-name="glyph218" horiz-adv-x="309" 
 />
    <glyph glyph-name="glyph219" horiz-adv-x="309" 
 />
    <glyph glyph-name="glyph121" horiz-adv-x="1150" 
 />
    <glyph glyph-name="glyph218" horiz-adv-x="309" 
 />
    <glyph glyph-name="glyph219" horiz-adv-x="309" 
 />
    </font>
</defs>
</svg>
