<?xml version="1.0" standalone="no"?>
<!DOCTYPE svg PUBLIC "-//W3C//DTD SVG 1.1//EN" "http://www.w3.org/Graphics/SVG/1.1/DTD/svg11.dtd" >
<svg xmlns="http://www.w3.org/2000/svg" xmlns:xlink="http://www.w3.org/1999/xlink" version="1.1">
<metadata>
Created by FontForge 20170924 at Mon Jan  1 20:21:24 2001
 By www-data
Copyright Mustafa Jabbar, Ananda Computers, 8/6 Segun Bagicha, Dhaka-1000, Bangladesh.
</metadata>
<defs>
<font id="SutonnyMJ-Bold" horiz-adv-x="1" >
  <font-face 
    font-family="SutonnyMJ"
    font-weight="700"
    font-style="italic"
    font-stretch="normal"
    units-per-em="1000"
    panose-1="0 0 0 0 0 0 0 0 0 0"
    ascent="800"
    descent="-200"
    x-height="103"
    cap-height="546"
    bbox="-666.667 -334 957 876"
    underline-thickness="20"
    underline-position="-143"
    slope="-11"
    unicode-range="U+0020-2212"
  />
<missing-glyph horiz-adv-x="500" 
d="M63 0v725h375v-725h-375zM125 63h250v600h-250v-600z" />
    <glyph glyph-name=".notdef" horiz-adv-x="500" 
d="M63 0v725h375v-725h-375zM125 63h250v600h-250v-600z" />
    <glyph glyph-name="NULL" horiz-adv-x="0" 
 />
    <glyph glyph-name="nonmarkingreturn" horiz-adv-x="269" 
 />
    <glyph glyph-name="space" unicode=" " horiz-adv-x="269" 
 />
    <glyph glyph-name="space" unicode="&#xa0;" horiz-adv-x="269" 
 />
    <glyph glyph-name="exclam" unicode="!" horiz-adv-x="295" 
d="M242 403l-21 -214l-37 37l-30 174q-14 82 -14 122q0 77 53 79q30 1 46 -35q12 -26 12 -61q0 -12 -9 -102zM210 69q-27 0 -44.5 19.5t-17.5 43.5q0 25 19 40t43 15q56 0 55 -59t-55 -59z" />
    <glyph glyph-name="quotedbl" unicode="&#x22;" horiz-adv-x="347" 
d="M266 368h-33l-30 175q-3 20 12 34.5t35 14.5t34.5 -14.5t11.5 -34.5zM113 368h-33l-31 175q-3 20 12 34.5t35 14.5q19 0 34.5 -15t12.5 -34z" />
    <glyph glyph-name="numbersign" unicode="#" horiz-adv-x="500" 
d="M399 395l-17 -114h98v-75h-110l-31 -216h-79l31 216h-113l-33 -216h-79l33 216h-105v75h117l18 114h-108v75h119l31 202h79l-31 -202h112l30 202h79l-30 -202h95v-75h-106zM208 395l-18 -114h113l17 114h-112z" />
    <glyph glyph-name="dollar" unicode="$" horiz-adv-x="384" 
d="M281 96q-49 -34 -84 -34q-12 0 -44 3q-27 2 -55.5 28t-29.5 53q-1 21 -1 147h-38l-68 68h110q1 15 0 85q0 24 -25 24q-11 0 -26 -12q-9 28 -24 69q38 15 63 15q13 0 24 -4q59 -20 58 -80q1 -32 1 -96h21l66 -69h-85v-126q0 -32 38 -32q54 0 86 60q17 30 20 41
q-38 0 -59 20.5t-17 57.5q7 68 75 68q50 0 76 -36q22 -31 22 -82q0 -97 -104 -168z" />
    <glyph glyph-name="percent" unicode="%" horiz-adv-x="751" 
d="M527 -1q-126 3 -126 138q0 72 45 135q50 70 119 70q114 0 114 -134q0 -80 -35 -139q-43 -72 -117 -70zM210 -27h-78l327 597q-40 -12 -82 -12q-30 0 -54 7q2 -16 2 -33q0 -70 -32 -129q-41 -74 -115 -74q-58 0 -94 39.5t-36 98.5q0 77 50 138q54 65 130 65q24 0 39 -10
q48 -48 132 -48t139 76h65zM584 282q-36 0 -64 -75q-23 -63 -23 -107q0 -49 30 -49q39 0 72 63q28 55 28 98q0 25 -9 45q-12 25 -34 25zM234 610q-36 0 -64 -75q-23 -62 -23 -107q0 -48 30 -48q40 0 72 63q27 54 27 98q0 69 -42 69z" />
    <glyph glyph-name="ampersand" unicode="&#x26;" 
d="M-34 -169l-189 119l51 57l164 -137z" />
    <glyph glyph-name="quotesingle" unicode="'" horiz-adv-x="153" 
d="M93 368h-33l-30 175q-3 20 11.5 34.5t34.5 14.5t35 -14.5t12 -34.5z" />
    <glyph glyph-name="parenleft" unicode="(" horiz-adv-x="333" 
d="M294 -191q-255 171 -255 451q0 270 260 430l18 -33q-173 -120 -173 -388q0 -150 31 -237q39 -109 143 -191z" />
    <glyph glyph-name="parenright" unicode=")" horiz-adv-x="333" 
d="M224 -10q-66 -108 -190 -181l-18 33q173 120 173 387q0 150 -30 238q-39 117 -144 191l23 31q92 -44 162 -150q94 -142 94 -307q0 -130 -70 -242z" />
    <glyph glyph-name="asterisk" unicode="*" horiz-adv-x="500" 
d="M379 490q-33 -4 -88 -24q53 -25 115 -36q35 -7 35 -45q0 -21 -13.5 -35t-34.5 -14q-43 0 -56 39q-5 14 -70 63q10 -45 21 -135q0 -19 -12.5 -33.5t-31.5 -14.5q-41 0 -49 39q-7 32 11 53q11 13 22 91q-52 -34 -93 -83q-12 -14 -34 -14q-47 0 -47 50q0 24 22 39.5t46 11.5
q15 -2 88 29q-54 29 -118 41q-35 7 -35 45q0 20 14 34.5t34 14.5q42 0 56 -39q4 -10 70 -64q-2 26 -14.5 76t-12.5 66q0 21 17 36t39 11q41 -9 41 -55q0 -22 -12 -36t-20 -102q52 28 98 81q14 12 34 12q47 0 47 -48q0 -46 -69 -54z" />
    <glyph glyph-name="plus" unicode="+" horiz-adv-x="564" 
d="M324 219v-222h-84v222h-220v84h220v219h84v-219h220v-84h-220z" />
    <glyph glyph-name="comma" unicode="," horiz-adv-x="250" 
d="M149 -14l-4 -1q-5 -1 -29 -3q-63 6 -63 59q0 70 70 70q45 0 68 -33q21 -29 21 -75q0 -44 -38.5 -91.5t-89.5 -67.5l-17 38q37 18 60 45q27 32 22 56v3z" />
    <glyph glyph-name="hyphen" unicode="-" horiz-adv-x="333" 
d="M33 184v83h266v-83h-266z" />
    <glyph glyph-name="period" unicode="." horiz-adv-x="250" 
d="M125 -24q-32 0 -49.5 19t-17.5 46q0 28 18 49t49 21q56 0 67 -53q7 -33 -13.5 -57.5t-53.5 -24.5z" />
    <glyph glyph-name="slash" unicode="/" horiz-adv-x="278" 
d="M57 -118h-83l259 810h83z" />
    <glyph glyph-name="zero" unicode="0" horiz-adv-x="501" 
d="M233 45q-87 5 -140.5 66t-54.5 149q-1 82 64 137q62 53 145 53q87 0 146.5 -59t59.5 -146q0 -83 -68 -143.5t-152 -56.5zM282 378q-37 0 -77.5 -24t-58.5 -56q-31 -55 -31 -93q0 -36 25 -60t60 -24q52 0 108 45q64 52 64 122q0 41 -25 65.5t-65 24.5z" />
    <glyph glyph-name="one" unicode="1" horiz-adv-x="438" 
d="M262 16q-52 -30 -95 -30q-36 0 -68 24q-36 25 -36 60q0 33 27 62q24 26 57 37q13 5 34 5q65 0 100 -31q22 27 22 56q0 25 -30 60q-60 71 -154 157q-53 48 -53 91q0 42 40 65q17 9 32 9q29 0 45.5 -21t16.5 -49q0 -5 -5 -30q29 -27 60 -62q61 -68 84 -104q38 -63 38 -127
q0 -105 -115 -172z" />
    <glyph glyph-name="two" unicode="2" horiz-adv-x="479" 
d="M313 41q-73 45 -113 63q-54 24 -125 38l-51 176l20 6q8 -28 81 -58q62 -25 107 -31q29 -4 66 14t37 43q0 7 -4 15q-29 57 -83 84q-26 12 -97 47q-53 26 -53 65q0 18 12 44q25 24 53 24q7 -1 37 -9q21 -13 25 -47q80 -40 119 -78q55 -54 55 -124q0 -12 -1 -23
q-5 -45 -23 -69q-11 -15 -54 -50q-13 -10 -46 -20q31 -22 104 -76q31 -23 98 -87l19 -100q-91 95 -183 153z" />
    <glyph glyph-name="three" unicode="3" horiz-adv-x="508" 
d="M410 74q-57 -49 -129 -47q-116 3 -207 159q-73 126 -90 272l65 -28q22 -144 110 -235q52 -54 112 -54q56 0 102 39.5t43 94.5q-5 86 -36 115q-16 14 -48 26q8 -20 8 -38q0 -22 -11 -43q-29 -53 -86 -53q-45 0 -74 38q-27 35 -27 81q0 32 17 58q22 33 48 47q22 11 66 15
q47 4 106 -36q106 -72 106 -218q0 -127 -75 -193z" />
    <glyph glyph-name="four" unicode="4" horiz-adv-x="497" 
d="M224 23q-86 -7 -144 45q-53 47 -53 101q0 15 6 29q26 74 89 97q-78 35 -78 122q0 68 59 116q53 44 123 50q63 6 115 -31q56 -40 56 -102q0 -33 -22 -69t-51 -54q87 -38 91 -146q3 -69 -62 -114q-54 -38 -129 -44zM283 503q-29 18 -60 18q-30 0 -58 -18q-31 -20 -31 -49
q0 -34 34 -62q29 -25 65 -32q42 24 54 34q30 25 30 53q0 36 -34 56zM209 263q-53 -37 -70 -61q-9 -13 -10 -38q-2 -40 44 -60q19 -9 48 -9q80 0 103 67q-3 31 -43 66.5t-72 34.5z" />
    <glyph glyph-name="five" unicode="5" horiz-adv-x="501" 
d="M365 292q-74 -60 -74 -126q0 -98 140 -135q-67 -32 -124 -32q-118 0 -198 61q-88 67 -88 181q0 144 145 257q65 50 117 59l124 -28q-40 -11 -54 -20q-23 -16 -24 -47q0 -15 9 -27q3 -4 24.5 -5.5t25.5 -3.5q49 -31 64 -38q23 -11 74 -24q-106 -27 -161 -72zM273 399
q-10 12 -20 50q-88 -47 -125 -135q-23 -55 -23 -98q0 -50 42 -94q37 -39 88 -56q4 -1 14 -3q-40 49 -40 112q0 57 29 109t78 80q-18 5 -43 35z" />
    <glyph glyph-name="six" unicode="6" horiz-adv-x="483" 
d="M284 3q-73 0 -139 62q-54 51 -89 128q-27 59 -54 158q-8 32 -15 102l50 -22q15 -82 37.5 -133t72.5 -120q47 -65 135 -65q46 0 80.5 23.5t44.5 66.5q12 48 -8 88q-37 -56 -95 -67q-18 -3 -34 -3q-42 0 -75.5 29t-39.5 71l-18 126q-20 3 -33.5 20t-13.5 38q0 28 20 43.5
t48 13.5q70 -5 70 -88v-158q0 -21 21 -19q20 2 36 16q55 50 78 121q110 -81 110 -203q0 -91 -48 -156q-53 -72 -141 -72z" />
    <glyph glyph-name="seven" unicode="7" horiz-adv-x="504" 
d="M404 -10q-56 12 -56 88v169l-138 -1q-49 5 -89 48.5t-40 91.5q0 59 54.5 113.5t113.5 55.5q67 1 127 -65.5t52 -128.5v-255q58 -4 49 -72q-7 -51 -73 -44zM330 416q-24 55 -49 66q-25 5 -65.5 -29t-45.5 -60q-4 -19 -4 -29q0 -18 11 -22q5 -2 27 -2h146v3q0 26 -20 73z
" />
    <glyph glyph-name="eight" unicode="8" horiz-adv-x="517" 
d="M307 329q10 17 25 38q20 17 68 18q45 2 53 12q5 11 13 31l22 -9q6 -21 6 -39q0 -89 -99 -91h-39q-18 0 -18 -4q0 -2 2 -6q16 -32 16 -63q0 -73 -63 -131q-53 -47 -131 -71q-4 -1 -9 -1q-27 0 -62 40q-29 35 -39 63v322q-26 1 -42 18t-15 43q2 62 54 62q27 0 49 -18
t25 -44l5 -53v-94q42 37 87 37q41 0 92 -60zM203 300q-40 0 -76 -24v-163q2 -9 5 -20q48 2 105 86q24 35 22 71q2 7 2 12q0 18 -19.5 28t-38.5 10z" />
    <glyph glyph-name="nine" unicode="9" horiz-adv-x="482" 
d="M117 487q3 -9 72 -29q99 -30 119 -38q61 -27 99 -75q46 -59 50 -130q4 -72 -81 -140q-77 -61 -146 -56q6 25 11 50q10 51 10 78q0 10 -2 17q-3 18 -19.5 41t-32.5 32q-5 3 -34 8q-16 3 -32.5 -29t-16.5 -54q0 -16 9 -25q6 1 11 1q53 0 53 -57q0 -64 -54 -64q-67 0 -91 77
q-6 21 -6 42q0 66 41 119q44 57 108 57q58 0 101.5 -49.5t43.5 -107.5q0 -8 -1 -16l26 18q24 22 24 53q0 54 -57 85l-143 56q-176 69 -163 174q16 61 61 61q46 0 56 -45q7 -36 -16 -54z" />
    <glyph glyph-name="colon" unicode=":" horiz-adv-x="278" 
d="M138 291q-32 0 -49.5 19t-17.5 46q0 28 18 49t49 21q56 0 67 -53q7 -33 -13.5 -57.5t-53.5 -24.5zM138 73q-31 0 -49 18.5t-18 49.5q0 28 19 47.5t48 19.5q55 0 66 -53q7 -33 -12.5 -57.5t-53.5 -24.5z" />
    <glyph glyph-name="semicolon" unicode=";" horiz-adv-x="278" 
d="M125 290q-29 0 -49 21t-20 50q0 27 21 45.5t48 18.5t46.5 -19t19.5 -46q0 -25 -20.5 -47.5t-45.5 -22.5zM150 80l-5 -1q-5 -1 -29 -3q-63 6 -63 59q0 70 70 70q43 0 67 -34q22 -30 22 -74t-38.5 -91.5t-89.5 -67.5l-17 38q33 15 60 47q26 29 25 52q0 4 -2 5z" />
    <glyph glyph-name="less" unicode="&#x3c;" horiz-adv-x="564" 
d="M17 228v66l529 244v-84l-414 -193l414 -193v-84z" />
    <glyph glyph-name="equal" unicode="=" horiz-adv-x="564" 
d="M20 316v84h524v-84h-524zM20 122v84h524v-84h-524z" />
    <glyph glyph-name="greater" unicode="&#x3e;" horiz-adv-x="564" 
d="M17 -16v84l414 193l-414 193v84l529 -244v-66z" />
    <glyph glyph-name="question" unicode="?" horiz-adv-x="373" 
d="M217 175l13 -33l-22 -31q-47 26 -55 34q-20 19 -25 59q-5 38 34 70q14 12 59.5 48.5t43.5 80.5q-1 18 -13 33t-27 15q-9 0 -18 -7q19 -17 19 -39q0 -52 -65 -60q-31 -4 -54.5 22t-23.5 57q0 29 23 62q34 49 117 49q45 0 76 -20q66 -41 66 -117t-73 -137.5t-75 -85.5z
M190 -26q-83 -5 -83 59q0 31 26 52q23 20 54 20q65 0 65 -71q0 -56 -62 -60z" />
    <glyph glyph-name="at" unicode="@" horiz-adv-x="819" 
d="M402 192q8 -4 30 -16l42 -32q60 -46 102 -46q19 0 29 9q36 34 59 91t23 108q0 99 -85 183q-69 69 -164 69q-29 0 -60 -7q-202 -41 -238 -268q-10 -62 -10 -87q0 -63 28 -133q30 -75 75 -111q57 -45 155 -45q70 0 115 14q35 11 103 48l25 -51q-52 -28 -114 -49
q-24 -9 -92 -17h-66q-113 0 -211 93q-92 88 -116 203q-8 41 -8 77q0 33 7 63q38 145 108 204q140 120 278 120q178 0 270 -136q54 -79 54 -171q0 -102 -79 -213q-36 -51 -95 -51q-15 0 -30 3q-25 6 -123 66q-44 39 -83 49q-42 6 -89 14l-64 156q84 -58 155 -58q65 0 103 36
q26 25 26 49q0 20 -18.5 33.5t-48.5 13.5q-5 0 -9 -1q-4 -32 -41 -65q-23 -21 -57 -21q-58 0 -58 50q0 34 25 65q35 43 95 43q61 0 103 -17q70 -28 70 -106q0 -110 -121 -159z" />
    <glyph glyph-name="A" unicode="A" horiz-adv-x="594" 
d="M533 498v-533q-36 50 -39 55q-10 17 -25 58q-17 46 -26.5 62t-41.5 53q-50 -70 -125 -70q-34 0 -72.5 18t-64.5 44q-21 21 -57 74q-21 31 -51 116q-29 82 -36 123l52 -21l36 -100q18 -48 42 -71q45 -44 67 -57q38 -23 85 -20q75 4 75 75q0 34 -18 64q-11 20 -24 19
q1 0 -15 -20q-23 -28 -45 -30q-39 -3 -67.5 20.5t-28.5 57.5q0 22 14 43q9 15 30 24t39 8q83 -6 138 -65.5t50 -142.5l38 -66v282h-468l-70 70h681l71 -70h-144z" />
    <glyph glyph-name="B" unicode="B" horiz-adv-x="469" 
d="M-17 783q7 9 27 9q18 0 39 -10q-36 -22 -36 -39t18.5 -31t35.5 -14q15 -3 61 3q54 6 67 6q96 0 131 -23q68 -43 67 -116h75l70 -70h-307q2 -5 6 -11q10 -9 45 -18q45 -12 76.5 -59.5t31.5 -96.5q0 -52 -37.5 -92t-102.5 -61q18 -4 67 -39q42 -29 62 -48l78 -73l26 -110
q-172 196 -407 252l-77 161q90 -57 167 -57q92 0 136 63q9 13 3 43q-10 47 -57 47q-6 0 -12 -2q-4 -36 -44 -71q-25 -22 -60 -22q-28 0 -48.5 16.5t-20.5 43.5q0 24 15 48.5t35 34.5q9 8 38 19q9 2 22 9q-6 9 -23 23h-154l-70 70h353q14 1 31 4q6 2 16 9.5t10 12.5
q0 12 -31 18q-26 6 -42 4q-36 0 -98 -5q-25 -2 -36 -2q-78 0 -126 43q-38 34 -38 79q0 30 18 52v0z" />
    <glyph glyph-name="C" unicode="C" horiz-adv-x="513" 
d="M353 609h-1q-5 -1 -45 -1q-12 0 -36.5 -3.5t-37.5 -3.5q-16 1 -42 -1q-30 -1 -41 -1q-54 0 -97 29q-48 34 -48 86q0 7 12 31t20 34q3 5 8 5q10 0 19.5 -15.5t7.5 -19.5q-13 -16 -13 -28q-1 -33 53 -33q27 0 80.5 5t80.5 5q121 0 154 -78q12 -27 12 -52h80l70 -70h-423
q2 2 2 -3q0 -19 2 -19q42 -6 75 -36t38 -71q55 65 129 96l97 -64q-62 -59 -80 -92q-46 -85 -46 -166q0 -60 59 -174l-73 37q-26 78 -29 89q-14 50 -14 92q0 56 18 114q-14 -15 -41 -47q-77 -103 -143 -121q-53 0 -84 47q-23 34 -22 66q0 13 14 26l24 18q16 -62 35 -62
q8 0 15 2q21 8 68 59q18 20 18 53q0 14 -4 25q-6 17 -18 20q-17 5 -28 -1q2 -30 -15.5 -51t-47.5 -21q-78 0 -78 75q0 44 46 75q14 9 25 13l-13 21h-105l-70 70h443q20 8 18 26q-1 11 -28 15z" />
    <glyph glyph-name="D" unicode="D" horiz-adv-x="521" 
d="M118 697h3l15 1q12 1 150 8q155 -10 154 -138h81l70 -70h-334v-137l4 -19q6 -12 17 -12q7 0 43 45.5t57 45.5q40 0 72 -64q28 -55 28 -99q0 -126 -83 -178q-53 -32 -127 -26q-70 6 -115 53q-29 29 -71 107q-41 97 -51 189l-10 93l52 -28q3 -56 23 -120q23 -71 55 -111
l36 -45q36 -34 95 -34q33 0 65.5 15.5t48.5 42.5q22 37 22 63q0 21 -13 40q-10 -15 -32 -35q-54 -51 -94 -51q-35 0 -60.5 28t-28.5 64l1 2q4 16 8 16t8 -16l1 -3v3h-20v171h-200l-67 70h411q15 7 43 21q-4 13 -26.5 21t-39.5 6q-35 0 -98 -5q-26 -2 -37 -2q-77 0 -125 43
q-38 34 -38 78q0 24 12 47q11 19 24 19q3 0 42 -17q-30 -22 -30 -37q0 -19 21 -32q18 -12 38 -13z" />
    <glyph glyph-name="E" unicode="E" horiz-adv-x="561" 
d="M26 738l1 1q-11 -16 -11 -23q0 -31 75 -31q29 0 84.5 6.5t83.5 6.5q87 1 140 -24q25 -11 46 -45q18 -30 24 -61h94l69 -70h-312v-128q0 -38 2 -51q49 16 89 78q14 31 29 31q10 0 23 -12q77 -71 77 -158q0 -123 -92 -179q-57 -34 -119 -34q-112 0 -193 108q-62 83 -96 210
q-4 16 -8 82q2 10 5 39l37 -37q8 -36 27 -108q15 -59 64 -125q-40 82 -50 158q-4 27 -12 114l51 -37q7 -143 82 -237q45 -56 105 -56q65 0 111 50q29 32 29 67q0 13 -15 42q-31 -41 -76 -68q-28 -18 -54 -18t-51 18.5t-28 44.5q-8 68 -8 74v132h-254l-70 70h481q6 2 6 12
q0 28 -56 28t-65 -2q-36 -7 -91 -7q-90 0 -139 13q-84 23 -97 87q-5 25 14 75q5 14 13 14q3 0 7 -3l14 -13q21 -24 14 -34z" />
    <glyph glyph-name="F" unicode="F" horiz-adv-x="605" 
d="M519 498v-421l-36 42q-2 22 -22 63t-37 57q-12 10 -35 23v-250l-36 38q-8 24 -17 47t-23 44q-62 91 -196 115l-60 86q55 43 93 67q20 12 132 69q-23 23 -44 27q-13 -19 -53 -40t-66 -24q-8 -1 -21 -1q-73 0 -91 62q-2 9 -2 19q0 24 15.5 43t40.5 22q53 6 59 -48
q56 10 91 71q68 -34 108 -89v162l70 -69v-267q37 -24 60 -52v382l65 -53l3 -55h95l71 -70h-164zM320 394q-64 -33 -119 -74q73 -42 119 -102v176z" />
    <glyph glyph-name="G" unicode="G" horiz-adv-x="580" 
d="M461 16q-7 30 -29 75q-20 23 -62 23q-24 0 -85 -9q-54 -8 -85 -5q-103 9 -144 86q-24 47 -24 105t24 120q6 17 12 22q13 11 24 -4l25 -26q-20 -30 -24 -46q-3 -11 -6 -51q-3 -49 31 -84q14 -14 51 -22q33 -8 56 -5q45 6 76 6q74 0 117 -29q8 -8 16 -15v342q0 1 -5 1
q-36 0 -94 -53q-31 -29 -42 -64q8 1 13 1q25 0 39 -20t14 -45q0 -23 -14.5 -43.5t-36.5 -24.5q-14 -2 -26 -2q-60 0 -83 48q-15 31 -11 58q18 111 114 180q56 40 109 38q30 -1 68 -41q26 -27 26 -47v-511z" />
    <glyph glyph-name="H" unicode="H" horiz-adv-x="635" 
d="M514 382q-6 -2 -18 -8v-403l-42 44q-6 29 -27 75q-18 19 -62 19q-23 0 -69.5 -5.5t-69.5 -5.5q-28 0 -51 5q-142 32 -142 177q0 36 10 76q3 13 29 59l3 6l2 1q5 9 11 9t7 -10l20 -27q-23 -33 -27 -96q-3 -45 30 -77q14 -13 49 -22t56 -6q38 5 71 5q75 0 117 -29l16 -14
v338q0 1 -5 1q-39 0 -110 -78q-13 -15 -22 -38q7 1 12 1q25 0 39.5 -19.5t14.5 -44.5q0 -22 -14.5 -43t-35.5 -25q-17 -3 -30 -3q-72 0 -89 78q-8 39 12 88q37 92 144 143q51 15 65 14q19 -6 58 -33q21 -14 25 -69q38 7 38 37q0 57 -111 92q-135 43 -160 56q-83 45 -77 125
q11 30 28 48q9 11 41 35l41 -39q-25 -17 -41 -26q-21 -17 -18 -31q5 -24 129 -64q139 -44 162 -63q46 -38 58 -95q4 -20 4 -38q0 -76 -71 -120z" />
    <glyph glyph-name="I" unicode="I" horiz-adv-x="540" 
d="M347 48q-57 0 -101 29q-31 21 -76 68q-83 87 -161 367l58 -31q54 -135 102 -218q24 -43 77.5 -80t98.5 -37q35 0 64.5 17t35.5 49q5 29 -18 50q-20 -17 -46 -17q-44 0 -63 35q-9 18 -9 35q0 29 20 51.5t49 22.5q23 0 41 -10q26 16 26 44q0 53 -51 53q-53 0 -110 -42
q-13 -9 -21 -20q28 -23 28 -67q0 -49 -62 -49q-81 0 -80 84q1 81 99 134q57 30 117 30q51 0 88 -25q47 -33 47 -93q0 -29 -10 -65q-10 -40 -25 -60q42 -57 42 -110q0 -69 -47.5 -107t-112.5 -38z" />
    <glyph glyph-name="J" unicode="J" horiz-adv-x="635" 
d="M510 402q29 46 29 73q0 64 -128 92q-204 45 -224 140q-2 13 -2 24q0 63 78 102q33 -29 36 -39q0 -13 -8.5 -15t-22 -14.5t-10.5 -19.5q1 -29 37 -46q7 -2 100 -34q100 -33 145 -74q63 -55 56 -143q-5 -62 -97 -155q31 -55 31 -103q-1 -76 -49 -106q-35 -23 -57 -29
q-25 -8 -66 -7q-81 2 -153 77q-58 60 -95 147q-45 104 -79 235l51 -26q5 -3 22 -53q20 -57 84 -163q8 -14 28 -34q80 -79 162 -79q75 0 88 56q7 27 -7 45l-10 10q-20 -19 -48 -19q-51 0 -63 35q-8 20 -8 37q0 29 20 49t49 20q22 0 41 -8q29 17 29 46q0 49 -49 49
q-16 0 -47 -6q-34 -6 -42 -13q-12 -6 -25 -16t-24 -27q24 -19 25 -50q2 -65 -59 -65q-65 0 -77 58q-3 17 -3 32q0 74 73 119q62 39 143 39q44 0 80 -23q40 -25 49 -66q5 -24 -3 -52z" />
    <glyph glyph-name="K" unicode="K" horiz-adv-x="571" 
d="M487 289q-4 33 -35 64q-41 41 -95 40v-414l-37 37q-16 48 -21 59q-11 22 -37 52q-34 40 -58 56q-56 34 -122 41l-78 96q128 106 286 156v22h-300l-71 70h651l69 -70h-281v-16q62 0 117 -53q51 -50 65 -113q5 -24 5 -44q0 -42 -24 -73q-26 -34 -67 -34q-29 0 -52 21
t-23 50q0 33 33 60q19 6 34 6q24 0 41 -13zM288 386q-60 -24 -100 -48q-1 -1 -49 -35q95 -45 149 -128v211z" />
    <glyph glyph-name="L" unicode="L" horiz-adv-x="486" 
d="M424 498v-520l-31 33q-22 45 -44 89q-28 47 -67 71q-75 46 -151 55l-104 129q47 -12 68 -12q75 0 134 40q35 24 33 47q-2 20 -15 34q-12 -12 -24 -25q-23 -18 -65 -34t-70 -16q-34 0 -58.5 22.5t-24.5 53.5q0 22 14 42q17 24 49 24q48 0 56 -43q8 2 18 6.5t80 73.5
q61 -54 72 -66q40 -44 40 -87q0 -42 -29 -79q-26 -33 -66 -53q72 -40 116 -101v485l50 -31q-5 -38 7 -59q3 -7 18 -9h50h9q0 -4 -8 -9q9 0 8 -11l8 17l68 -67h-141z" />
    <glyph glyph-name="M" unicode="M" horiz-adv-x="485" 
d="M358 446q-2 28 -5 67q-4 53 -4 164l52 -51q-10 -20 4 -51q2 -4 15 -7q33 1 69 0l70 -70h-144v-537l-77 81l4 274q0 32 -24.5 78.5t-51.5 66.5q-30 22 -58 22q-64 0 -94 -49q15 3 34 3q97 0 109 -89q8 -63 -102 -181l-72 81q16 14 64 63q44 46 44 60q0 10 -17 10
q-8 0 -45 -21t-53 -21q-12 0 -22 7q-44 27 -44 74q0 32 22 68.5t50 53.5q35 20 83 20q152 0 193 -116z" />
    <glyph glyph-name="N" unicode="N" horiz-adv-x="471" 
d="M406 498v-524l-43 42q-24 61 -31 73q-18 33 -52 58q-46 34 -92 40q-40 5 -57 4l-76 78q32 35 82 81h-2q-28 0 -64 21t-41 47q-7 20 -7 36q0 21 9 44h-39l-69 70h546l69 -70h-133zM335 498h-157q-32 4 -49 -35q-4 -9 -4 -18q0 -17 13 -29t32 -12q44 -1 75 46l72 -71
q-63 -39 -123 -109q21 -9 54 -24q50 -30 87 -81v333z" />
    <glyph glyph-name="O" unicode="O" horiz-adv-x="457" 
d="M157 450q23 51 77 80q21 11 51 11q101 0 101 -96q0 -48 -40 -74q-34 -23 -84 -23q-30 0 -48 6v-73q0 -25 19 -25q15 0 32 13q33 33 37 38q16 19 28 45q64 -24 95 -82q29 -54 25 -109q-5 -72 -48.5 -113.5t-116.5 -41.5q-71 0 -133 45.5t-87 113.5q-13 18 -40 107
q-10 36 -30 185l48 -37q18 -83 26 -106q5 -11 25 -57q67 -150 181 -150q45 0 75 21q34 23 38 66q2 23 -19 48q-20 -23 -57 -48q-42 -29 -65 -29q-31 0 -63 31.5t-36 62.5v117q-38 31 -104 93q-18 17 -38 52l94 26q3 -5 32 -66q6 -12 25 -31zM315 471q-10 0 -35 -8
q-42 -15 -56 -52q7 -4 40 3q20 4 39 16q24 14 24 31q0 10 -12 10z" />
    <glyph glyph-name="P" unicode="P" horiz-adv-x="408" 
d="M130 498q1 -5 3 -12v-7q2 -1 5 -2q33 -50 112 -74q60 -19 74 -26q50 -24 50 -77q0 -63 -40 -123q-93 -139 -180 -139q-36 0 -66 42q-27 38 -27 62v356h-66l-69 70h483l71 -70h-350zM276 294q-22 8 -57 24q-57 36 -89 76v-251q0 -18 11 -18q34 0 104 82q32 38 32 74
q0 7 -1 13z" />
    <glyph glyph-name="Q" unicode="Q" horiz-adv-x="452" 
d="M298 374q2 -8 2 -16q0 -60 -96 -114q-38 -21 -69 -21q-32 0 -59 21.5t-27 52.5v201h-56l-65 70h528l69 -70h-404q8 -14 10 -18q37 -36 91 -36q11 0 32 3.5t32 3.5q58 0 99 -47t41 -105q0 -86 -105 -150q-15 -7 -37 -17q76 -42 110 -69q38 -29 96 -96l12 -73
q-78 81 -142.5 120t-167.5 66q-36 10 -83 15l-63 118q61 -20 98 -20q10 0 68 4q30 2 68 26t55 50q21 33 21 59q1 42 -58 42zM150 397q-18 13 -32 26v-117q0 -18 10 -16q18 3 41 21q38 29 41 60q-20 7 -60 26z" />
    <glyph glyph-name="R" unicode="R" horiz-adv-x="592" 
d="M327 363q14 -7 32 -29q46 -56 46 -113q0 -19 -5 -38q-14 -49 -52.5 -79t-88.5 -30q-91 0 -159 88q-30 38 -50 97q-19 56 -21 107t-2 117q40 -20 48 -28q-3 -56 8 -95q15 -56 22 -73q19 -42 56 -75q44 -38 85 -35q34 2 64 15q40 17 40 44q0 10 -4.5 20.5t-12.5 10.5
q-3 0 -8 -2q-50 -22 -83 -22q-28 0 -55 13q-55 37 -67 94q-3 17 -3 32q0 47 47 104q4 4 11 12h-179l-70 70h671l69 -70h-333q-10 -4 -27 -15q-4 -4 -4 -7q0 -16 43 -29q40 -13 64 -11q23 2 94 25q36 -36 86 -88q-31 -30 -55 -77q-26 -50 -27 -89q-5 -33 -5 -59
q0 -57 40 -145q-9 -9 -15 -9q-11 0 -31 7q-23 7 -26 14q-12 52 -24 103q-15 64 -15 102q0 62 27 137q-61 2 -114.5 21t-70.5 42q-3 5 -27 35q-16 -3 -41.5 -45.5t-25.5 -60.5q0 -24 27 -24q16 0 79 32q21 10 28 12q9 0 15 -6h-1z" />
    <glyph glyph-name="S" unicode="S" horiz-adv-x="568" 
d="M500 498v-453l-43 43q-20 60 -31 80q-21 38 -61 61v-244l-40 42q-20 46 -23 53q-10 21 -31 48q-72 96 -184 106l-76 96q135 100 286 160v8h-302l-69 70h439v-261q32 -21 63 -60v425l43 -36l6 -36q0 -11 7 -26q10 -7 83 -6l70 -70h-137zM297 390q-75 -30 -145 -79
q90 -46 145 -132v211z" />
    <glyph glyph-name="T" unicode="T" horiz-adv-x="772" 
d="M675 76q-46 0 -98 37q-24 17 -80 71v-212l-43 45q-7 29 -29 72q-21 22 -63 22q-16 0 -77 -8q-34 -4 -63 -4q-122 0 -167 84q-24 46 -24 104q0 36 9 70q21 74 39 74q6 0 12 -8l25 -25q-25 -36 -26 -47q-4 -29 -4 -42q-2 -88 95 -107q43 -9 90 -6q86 5 137 -23l20 -16v308
q0 24 -19 24q-24 0 -77 -50q-30 -28 -42 -61q9 1 13 1q24 0 38 -20t14 -45q0 -24 -15 -43q-15 -22 -38 -24q-10 -1 -22 -1q-47 0 -72.5 29t-22.5 75q6 97 100 167q70 52 122 48q26 -11 66 -38q24 -28 24 -49v-70q73 106 146 106q40 0 74 -35q42 -36 42 -88q0 -48 -37 -91
q43 -41 43 -106q0 -47 -21 -80q-25 -38 -69 -38zM684 244q-36 -20 -53 -19q-27 1 -47.5 18t-21.5 45q-1 27 21 46t50 19q17 0 47 -11q8 15 10 18q14 26 1 43q-15 21 -41 21q-31 0 -70 -27q-33 -23 -55 -53q-26 -35 -26 -58q0 -31 31 -64q25 -28 58 -44q21 -11 51 -11
q23 0 43 10q25 13 25 34q0 9 -23 33z" />
    <glyph glyph-name="U" unicode="U" horiz-adv-x="424" 
d="M112 704h2q42 8 104 5q55 -3 86 -21q70 -43 68 -117h50l69 -73h-376v-325q0 -26 29 -26q34 0 79 45t55 83h-3q-31 -1 -52.5 18t-21.5 48q0 10 2 20q17 58 76 58q43 0 69.5 -34.5t24.5 -77.5q-4 -91 -55 -144q-96 -100 -152 -100q-87 0 -115 96q-4 15 -4 74v265h-74
l-57 70h387q0 10 1 18q-8 40 -62 33q-37 0 -99 -5q-26 -2 -36 -2q-77 0 -126 42q-38 34 -38 80q0 29 17 51q8 15 27 15q7 0 12 -5q3 -11 3 -27q-12 -12 -12 -22q0 -30 40 -41q14 -5 82 -1z" />
    <glyph glyph-name="V" unicode="V" horiz-adv-x="405" 
d="M139 568q-28 48 -65 127q-15 47 -13 72q5 61 63 109l78 -67q-50 -21 -62 -32q-16 -16 -16 -40q0 -48 73 -144q11 -14 21 -25h191l74 -70h-215q40 -51 67 -123q29 -77 25 -137q-5 -79 -51 -139q-52 -67 -128 -67q-79 0 -135 68q-31 38 -31 101q0 26 9 57q55 17 89 50
q69 67 69 128q0 24 -9 61h-175l-72 71h213zM256 410q0 -88 -58 -163q-21 -27 -97 -68q-5 -2 -5 -18q0 -48 28 -58q25 -8 36 -8q61 0 100 64q34 54 34 118q0 72 -38 133z" />
    <glyph glyph-name="W" unicode="W" horiz-adv-x="523" 
d="M257 498v-173q22 5 49.5 28.5t39.5 44.5q10 16 29 34q45 -20 75 -76q27 -52 27 -104q0 -39 -14 -86q-20 -63 -76 -92q-51 -27 -120 -22q-68 5 -115 54q-28 30 -70 108q-40 97 -51 188q0 2 -9 94l51 -28q5 -73 35 -152q35 -94 82 -127q33 -31 93 -31q79 0 120 61
q19 28 19 56q0 23 -16 45q-27 -41 -79 -73q-32 -19 -60 -19q-56 0 -79 73q-1 12 0 197h-191l-70 70h593l70 -70h-333z" />
    <glyph glyph-name="X" unicode="X" horiz-adv-x="415" 
d="M132 498v-326q0 -24 19 -24q37 0 105 84q14 17 19 45h-4q-24 -1 -46 14t-27 39q-3 14 1 32q13 60 71 60q46 0 73 -37q24 -32 27 -79q3 -44 -13 -81q-11 -26 -44 -70q-45 -60 -123 -89q-13 -2 -23 -2q-35 0 -65 31q-28 28 -36 64q-4 20 -2 339h-68l-69 70h489l71 -70h-355
z" />
    <glyph glyph-name="Y" unicode="Y" horiz-adv-x="450" 
d="M130 320q-2 11 -2 20q0 49 57 49q45 0 64 -45q6 -14 6 -27q0 -37 -37 -61q-33 -21 -71 -17q-65 6 -101 53q-33 43 -33 103q0 61 32 108q36 52 95 63q22 4 39 4q22 0 38 -7q28 -16 34 -20q36 -26 68 -91q-3 30 -7 68q-4 43 0 160q12 -13 25 -26q20 -24 23 -36
q4 -21 10 -28.5t26 -21.5h59l70 -70h-145v-521l-75 76l1 281q0 60 -43 106q-36 39 -79 39q-37 0 -60.5 -30t-23.5 -58q0 -26 13 -52q7 -15 17 -19z" />
    <glyph glyph-name="Z" unicode="Z" horiz-adv-x="570" 
d="M-7 498l-70 70h651l74 -70h-655zM440 105q-59 -34 -112 -34q-34 0 -71 12.5t-63 36.5q-18 16 -48 56q-43 57 -59 98q-50 121 -78 222l52 -21q34 -82 45 -106q28 -60 57 -100q67 -95 168 -95q45 0 95 42q36 31 36 73q0 34 -20 64q-23 34 -55 34q-6 0 -16 -2q12 -22 12 -50
q-1 -81 -88 -81q-75 0 -92 78q-3 15 -3 27q0 50 40 83q37 32 88 32q19 0 47 -6q99 -23 140 -148q10 -33 10 -66q0 -99 -85 -149z" />
    <glyph glyph-name="bracketleft" unicode="[" horiz-adv-x="183" 
d="M75 670v-646h56v-70h-128v781h141v-65h-69z" />
    <glyph glyph-name="backslash" unicode="\" horiz-adv-x="366" 
d="M285 107q4 1 8 1q32 0 42 -25q4 -21 4 -30q0 -23 -17 -33t-32 -10q-27 0 -49 31t-22 60q0 6 2 11v353q-4 -1 -8 -1q-32 0 -42 26q-5 16 -5 28q0 45 48 45q26 0 49.5 -31.5t23.5 -58.5q0 -7 -2 -13v-353zM102 463q-4 -1 -9 -1q-48 0 -48 53q0 44 50 44q35 0 58 -47
q19 -38 13 -57l-2 -358q5 1 11 1q31 0 44 -27q3 -15 3 -25q0 -47 -53 -47q-33 0 -52 37q-15 29 -15 65v362z" />
    <glyph glyph-name="bracketright" unicode="]" horiz-adv-x="203" 
d="M49 -62v71h51v639h-66v65h144v-775h-129z" />
    <glyph glyph-name="asciicircum" unicode="^" 
d="M-126 42q-45 112 -151 112l-39 104q13 11 183 119q14 15 58 46v-405zM-139 274q-10 -7 -73 -48q33 -14 73 -68v116z" />
    <glyph glyph-name="underscore" unicode="_" horiz-adv-x="477" 
d="M416 498v-533l-49 68l-29 44q-44 67 -138 105q-38 15 -92 13l-95 125l49 -2q17 4 36 7q30 4 76 30q77 42 77 88q0 23 -15 38t-38 15q-13 0 -38 -12t-34 -22q23 -29 23 -52q0 -27 -22.5 -44.5t-49.5 -17.5q-36 0 -57 24q-18 21 -18 54q0 20 8 40q20 49 72 78q49 26 104 24
q57 -2 95.5 -45.5t38.5 -100.5q0 -90 -109 -163l44 -27q51 -32 92 -82v528l46 -54l3 -13q2 -32 13 -40q28 1 67 0l71 -73h-131z" />
    <glyph glyph-name="grave" unicode="`" horiz-adv-x="456" 
d="M115 498v-180q24 21 72 62q53 42 144 78l98 -73q-70 -136 -70 -240q0 -22 3 -44q-1 -11 18 -125l-56 28q-30 140 -30 212q0 59 11 115q-127 -52 -183 -196l-81 83v280h-45l-71 70h539l71 -70h-420z" />
    <glyph glyph-name="a" unicode="a" horiz-adv-x="449" 
d="M140 387q-55 7 -76 49q-13 26 -13 48q0 52 42 76q30 17 60 14q61 -5 62 -50q0 -22 -12 -36t-35 -14q-19 0 -36 9q-7 -27 15 -43q18 -13 38 -13q6 0 11 2t14 6q45 26 106 63v70h139l70 -70h-139v-555l-32 59l-21 51q-9 22 -41.5 57t-54.5 50q-44 28 -68 37q-28 11 -76 15
l-68 91q67 50 115 84zM316 386q-74 -32 -151 -98q94 -47 151 -126v224z" />
    <glyph glyph-name="b" unicode="b" horiz-adv-x="448" 
d="M175 325q19 -27 23 -46q2 -11 2 -22q0 -32 -21 -52t-57 -20q-105 0 -105 105q0 53 39 88t92 35q97 0 165 -120l6 -11v216h-335l-70 70h544l73 -70h-142v-542l-39 52q5 37 -17 111q-19 68 -33 98q-24 50 -64 81q-32 25 -61 27z" />
    <glyph glyph-name="c" unicode="c" horiz-adv-x="535" 
d="M414 422l-7 52l-7 179l46 -33q2 -4 5 -9q2 -25 10 -34l14 -9q10 1 29 1q31 0 40 -2l68 -69h-140l-1 -516q-30 20 -74 67l7 261q-20 63 -46 84l-167 -170l-94 35l54 57q6 6 6 22q0 40 -22 39q-5 0 -60 -19q-20 -4 -37.5 13t-17.5 37q0 15 10 32q71 118 192 120
q63 1 116 -40q48 -37 76 -98zM208 368l93 92q-31 26 -61 26q-66 0 -96 -45q52 -7 64 -73z" />
    <glyph glyph-name="d" unicode="d" horiz-adv-x="585" 
d="M502 321q0 22 -17 40t-39 21q-37 6 -54 6q-8 0 -8 4v-414l-38 34q-13 26 -46 78q-80 103 -201 106l-66 94q51 54 138 125q-13 10 -29 20q-30 4 -75 15q-28 15 -45 32l-26 18l-68 68h657l70 -70h-486q64 -51 117 -127q-39 -32 -117 -98q83 -34 145 -116v318q21 10 47 10
q128 0 176 -94q22 -44 22 -82q0 -31 -14 -56q-25 -43 -81 -43q-29 0 -48.5 21t-19.5 50q0 25 19 41t43 16q23 0 41 -15l3 -2l-14 -15l-46 46l32 -16q18 -9 25 -13z" />
    <glyph glyph-name="e" unicode="e" horiz-adv-x="444" 
d="M379 498v-539l-45 65q-73 182 -253 196l-73 103q80 58 132 85q97 49 170 73v17h-317l-69 70h523l69 -70h-137zM310 380q-76 -29 -162 -84q102 -49 162 -132v216z" />
    <glyph glyph-name="f" unicode="f" horiz-adv-x="532" 
d="M-2 498l-71 70h609l73 -70h-611zM304 366q62 37 82 92q4 8 12 8q21 0 69 -64q51 -67 50 -112q-2 -123 -103 -198q-37 -27 -103 -27q-69 0 -125 40q-77 56 -133 198q-11 28 -57 173l55 -17q51 -177 150 -252q51 -39 119 -39q80 0 122 89q10 22 3 55q-4 21 -6 25
q-2 10 -7 12q-6 -8 -22 -28q-20 -25 -77 -43q-19 -7 -53 -8q-65 -2 -109 46q-21 23 -21 66t27.5 67t71.5 21q27 -2 46 -22t19 -48q0 -16 -10 -34z" />
    <glyph glyph-name="g" unicode="g" horiz-adv-x="472" 
d="M30 451l2 -1q-13 7 -31 31l-11 21l-66 66h553l71 -70h-146v-528l-40 44q-23 93 -55 120q-44 39 -67 51q-34 -45 -89 -45q-57 0 -87 48q0 7 -3.5 21.5t-3.5 22.5q0 47 34 73q30 24 78 24q15 0 26 -3q-7 51 -48 80q-10 7 -62 22q-42 13 -55 23zM334 496h-194q53 -44 69 -61
q36 -38 46 -78q16 -65 14 -94q25 -26 65 -76v309z" />
    <glyph glyph-name="h" unicode="h" horiz-adv-x="445" 
d="M382 498v-527l-40 40q-23 50 -37 71q-19 30 -54 59q-38 34 -71 45q-28 9 -84 11l-76 95q54 56 146 128q-12 8 -22.5 14t-70.5 21q-52 13 -68 29l-14 17l-67 67h529l71 -70h-142zM312 498h-146q38 -26 106 -105q-20 -23 -60 -59q-13 -9 -56 -57q93 -34 156 -119v340z" />
    <glyph glyph-name="i" unicode="i" horiz-adv-x="430" 
d="M367 498v-520l-37 35q-49 90 -54 97q-31 47 -80 76q-59 35 -126 39l-74 101q155 110 301 156v16h-300l-71 70h501l71 -70h-131zM167 32q-27 0 -45.5 19.5t-18.5 44.5q0 24 17 41.5t41 17.5q21 0 39 -14t23 -35q6 -27 -11 -50.5t-45 -23.5zM297 387q-83 -29 -164 -86
q108 -49 164 -138v224z" />
    <glyph glyph-name="j" unicode="j" horiz-adv-x="516" 
d="M447 498v-526l-72 68v281q0 19 -17.5 37t-36.5 18q-15 0 -24 -16q-7 -14 0 -61l-50 -19q9 21 0 36q-20 30 -27 35q-24 25 -64 25q-32 0 -56.5 -22.5t-24.5 -54.5q0 -41 35 -55q-4 11 -4 23q0 27 19.5 45.5t47.5 18.5q43 1 62 -49q16 -40 8 -58q-22 -54 -84 -54
q-54 0 -95 29.5t-52 81.5q-4 20 -4 41q0 55 31 98q34 49 87 50q57 1 100 -42l7 -9q10 18 29.5 33.5t36.5 14.5q32 -2 53 -21q9 -12 17 -22q4 -4 8 -9v83h-382l-72 71h590l72 -71h-138z" />
    <glyph glyph-name="k" unicode="k" horiz-adv-x="521" 
d="M459 498v-526l-72 71l4 316q0 22 -32 66t-54 42q-35 -4 -41 -25q33 -25 44 -36q22 -22 28 -48q6 -28 -5 -56q-14 -37 -67 -37q-43 0 -74 42q-12 -20 -35.5 -34.5t-45.5 -14.5q-32 0 -51.5 25.5t-19.5 57.5q0 31 27 66q24 32 55 47q-7 12 -21 29q-20 15 -48 16
q29 -1 -55 -2l-70 70h127q38 0 67 -21q26 -25 27 -26q14 -15 21 -30q29 54 95 74q18 5 25 5q37 0 107 -114l11 -17l-10 114l-6 118q32 -28 50 -47q7 -11 8 -25q-1 -5 0 -12q7 -13 23 -18h46l70 -70h-128z" />
    <glyph glyph-name="l" unicode="l" horiz-adv-x="449" 
d="M385 498v-523l-38 42q-38 80 -98 128q-67 54 -148 55l-75 98q33 32 83 76q11 9 62 49q-29 11 -69 9t-60 7q-26 11 -39 47q0 4 -24 29l-52 53h519l69 -70h-130zM316 498h-152q63 -45 90 -80q25 -17 62 -47v127zM315 292q-68 63 -65 64q-29 -18 -86 -78q88 -42 151 -118
v132z" />
    <glyph glyph-name="m" unicode="m" horiz-adv-x="509" 
d="M444 498v-530l-69 80l-1 233q-4 16 -23.5 32.5t-36.5 16.5q-24 0 -44 -30q-83 -125 -109 -130q-7 -1 -20 -1q-32 0 -45 10q-27 8 -82 111l53 52q3 -29 12 -48q16 -31 28 -31t81 93q-9 95 -81 98q-47 2 -60 6q-23 8 -45 39l-13 7l-64 62h585l70 -70h-136zM375 498h-188
q46 -38 46 -99v-1q44 30 55 30q34 0 87 -68v138z" />
    <glyph glyph-name="n" unicode="n" horiz-adv-x="441" 
d="M175 475q-12 18 -32 23h-147l-73 70h521l69 -70h-284l2 -6l12 -18q17 0 43 -11q82 -32 101 -117q3 -14 3 -28q0 -81 -80 -126q-11 -6 -54 -27q3 -1 7 -3q17 -9 37 -20q46 -28 89 -70q8 -7 79 -83l32 -114q-40 46 -52 60q-60 66 -179 135q-91 54 -194 72l-70 171
q93 -63 172 -63q77 0 136 57q14 14 14 30q0 17 -14 37q-19 27 -66 27q-7 0 -12 -1q-4 -37 -46 -74q-26 -23 -58 -23q-58 0 -69 55q-5 29 23 66q14 19 41 32q3 1 49 19z" />
    <glyph glyph-name="o" unicode="o" horiz-adv-x="524" 
d="M259 498v-122q0 12 -1 -42q-1 -15 3 -16q45 11 97 80q27 36 38 36q9 0 16 -8q83 -71 83 -179q0 -121 -82 -179q-48 -34 -114 -34q-88 0 -141 53q-34 34 -82 130q-30 60 -44 138q-7 38 -17 144l52 -28q9 -115 58 -206q63 -116 163 -116q36 0 72.5 18.5t53.5 48.5
q19 34 19 56q0 21 -13 42q-18 -23 -76 -66q-32 -24 -64 -24q-65 0 -87 82q-3 13 -3 50v142h-193l-71 70h603l71 -70h-341zM350 -85q-19 -39 -58 -39q-30 0 -49.5 20t-19.5 48q0 17 8 34q20 38 59 38q32 0 50 -19.5t18 -46.5q0 -18 -8 -35z" />
    <glyph glyph-name="p" unicode="p" horiz-adv-x="421" 
d="M139 498v-316q0 -21 14 -21q35 0 105 88q11 14 16 39h-4q-31 -1 -52 18.5t-21 48.5q0 9 2 18q15 60 69 60q53 0 83 -50q20 -34 18 -69q-3 -50 -14.5 -80t-41.5 -67q-75 -91 -144 -91t-99 93q-5 17 -5 74v255h-69l-69 70h491l70 -70h-349zM244 -59q-18 -48 -64 -48
q-30 0 -48.5 20t-18.5 48q0 15 6 30q19 48 64 48q32 0 49.5 -19t17.5 -47q0 -16 -6 -32z" />
    <glyph glyph-name="q" unicode="q" horiz-adv-x="450" 
d="M383 498v-532l-39 43q-25 52 -34 66q-17 28 -47 57q-40 39 -75 52q-30 11 -90 14l-75 96q68 68 146 128q-7 8 -10 9q-18 10 -87 23q-53 9 -79 45l-69 69h531l73 -70h-145zM175 17q-28 0 -47 19.5t-19 45.5q0 25 17.5 43t42.5 18q28 0 47 -19t19 -44t-17.5 -44t-42.5 -19z
M313 498h-141q13 -10 27 -21q9 -9 75 -86q-25 -29 -59 -57q-16 -14 -56 -59q94 -35 154 -118v341z" />
    <glyph glyph-name="r" unicode="r" horiz-adv-x="357" 
d="M394 6l-65 20q21 25 19 45q-4 38 -51 66q-22 14 -80 35q-185 66 -213 197q-4 18 -4 35q0 94 90 149q29 19 70 21q58 3 88 -14q70 -42 70 -115q0 -15 -3 -30q-18 -77 -99 -77q-111 0 -133 117q-20 -23 -16 -48q9 -63 63 -89q119 -58 181 -91q89 -64 88 -171q0 -17 -5 -50z
M199 490q-36 2 -54 -1q-1 -4 -1 -8q0 -21 19.5 -43t40.5 -22q17 0 34.5 10.5t17.5 26.5q0 34 -57 37z" />
    <glyph glyph-name="s" unicode="s" horiz-adv-x="301" 
d="M201 301q-18 -11 -52 -11q-51 0 -88 38t-37 89q0 47 37 85.5t83 38.5q49 0 85 -39t36 -89q0 -31 -18.5 -63t-45.5 -49zM275 -7q-57 55 -220 168v139q55 -44 130 -116q42 -40 167 -195v-71zM172 470q-21 0 -54 -29q-21 -19 -22 -55q-1 -27 19 -27q15 0 42.5 18t34.5 32
q3 7 3 30q0 31 -23 31z" />
    <glyph glyph-name="t" unicode="t" horiz-adv-x="313" 
d="M180 294q-51 0 -90 37t-39 87q0 48 41.5 87t89.5 39q50 0 84.5 -36.5t34.5 -86.5q0 -47 -35.5 -87t-85.5 -40zM271 54q-36 -51 -92 -51q-51 0 -88 37.5t-37 88.5q0 48 40.5 88.5t88.5 40.5q49 0 82 -38t33 -87q0 -41 -27 -79zM203 470q-29 0 -51 -24t-22 -53
q0 -31 22 -31q15 0 44.5 18.5t31.5 31.5q2 9 2 25q0 33 -27 33zM190 186q-28 0 -43 -22.5t-15 -52.5q0 -45 26 -45q27 0 47.5 22.5t20.5 49.5q0 48 -36 48z" />
    <glyph glyph-name="u" unicode="u" horiz-adv-x="0" 
d="M-129 758q-6 -38 -44 -38q-28 0 -39 27q-4 8 -4 16q0 17 15 32q11 15 32 15q42 0 42 -38q0 -8 -2 -14zM-165 628q-83 -4 -132 104q-1 3 -6 14l-19 50q27 2 49 -2q16 -33 21 -42q15 -22 33 -32q31 -17 48 -17q6 0 14 3q26 3 40 29q5 8 19 48q6 6 11 6q28 0 28 -43
q0 -44 -31.5 -80t-74.5 -38z" />
    <glyph glyph-name="v" unicode="v" horiz-adv-x="202" 
d="M73 515q-8 70 -8 154l39 -32q2 -15 14 -54q4 -6 11 -15h75l70 -70h-139v-541l-68 74v379q0 30 -12 47q-29 42 -72 42q-5 0 -16 -2l-70 69q67 7 102 2q48 -7 74 -53z" />
    <glyph glyph-name="w" unicode="w" horiz-adv-x="190" 
d="M429 668q-74 56 -169 56q-52 0 -114 -41q-14 -14 -33 -40q-22 -30 -21 -39l17 -36h90l70 -70h-140v-520l-71 68l1 452h-68l-70 70h130q-13 13 -25.5 27.5t-12.5 32.5q1 30 12 47q26 43 38 55q67 69 151 69q99 0 211 -70q36 -21 93 -80l22 -65z" />
    <glyph glyph-name="x" unicode="x" horiz-adv-x="202" 
d="M120 498v-527l-69 70v457h-57l-76 70h137l-6 26q-4 22 -41 71q-65 87 -224 87q-34 0 -74 -8q-54 -11 -54 -30q0 -14 37 -15q65 -2 120 -7l12 -1q113 -10 115 -109q0 -18 -7 -40h-89q43 34 43 45q0 23 -72 27q-85 4 -88 5q-39 5 -78.5 29.5t-39.5 70.5q0 45 58 73
q67 32 136 32q50 0 129 -25q36 -12 85 -52q27 -22 53.5 -63.5t36.5 -75.5l11 -40h86l70 -70h-154z" />
    <glyph glyph-name="y" unicode="y" horiz-adv-x="0" 
d="M45 -166q2 -8 -3 -15t-13 -7t-14 8q-25 35 -91 89q-33 27 -32 29q-34 -31 -42 -36q-24 -17 -52 -17q-37 0 -65 16q-34 19 -38 53q-5 43 24.5 71.5t73.5 28.5q30 0 70 -24l-2 37q-1 19 -1 34q7 7 12 7q19 0 37 -33q14 -27 17 -51q-2 -8 -2 -16t2 -19q30 -22 45 -41
q61 -54 74 -114v0zM-208 -15q-34 -2 -34 -17t19 -15q15 0 35 8.5t19 13.5q-9 11 -39 10z" />
    <glyph glyph-name="z" unicode="z" horiz-adv-x="0" 
d="M-258 21q1 10 -4 48q2 7 7 34q39 -27 46 -71q-1 -15 1 -39q15 -10 42 -30q62 -56 77 -87q15 -20 16 -30q5 -39 -4 -82q-61 116 -152 167q-39 -58 -104 -58q-36 0 -66 21q-29 30 -29 58q0 40 33 66q30 24 71 24q25 0 66 -21zM-325 -21q-13 1 -24 -5q-14 -6 -14 -19t17 -13
q22 0 46 17q6 4 13 11q-3 7 -38 9z" />
    <glyph glyph-name="braceleft" unicode="{" horiz-adv-x="480" 
d="M176 -17v159q0 50 -11 69q-14 24 -92 46q62 18 80 35q23 22 23 78v175q0 85 43 119q37 29 210 27q-97 -21 -131 -52q-30 -27 -30 -80v-174q0 -98 -62 -128q39 -18 53 -57q9 -26 9 -79v-164q0 -53 29 -79q34 -31 128 -51q-174 -4 -211.5 28.5t-37.5 127.5z" />
    <glyph glyph-name="bar" unicode="|" horiz-adv-x="464" 
d="M332 26v513l65 -67v-511z" />
    <glyph glyph-name="braceright" unicode="}" horiz-adv-x="480" 
d="M304 142v-159q0 -91 -37 -126q-20 -19 -62 -25q-47 -7 -150 -5q94 20 128 51q29 26 29 79v164q0 53 9 79q13 38 53 57q-38 17 -52 53q-10 26 -10 75v174q0 51 -28 78q-33 31 -122 55h106q136 0 136 -147v-175q0 -56 23 -78q17 -17 79 -35q-77 -22 -89.5 -43.5
t-12.5 -71.5z" />
    <glyph glyph-name="asciitilde" unicode="~" horiz-adv-x="0" 
d="M81 -249l-147 127q-38 -25 -80 -25q-30 0 -59 14q-19 9 -31.5 32t-12.5 45q0 47 40.5 76t87.5 20l3 66q55 -40 55 -100q0 -25 -19 -25q-13 6 -27 6q-26 0 -60 -19q-14 -8 -17 -32q0 -12 26 -12q18 0 33 4q29 7 57 24l148 -125q8 -39 8 -38q0 -9 -5 -38z" />
    <glyph glyph-name="quotesinglbase" unicode="&#x201a;" horiz-adv-x="0" 
d="M-50 -249l-147 127q-38 -25 -80 -25q-30 0 -59 14q-19 9 -31.5 32t-12.5 45q0 47 40.5 76t87.5 20l3 66q55 -40 55 -100q0 -25 -19 -25q-13 6 -27 6q-26 0 -60 -19q-14 -8 -17 -32q0 -12 26 -12q18 0 33 4q29 7 57 24l148 -125q8 -39 8 -38q0 -9 -5 -38z" />
    <glyph glyph-name="florin" unicode="&#x192;" horiz-adv-x="114" 
d="M-18 498l-71 70h209l71 -70h-209zM8 16q-9 52 -13 109q-2 29 1 120q0 14 3 38q2 13 -1 13q-9 0 -43 -15q-38 -17 -48 -17q-12 0 -12 11v81l89 32q8 1 14 1q35 0 62 -46q6 -10 12 -30q0 -11 -4 -45q-9 -75 -9 -102q0 -75 32 -203z" />
    <glyph glyph-name="quotedblbase" unicode="&#x201e;" horiz-adv-x="0" 
d="M-90 -225q-24 19 -138 88l-67 41l155 113l24 69l56 -109l-106 -75q48 -33 122 -90q25 -25 27 -47l6 -78q-32 52 -79 88z" />
    <glyph glyph-name="ellipsis" unicode="&#x2026;" horiz-adv-x="0" 
d="M-206 -245q-30 22 -145 89l-66 39l156 114l24 69l56 -109l-108 -76q19 -13 89 -66q7 -5 35 -24q22 -19 26 -40l16 -85q-36 54 -83 89z" />
    <glyph glyph-name="dagger" unicode="&#x2020;" horiz-adv-x="298" 
d="M184 67q-8 13 -11 31q0 39 25 59q11 9 51 11q24 1 44 -21.5t20 -47.5q0 -40 -28.5 -68t-68.5 -28q-50 0 -83 27q-98 81 -98 229q0 25 3 51q12 120 102 204q57 54 120 54l68 -68q-89 -9 -146 -66q-78 -80 -78 -205q0 -25 11 -69q19 -76 69 -93z" />
    <glyph glyph-name="daggerdbl" unicode="&#x2021;" horiz-adv-x="295" 
d="M266 481q-115 -45 -145 -154q-16 -56 -16 -118q0 -27 4 -46q7 -33 30 -64q28 -38 58 -38h7q4 -8 -21 -16q12 0 12 5q0 -1 -11.5 18t-13.5 29q-7 43 37 68q17 9 33 9q21 0 34 -13q36 -19 36 -63q0 -39 -30 -65.5t-69 -26.5q-51 0 -82 26q-96 81 -96 226q0 126 90 240h-134
l-70 70h380l68 -68q-56 -2 -101 -19z" />
    <glyph glyph-name="circumflex" unicode="&#x2c6;" horiz-adv-x="263" 
d="M-4 703l9 1q20 0 60 2q55 7 101 -16q61 -31 72 -79q4 -18 2 -49l63 -64q-43 0 -60 -7q-76 -33 -110 -67q-39 -41 -54 -116q-10 -47 -10 -81q0 -27 6 -49q1 -5 7 -21q22 -71 70 -88q-13 21 -14 31q0 72 78 68q26 -1 45 -25.5t20 -50.5q1 -18 -11 -36q-36 -36 -83 -40
q-5 -1 -12 -1q-30 0 -65 20.5t-54 46.5q-54 74 -54 176q0 25 3 52q13 100 78 175q15 15 57 60q32 29 32 39v13q0 10 -20 17.5t-38 4.5q-4 0 -11 -1.5t-11 -1.5q-97 -4 -138 36q-31 30 -31 66q0 25 15 48.5t25 18.5l28 -28q-24 -12 -24 -26q0 -24 29 -28z" />
    <glyph glyph-name="perthousand" unicode="&#x2030;" horiz-adv-x="289" 
d="M308 501q-14 0 -73 -13q-67 -35 -97 -70q-32 -38 -50 -110q-13 -51 -13 -93q0 -107 63 -137q8 -4 15 -7q-10 21 -10 38q0 30 27 46q22 14 53 13q29 -1 49 -24.5t20 -52.5q0 -38 -32 -63.5t-70 -25.5q-50 0 -85 29q-95 79 -95 229q0 24 2 50q8 88 89 188h-110l-69 70h250
q3 4 8 8q1 31 -34 36q-52 7 -113.5 17t-89.5 63q-9 19 -10 39t15 42q13 18 22 13l28 -28q-19 -9 -19 -19q0 -19 12 -23q18 -11 65 -10q85 2 135 -26q60 -34 59 -112h48l107 -109q-70 42 -97 42z" />
    <glyph glyph-name="Scaron" unicode="&#x160;" horiz-adv-x="219" 
d="M-167 711h1q37 1 111 4q29 2 44 2q72 0 113 -30q46 -33 46 -97q0 -11 -2 -22h79l71 -70h-153v-537l-75 74v463h-76l-70 70h151q7 9 7 21q0 31 -42 36q-26 2 -90 1q-65 -2 -81 0q-55 6 -95 29q-51 30 -51 80q0 15 10.5 46.5t21.5 38.5q8 6 13 2l32 -28q-25 -18 -25 -34
q3 -29 15 -38.5t45 -10.5z" />
    <glyph glyph-name="guilsinglleft" unicode="&#x2039;" horiz-adv-x="100" 
d="M-39 498l-69 70h208l69 -70h-208zM10 222q-3 30 -32 51.5t-59 21.5h-7v-339l-41 39l-20 49q-45 110 -187 110l-57 83q43 32 113 81q40 21 105 56q8 1 75 7q12 1 51 -15q115 -47 115 -156q0 -36 -21 -64q-23 -31 -58 -31q-22 0 -37.5 16.5t-16.5 38.5q-1 29 26 51
q17 6 31 6q9 0 20 -5zM-154 291q-54 -24 -103 -65q18 -10 60 -39q24 -22 43 -42v146z" />
    <glyph glyph-name="OE" unicode="&#x152;" horiz-adv-x="100" 
d="M-39 498l-69 70h208l69 -70h-208zM-190 96v186q0 35 -1 40q-4 5 -20 5q-25 0 -59 -44q-2 -2 -6 -17h4q55 2 55 -54q0 -17 -11.5 -35t-26 -24.5t-29.5 -6.5q-17 0 -49 16.5t-33 37.5l-3 6q-9 23 0 67q15 70 89 103q47 21 77 21t55.5 -21.5t28.5 -50.5l2 -20q41 32 84 32
q29 0 52 -21t30 -50q6 -28 -2 -59q-17 -65 -82 -64q-50 1 -60 47q-2 7 -2 13q0 54 70 54h4q-9 14 -26 14q-21 0 -50 -27q-21 -20 -21 -69q0 -5 1 -11v-222q-21 13 -38 26q-16 42 -21 51q-11 15 -32 23q-8 1 -19 1q-23 0 -85 -8q-55 -7 -73 -5q-86 10 -115 91q-19 37 -13 97
q3 24 27 73l16 -11q-8 6 0 14q1 -2 22 -8q3 -12 -4.5 -50.5t-5.5 -44.5q21 -68 76 -68q58 0 90 2q52 3 84 -15z" />
    <glyph glyph-name="quoteleft" unicode="&#x2018;" 
d="M-210 -24q-82 0 -124 21q-104 53 -161 143q-46 71 -83 205l62 -33q31 -93 86 -155q40 -47 130 -75q52 -17 88 -17q63 0 73 56q3 15 -9 22q-28 -25 -61 -25q-31 0 -50 21.5t-19 52.5t21.5 56.5t51.5 25.5q18 0 37 -11q10 6 10 11q0 18 -70 18q-46 0 -67 -26q22 -22 22 -62
q0 -29 -19 -46.5t-50 -17.5q-80 0 -80 87q0 30 12 51q46 79 152 85q39 2 95 -15q84 -27 84 -93q0 -45 -35 -68q44 -28 44 -86t-42 -93q-38 -32 -98 -32z" />
    <glyph glyph-name="quoteright" unicode="&#x2019;" 
d="M-183 64q2 -2 5 -4q87 -52 157 -121l49 -48l13 -79q-162 161 -365 222l-54 17l-66 155q81 -57 167 -57q56 0 87 19q50 32 54 70q3 29 -11 45q-4 6 -20 6q-15 0 -24 -5q0 -47 -57 -87q-21 -15 -50 -15q-32 0 -53 18q-24 19 -21 50q3 25 32 63q17 22 96 46q22 3 42 3
q67 0 107 -39.5t40 -105.5q0 -88 -128 -153z" />
    <glyph glyph-name="quotedblleft" unicode="&#x201c;" horiz-adv-x="650" 
d="M295 498q-50 0 -85 27q-38 29 -38 78q0 39 27.5 69t66.5 30q41 0 69 -33l38 -117q-23 28 -34 39q-20 21 -40 34q-23 15 -26 15q-32 0 -32 -34q0 -37 65 -37h350l67 -72q-80 1 -428 1zM704 431q4 0 -1 -10q6 -10 1 -10h-5h-21q-25 -1 -101 -1h-428q-50 0 -85 27
q-38 29 -38 77q0 40 27.5 70t66.5 30t61 -35l17 -127q-21 38 -25 44q-14 24 -30 40.5l-16 16.5q-13 0 -22.5 -10.5t-9.5 -23.5q0 -37 65 -37l492 -1l57 -53l-7 3h2z" />
    <glyph glyph-name="quotedblright" unicode="&#x201d;" horiz-adv-x="268" 
d="M334 177q-93 -139 -180 -139q-36 0 -66 42q-27 38 -27 62v356h-66l-69 70h348l71 -70h-212q5 -12 9 -28q12 -16 45 -40q21 -15 67 -29q55 -17 70 -24q50 -24 50 -77q0 -63 -40 -123zM276 294q-22 8 -57 24q-57 36 -89 76v-251q0 -18 10 -18q35 0 105 82q32 38 32 74
q0 7 -1 13z" />
    <glyph glyph-name="bullet" unicode="&#x2022;" horiz-adv-x="270" 
d="M259 104q-93 0 -195 132q-18 24 -37 78q-17 50 -22 87l-12 92l48 -37q11 -60 54 -152q31 -66 127 -118q16 -9 34 -9q52 0 75 54q2 5 2 11q0 26 -22 56q-43 -51 -88 -51q-47 0 -77 30t-30 78q-1 78 32 143h-155l-69 70h347q91 0 108 -47q11 -28 0 -58q-18 -55 -93 -55
q-53 0 -79 24q-24 -57 -24 -85q0 -25 10 -33q3 -3 8 -3q16 0 46 22q12 9 35 54q108 -39 108 -152q0 -56 -37.5 -93.5t-93.5 -37.5zM289 504q-13 0 -36 -11t-23 -23q0 -6 30 -10q58 -2 58 21t-29 23z" />
    <glyph glyph-name="endash" unicode="&#x2013;" 
d="M-210 -235q-16 -23 -48 -39.5t-59 -14.5q-37 -2 -66 15q-33 19 -37 54q-5 43 24.5 71.5t73.5 28.5q21 0 51 -14.5t28 -14.5t-4 16q-6 14 -10 39q5 11 14 11q21 0 36 -22t18 -44q-1 -17 -1 -31q6 -13 40 -26q24 -8 48 -17q60 -34 71 -79q1 -5 0 -11q-5 -12 -16 -12
q-8 0 -14 8q-29 40 -149 82zM-323 -189q-34 -1 -34 -15q0 -3 1.5 -6.5t18.5 -7t24 -3.5q8 0 26 7t17 12q-12 15 -53 13z" />
    <glyph glyph-name="emdash" unicode="&#x2014;" horiz-adv-x="381" 
d="M259 498v-122q0 12 -1 -42q-1 -15 3 -16q45 11 97 80q27 36 38 36q9 0 16 -8q83 -71 83 -179q0 -121 -82 -179q-48 -34 -114 -34q-88 0 -141 53q-34 34 -82 130q-30 60 -44 138q-7 38 -17 144l52 -28q9 -115 58 -206q63 -116 163 -116q36 0 72.5 18.5t53.5 48.5
q19 34 19 56q0 21 -13 42q-18 -23 -76 -66q-32 -24 -64 -24q-65 0 -87 82q-3 13 -3 50v142h-193l-71 70h513l71 -70h-251zM350 -85q-19 -39 -58 -39q-30 0 -49.5 20t-19.5 48q0 17 8 34q20 38 59 38q32 0 50 -19.5t18 -46.5q0 -18 -8 -35z" />
    <glyph glyph-name="tilde" unicode="&#x2dc;" horiz-adv-x="289" 
d="M400 325q-33 -69 -33 -110q-8 -25 -8 -62q0 -10 6 -88q1 -20 16 -89l-57 28q-31 144 -31 198q0 64 12 129q-133 -56 -183 -197l-81 84v280h-45l-71 70h373l71 -70h-254v-181l3 3q100 95 213 138l98 -73z" />
    <glyph glyph-name="trademark" unicode="&#x2122;" horiz-adv-x="493" 
d="M216 498v-105q33 26 100 76q7 3 32 13l49 -33l60 -44q-23 -21 -45 -49q-19 -46 -20 -92q0 -11 8 -35q-21 -6 -39 -9q-11 0 -27 2l-5 54v81q0 7 1 16q-28 -12 -84 -62q-19 -17 -33 -51l-64 76v162h-156l-70 70h579l69 -70h-355z" />
    <glyph glyph-name="scaron" unicode="&#x161;" horiz-adv-x="543" 
d="M241 399q6 -11 6 -24q0 -28 -21 -52.5t-47 -24.5q-40 0 -62 29.5t-13 68.5q18 76 97 76q45 0 86 -27q54 -34 72 -55q36 16 36 62q0 15 -14 38q-5 8 -20 8h-369l-73 70h630l71 -70h-191v20q12 0 28 -46q15 -41 15 -57q0 -28 -24 -57q-2 -4 -43 -47q-60 11 -79 29l1 -2
q-13 6 -44 35q-24 18 -42 26z" />
    <glyph glyph-name="guilsinglright" unicode="&#x203a;" horiz-adv-x="200" 
d="M175 356q7 -11 7 -27q0 -28 -22.5 -45.5t-50.5 -17.5q-77 0 -77 75q0 44 31.5 74t75.5 30q58 0 104 -61v114h-249l-69 70h339l71 -70h-27v-347l-67 70v53q-1 9 -7 28l-26 32q-16 18 -33 22z" />
    <glyph glyph-name="oe" unicode="&#x153;" 
d="M-277 98q26 -29 26 -66q0 -24 -13 -45q-18 -30 -57 -30q-41 0 -67.5 24.5t-26.5 65.5q-1 58 35.5 90.5t94.5 32.5q95 0 162 -107v134l65 -55v-281l-46 37v21q-4 15 -12 33q-14 69 -79 116q-42 30 -82 30z" />
    <glyph glyph-name="glyph121" horiz-adv-x="444" 
d="M379 498v-539l-45 65q-73 182 -253 196l-73 103q80 58 132 85q97 49 170 73v17h-317l-69 70h523l69 -70h-137zM273 34q-95 101 -170 101v54q51 0 103 -33q40 -26 73 -66q27 -33 27 -43v-21q0 -9 -8 -10q-5 -1 -8 1t-17 17zM310 380q-76 -29 -162 -84q102 -49 162 -132
v216z" />
    <glyph glyph-name="Ydieresis" unicode="&#x178;" horiz-adv-x="305" 
d="M227 498v-539l-45 65l-11 26q-51 115 -174 160q-29 10 -70 10l-45 120q32 23 106 68q99 51 170 73v17h-170l-69 70h386l69 -70h-147zM158 380q-78 -30 -162 -84q99 -48 162 -133v217z" />
    <glyph glyph-name="exclamdown" unicode="&#xa1;" 
d="M-250 -176l-26 39q-6 7 -14 18q-49 46 -120 46l-52 72l123 85q8 3 66 45q11 8 31 -18q13 -16 14 -16q5 0 13 6v-301zM-278 40q-15 -9 -36 -20q-14 -11 -38 -28q21 -10 74 -61v109z" />
    <glyph glyph-name="cent" unicode="&#xa2;" 
d="M-140 205q-19 -21 -61 -42t-67 -21q-35 0 -70 32q-23 21 -23 50q1 6 1 9q11 63 64 61q33 -1 51 -43q4 -9 4 -17v-6q55 28 109 80q30 -28 41 -47t18 -57q1 -8 1 -24q-1 -67 -42 -114q-43 -50 -108 -50q-12 0 -19 1q-98 0 -178 115q-32 45 -38.5 67t-30.5 79
q-43 102 -43 227l55 -30q8 -111 76 -248q33 -50 49 -66q28 -31 68 -47q10 -4 28 -4q39 0 51 10l22 10q44 27 44 62q0 7 -2 13z" />
    <glyph glyph-name="sterling" unicode="&#xa3;" 
d="M-106 -68q-6 5 -15 23t-17 24q-26 16 -50 16q-14 0 -43 -4t-43 -4h-22q-46 6 -63 12q-30 11 -49 40q-25 37 -25 90q0 26 7 58q10 43 27 44l35 1q2 -19 -6 -37t-8 -22q-4 -42 20 -72t66 -30h12q75 0 114 -11q14 -8 27 -15v138q-57 -54 -108 -58l-12 -1q-29 0 -47 12
q-13 9 -34 35q-14 17 -14 44q0 31 20 53.5t50 22.5q44 0 54 -33q6 -22 -1 -44q41 25 64 56q3 8 7 23l34 7q16 -11 32 -21q24 -17 24 -31v-348z" />
    <glyph glyph-name="currency" unicode="&#xa4;" horiz-adv-x="456" 
d="M383 498q23 -35 23 -80q0 -62 -36 -107q-21 -26 -39 -34l-35 -6q-63 7 -105 48l-22 22q-5 -23 -24 -38t-42 -15q-5 -1 -10 -1q-29 0 -45.5 21.5t-16.5 50.5q0 49 56 64q15 3 15 0l-10 59q-7 17 -17 16h-77l-71 70h528l69 -70h-141zM307 498h-157l17 -38q0 -10 4 -26
q12 -15 58 -49q37 -20 57 -20q34 0 43 17q5 9 5 45q1 67 -27 71z" />
    <glyph glyph-name="yen" unicode="&#xa5;" horiz-adv-x="120" 
d="M72 498v-612l-42 35q-46 108 -77 108q-4 0 -8 -7q-1 -24 -20.5 -44t-44.5 -20q-5 0 -10 1q-43 -2 -60 49q-5 13 -5 24q0 31 29 51q25 18 58 18q64 0 103 -33l8 -7v437h-17l-71 70h209l71 -70h-123z" />
    <glyph glyph-name="brokenbar" unicode="&#xa6;" 
d="M-120 -33q-45 112 -151 112l-39 104q13 11 187 121q10 -1 20 -1t34 2v-362zM-133 199q-15 -11 -73 -48q33 -14 73 -68v116z" />
    <glyph glyph-name="section" unicode="&#xa7;" horiz-adv-x="137" 
d="M-31 171q-4 -10 -14 -27q-8 -10 -27.5 -19.5t-33.5 -9.5q-4 0 -8 1q-31 -4 -53 22t-22 58q0 35 24 60.5t59 24.5h3h11v0v0q0 -11 -8 -11q0 5 -10 31q-12 32 -29 56q5 6 21 45q30 -15 73 -109q4 -7 10 -25q25 -19 61 -64v292h-72l-68 72h252l71 -72h-114v-496l-46 36
q-33 62 -80 135z" />
    <glyph glyph-name="dieresis" unicode="&#xa8;" horiz-adv-x="241" 
d="M226 502q-29 0 -52 -16t-28 -44q-8 -47 10 -148q21 -118 21 -145q0 -88 -90 -144q-42 -27 -66 -27q-25 0 -33 25q-2 4 -2 8q0 13 22 20q29 9 31 10q32 25 37 32q12 19 16 63q2 19 -17 90q-20 77 -20 117q0 53 29 105l36 50h-125l-71 70h326l74 -70q-39 4 -98 4z" />
    <glyph glyph-name="copyright" unicode="&#xa9;" 
d="M-138 589h-154l316 233l69 -9z" />
    <glyph glyph-name="ordfeminine" unicode="&#xaa;" 
d="M-102 -94q-13 19 -24 37q-24 27 -60 29q-57 3 -179 5q-166 3 -166 138q0 13 2 28t18 67l4 15l39 -39q-11 -11 -11 -42q0 -76 131 -79q61 4 117 -5q68 -5 100 -47l1 -1v274l65 65v-475z" />
    <glyph glyph-name="guillemotleft" unicode="&#xab;" 
d="M-646 241v0l59 -42q-16 -9 -19 -17q-3 -12 -5 -23v-8q0 -62 129 -64q17 3 61 0q122 -8 157 -53v78l66 -51v-191q-21 48 -25 50q-9 4 -16 10q-13 19 -25 36q-35 41 -98 41q-24 0 -69 -4q-48 -4 -69 -4q-137 -3 -164 122q-4 22 -2 56q-2 53 4.5 62t15.5 2z" />
    <glyph glyph-name="logicalnot" unicode="&#xac;" 
d="M-260 -18q-15 69 -43 69q-18 0 -19 -18q0 -4 1 -5l15 -22l-52 -15q-27 78 -87 78q-59 0 -63 -49q-1 -12 21 -26q1 8 1 12q11 31 57 31q47 0 47 -43q0 -7 -1 -16q-10 -57 -71 -57q-100 0 -118 84q-7 32 6 61q30 71 101 71q66 0 101 -43q3 13 16.5 22t26.5 7q20 -3 39 -19
l2 -2v96h67l1 -245q-28 15 -48 29z" />
    <glyph glyph-name="minus" unicode="&#x2212;" horiz-adv-x="600" 
d="M98 372q-1 7 -1 13q0 51 61 51q8 0 14 -1q51 -4 51 -68q0 -34 -26 -58.5t-60 -24.5q-31 0 -65.5 16.5t-49.5 42.5q-23 36 -20 108q1 30 27 67q44 63 120 63q24 0 56 -16q43 -16 65 -54v57h336l71 -70h-335v-326q0 -24 19 -24q37 0 105 84q14 17 19 45h-4q-24 -1 -46 14
t-27 39q-3 14 1 32q13 60 71 60q60 0 87 -56q6 -15 13 -61q-6 -51 -16.5 -77.5t-40.5 -71.5q-15 -24 -56.5 -54.5t-67.5 -35.5q-39 -7 -65 11q-50 36 -62 91v223q-7 27 -47 72q-24 27 -76 27q-56 0 -63 -44q-2 -7 -2 -24q0 -30 14 -50z" />
    <glyph glyph-name="registered" unicode="&#xae;" horiz-adv-x="452" 
d="M332 497q12 -23 12 -54q0 -38 -17 -60q-5 -7 -13 -19q-76 -71 -150 -71q-47 0 -78 33t-31 81t41 91h-100l-71 70h524l67 -71h-184zM275 482q-25 13 -32 13q-11 0 -32 -11q-15 -8 -15 -7l59 -52q28 12 28 41q0 11 -8 16zM211 389l-59 45h1q-7 0 -16 -12.5t-10 -20.5
q-2 -10 13 -28q7 -11 25 -11q16 0 28 14q13 8 18 13z" />
    <glyph glyph-name="macron" unicode="&#xaf;" horiz-adv-x="532" 
d="M464 497q18 -31 8 -80q-20 -91 -98 -91q-39 0 -80 32q-38 29 -55 67q-32 -73 -67 -96q-16 -11 -33 -11q-23 0 -60 31q-34 28 -34 50q0 4 1 8l12 24q5 10 17 10q31 -33 38 -33q18 0 39 32t20 52q0 6 -3 6h-175l-69 70h603l73 -70h-63q-50 0 -72 -1h-2zM392 498h-116
q2 -13 10 -28q29 -55 80 -50q28 0 40 19q7 5 7 15q0 12 -8 28t-13 16z" />
    <glyph glyph-name="degree" unicode="&#xb0;" horiz-adv-x="569" 
d="M451 173q-15 33 -34 42q-36 16 -54 16h-6v-306l-30 17l-8 17q-4 12 -23 43q-74 101 -178 105l-69 88l71 43l-10 3q-22 5 -37 5l-74 89q137 99 288 143v20h-293l-69 70h640l69 -70h-277v-20q65 0 120.5 -52t52.5 -116q-3 -71 -47 -76q23 -53 21 -89q-5 -71 -66 -71
q-12 0 -22 4q-44 12 -43 55q1 33 34 42q11 4 22 4q12 0 22 -6zM458 340q-7 7 -16 15q-56 33 -84 33h-1v-74q8 -2 57 -28q-4 10 -4 18q0 37 39 37q4 0 9 -1zM287 380q-78 -26 -154 -75q22 -12 47 -31l107 44v62zM287 224q-45 -17 -112 -58q67 -29 112 -83v141z" />
    <glyph glyph-name="plusminus" unicode="&#xb1;" horiz-adv-x="441" 
d="M317 585v2q-7 12 -36 12q-8 0 -25 -1t-25 -1q-23 0 -113 1q-35 0 -65 14q-40 17 -40 47q-6 9 -6 25q0 51 27 85l60 -33q-35 -13 -35 -29q0 -6 1 -10q8 -15 31 -18q16 -2 147 -3q99 -1 121 -59q7 -18 4 -49h74l71 -70h-232v-4q26 -3 52 -17q73 -40 73 -129q0 -86 -69 -86
q-56 0 -64 40q-7 37 16 62q13 15 32 15q16 0 28 -4q-6 20 -31 36q-8 8 -39 16q-7 -107 -80 -222l-38 -61q-4 -18 -4 -33q0 -42 27 -42q21 0 56.5 19.5t51.5 38.5q-58 9 -58 62q0 28 20 51t50 23q103 0 95 -98q-2 -23 -18 -54t-34 -46q-72 -60 -135 -62q-128 -4 -132 126
q8 34 29 67q5 7 44 59q-4 25 -37 27q-25 2 -45 -1q-5 15 -57 105q42 36 93 67q66 40 103 44v1h-212l-70 70h393q3 8 1 17zM117 366q15 -9 40 -25q15 -12 22 -32q26 55 26 108q-16 -6 -40.5 -20t-47.5 -31z" />
    <glyph glyph-name="twosuperior" unicode="&#xb2;" horiz-adv-x="664" 
d="M614 498v-550l-45 31q-16 34 -33 68q-20 35 -49 55t-59 27q0 -29 -22.5 -51.5t-51.5 -22.5q-33 0 -53 22.5t-20 53.5q0 53 48 76q-16 35 -50 52q-7 -21 -28 -36t-44 -15q-26 0 -43 22q-16 19 -16 47q0 31 21 51q19 17 47 16q2 7 2 14q0 40 -45 44q1 -32 -20.5 -51
t-51.5 -19q-29 0 -48 17q-22 20 -22 55q0 42 40 66q11 4 21 9q-12 19 -21 19h-80l-71 70h742l71 -70h-119zM263 498q1 -15 22 -25q17 -9 34 -9q8 0 13 3v31h-69zM544 498h-142v-29q12 2 18 2q42 0 75.5 -25t42.5 -65q4 -17 4 -33q0 -44 -31 -71q-22 -18 -43 -18
q-25 0 -44.5 19.5t-19.5 45.5q2 14 12 30q11 20 23.5 22t23.5 2q6 0 12 -1l-2 3q-16 15 -39 15q-15 0 -32 -6v-177q42 -10 57 -18q50 -28 85 -72v376zM332 384q-57 12 -95 57q-26 32 -35 57h-56q4 -8 9 -19q0 -1 10 -3q43 -12 77.5 -57t39.5 -91q18 -13 50 -44v100z" />
    <glyph glyph-name="threesuperior" unicode="&#xb3;" horiz-adv-x="662" 
d="M-4 498l-73 70h734l67 -70h-728zM544 183q-25 0 -47 20t-22 44q1 13 11 40q19 18 43 18q20 0 34 -14l11 -22q5 3 5 26q0 43 -30 52q-9 5 -20 5q-39 0 -65 -33q-31 -39 -28 -50q36 -38 36 -89q0 -23 -9 -47q-27 -81 -122 -92q-40 -4 -87 15q-58 24 -137 142
q-55 83 -108 292l56 -29q7 -5 20 -50q39 -138 98 -197q30 -30 35 -34q53 -44 112 -44q66 0 78 55q6 25 -12 46q-19 -14 -40 -14q-67 0 -67 69q0 26 17.5 46t43.5 20q19 0 41 -11q18 13 18 28q0 20 -49 39q-6 2 -14 2q-13 0 -37.5 -7t-32.5 -14q-15 -11 -24 -21
q25 -19 25 -53q0 -50 -54 -50q-60 0 -72 54q-8 38 12 73q62 108 189 99q73 -6 101 -76q2 -6 4 -42q37 38 75 40q43 2 74 -29.5t35 -75.5q5 -46 -22 -87q-29 -44 -75 -44z" />
    <glyph glyph-name="acute" unicode="&#xb4;" horiz-adv-x="569" 
d="M511 498v-526l-29 11l-18 20q-36 62 -46 75q-27 35 -69 56q-3 3 -22 8q-11 -70 -87 -70q-34 5 -57.5 28t-23.5 57q0 56 59 76l-2 2q-3 5 -6 6q-57 56 -136 58l-62 90q109 78 211 102v7h-227l-70 70h651l73 -70h-139zM363 365q-6 18 -28.5 32t-43.5 14v-182
q102 -17 151 -96v365h-151v-1q42 -1 82 -43q36 -39 46 -83q3 -15 3 -33q0 -33 -17 -59q-19 -30 -51 -30q-25 0 -46.5 17.5t-21.5 41.5q0 23 22 52q22 9 37 9q10 0 18 -4zM224 408q-44 -15 -86 -40q47 -26 86 -71v111z" />
    <glyph glyph-name="mu" unicode="&#xb5;" horiz-adv-x="697" 
d="M-4 498l-71 70h771l67 -70h-767zM424 137v258q0 27 -22 27t-70 -45q-26 -25 -41 -55q6 1 10 1q24 0 38 -20t14 -45q0 -23 -15.5 -44t-37.5 -23q-10 -1 -22 -1q-62 0 -84 47q-7 15 -11 54q-3 26 14.5 62t38.5 55q110 95 167 88q25 -3 58 -32.5t33 -53.5v-66q50 37 92 37
q41 0 73 -32.5t31 -73.5q2 -8 2 -17q0 -26 -17.5 -55t-38.5 -32q-13 -5 -31 -5q-55 0 -70 35q-9 14 -9 29q0 19 16.5 35t35.5 16q5 0 8 -1q24 -1 43 -24q5 21 -16 41q-13 12 -29 14q-11 4 -21 4q-42 0 -69 -45v-308l-50 45q-6 23 -26 59q-17 18 -48 18q-23 0 -87 -14
q-57 -12 -93 -9q-165 15 -165 190q0 36 9 68l11 35q3 10 3 11q7 18 14 24q12 10 23 -4l25 -26q-19 -24 -24 -42q-4 -13 -6 -46q-4 -83 75 -102q57 -14 106 -9q30 3 53 3q72 0 110 -26z" />
    <glyph glyph-name="paragraph" unicode="&#xb6;" horiz-adv-x="665" 
d="M455 498v-58q10 2 24 2q64 0 108.5 -39.5t44.5 -102.5q0 -38 -17 -64q-19 -30 -56 -30q-60 0 -81 37q-7 13 -7 27q0 16 15 35.5t30 19.5q22 -1 32 -3q18 -3 29 -13q1 5 1 6q0 20 -27 33q-21 10 -45 12q-29 2 -49 -3v-381l-42 51q-22 62 -25 70q-9 23 -34 62
q-14 22 -50 41q-20 -44 -73 -44q-32 0 -53.5 22.5t-21.5 51.5q0 28 20 48q25 27 63 27h5q2 7 2 15q0 24 -17 42.5t-40 19.5q-6 0 -16 -7q-2 -8 -8 -23q-19 -45 -62 -45q-28 0 -49.5 21.5t-21.5 56.5q0 57 44 73q9 -1 17 2q-1 7 -19 26q-8 12 -10 12h-76l-66 70h739l71 -70
h-279zM386 498h-83q-1 0 -1 -12q0 -53 71 -53q8 0 13 1v64zM387 352q-74 10 -119 72q-27 37 -33 74h-97q6 -13 16 -36q0 -3 20 -7q57 -14 102.5 -69t49.5 -114q38 -25 61 -61v141z" />
    <glyph glyph-name="periodcentered" unicode="&#xb7;" horiz-adv-x="627" 
d="M303 131q-43 72 -105 103q-37 19 -51 24q-23 8 -56 10l-54 93q42 28 90 50q66 31 79 39q24 14 106 38v10h-315l-69 70h699l73 -70h-129v-585l-72 63v86q-22 37 -76 37q-18 0 -56 -26q-6 -4 -47 -42q-30 -28 -62 -28q-14 0 -29 7q-71 33 -89 96l46 49q4 -41 20.5 -52.5
t32.5 -11.5q24 0 50 18q14 11 14 22zM498 498h-120q0 -7 -1 -12q32 -9 44 -15q37 -20 62 -59.5t25 -80.5q0 -36 -15 -67q-19 -39 -51 -39q-24 0 -43 16.5t-19 40.5q0 42 29 56q10 4 21 4t25 -4q-2 -1 -3 -1q1 -3 -7 -5q-7 40 -18 53t-49 33v-265q-14 0 -19 2t-5 7
q0 19 64 19q40 0 80 -40v357zM312 413q-60 -34 -133 -70q15 -9 40 -30q63 -55 92 -103z" />
    <glyph glyph-name="cedilla" unicode="&#xb8;" horiz-adv-x="512" 
d="M437 233q19 -32 19 -68q0 -41 -26 -77q-21 -30 -49 -40q-21 -8 -61 -8t-66 11q-14 5 -57 33q-71 44 -133 164q-49 95 -74 282l58 -39q2 -9 9 -49q9 -55 64 -167q31 -52 88 -93q63 -45 117 -45q60 0 74 37q2 6 2 10q-13 -7 -29 -7q-32 0 -54 21.5t-22 52.5q0 27 19 47.5
t46 20.5q23 0 45 -15l-3 -18q0 1 3 2q-15 6 -3 17q-1 0 -0.5 0h7.5q-1 0 15 17q1 1 1 5q0 15 -16.5 54.5t-23.5 46.5l-61 -97q-7 49 -16 69q-7 17 -36 55q-17 16 -41 16q-22 0 -40 -12h4q33 1 62.5 -21.5t29.5 -54.5q0 -25 -19 -53q-34 -49 -53 -66q-5 -4 -24 -21l-78 66
l87 71q13 11 13 16q0 -1 -5 -1t-11 -2q-58 -15 -73 -15q-48 0 -48 52q0 42 47 89q37 37 82 35q82 -4 116 -77l42 105l64 -123q32 -63 35 -70q19 -40 23 -74q5 -42 -50 -82z" />
    <glyph glyph-name="onesuperior" unicode="&#xb9;" horiz-adv-x="485" 
d="M409 498v-537l-77 81v144q-10 22 -16 29q-15 14 -30 27t-34 18q-22 7 -36 4q-35 -6 -49 -13q-20 -10 -35 -35q16 3 35 3q44 0 74 -23q34 -25 34 -67q0 -61 -101 -180l-73 82q15 10 65 62q45 48 45 60q0 10 -17 10q-9 0 -46 -21t-52 -21q-13 0 -23 7q-44 27 -44 73
q0 35 27 73q41 58 115 67q17 2 17 22q0 18 -19 18q-9 0 -46 -21t-52 -21q-13 0 -23 7q-47 28 -47 79q0 36 26 73q41 59 130 59q133 0 191 -99q-3 27 -6 57q-4 43 -3 159l56 -47q-10 -21 4 -52q3 -7 14 -7h72l69 -70h-145zM334 310q1 74 -75 152q-9 9 -32 15.5t-37 4.5
q-24 -3 -49 -16q-30 -15 -39 -34q13 2 33 2q56 0 82 -17q32 -20 32 -71q0 -9 -2 -18q59 -9 87 -50v32z" />
    <glyph glyph-name="ordmasculine" unicode="&#xba;" horiz-adv-x="765" 
d="M411 498v-178l12 12q36 36 57 48q83 53 146 78l99 -73q-53 -103 -62 -169q-10 -77 -5 -115q-1 -13 18 -125l-56 28q-30 140 -30 212q0 59 11 115q-125 -51 -174 -178l-99 98q4 21 4 43q0 100 -63 157q-34 31 -77 31q-54 0 -84 -48q15 3 34 3q96 0 108 -90q4 -32 -25 -78
q-25 -41 -76 -102l-73 82q17 12 65 62q45 48 45 60q0 10 -17 10q-9 0 -46 -21t-52 -21q-13 0 -23 7q-44 27 -44 72q0 30 23 68.5t49 55.5q41 25 91 25q78 0 119 -43q35 -37 54 -68v112h428l69 -70h-426z" />
    <glyph glyph-name="guillemotright" unicode="&#xbb;" horiz-adv-x="555" 
d="M343 466q-1 14 -3 49q-3 56 5 160l50 -49q-10 -20 4 -51q5 -11 155 -9l69 -68h-214v-156q20 6 61 19q4 3 9 3q15 0 36 -24q8 -7 35 -40q6 -14 10 -32q-7 -88 -6 -136q2 -76 25 -189q-40 27 -66 47q-9 14 -19 29q-6 20 -14 44l3 190q0 2 -3.5 6.5t-5.5 4.5q-8 0 -40 -10
q-10 -2 -20 -3h-7v-340l-29 27q-19 47 -58 88q-70 75 -157 69l-76 96l129 79l122 52q-2 35 -26 76.5t-52.5 63t-57.5 21.5q-62 0 -93 -46q24 7 47 7q57 0 78 -40q14 -27 14 -50q0 -19 -12 -42t-25 -35q-41 -35 -117 -76l-74 83q41 12 100.5 45.5t63.5 43.5q-7 5 -16 5
q-10 0 -46 -20t-50 -20q-12 0 -24 8q-45 28 -45 74q0 32 22.5 69t50.5 53q38 21 85 21q124 0 182 -97zM338 227q-40 -16 -82 -40q-5 -3 -37 -24q62 -27 119 -87v151z" />
    <glyph glyph-name="onequarter" unicode="&#xbc;" horiz-adv-x="529" 
d="M110 463q-19 35 -56 35h-55l-73 70h601l74 -70h-136q2 -7 6 -15q3 -14 3 -25q0 -30 -24 -47t-54 -17t-58 22q-10 8 -44 45l-34 37h-97q4 -5 6.5 -9.5t4.5 -11.5q53 -8 68 -12q36 -10 60 -32q32 -28 42 -75q141 -31 155 -155q5 -43 -14 -73q-22 -34 -64 -34q-25 0 -43 16
t-18 41q0 27 26 52q18 6 32 6q15 0 27 -7l-1 5q-11 21 -29.5 32t-36.5 22q-10 2 -30 2v-300l-36 30q-16 34 -25 48q-15 24 -36 41q-60 50 -131 55l-76 88q109 76 233 127q-2 42 -48 55q-33 0 -49 -18q1 -6 1 -12q0 -33 -24 -56.5t-56 -23.5q-70 0 -70 63q0 12 2 25
q10 50 77 76zM413 498h-85q31 -34 55 -34q35 0 35 21q0 6 -5 13zM278 258q-44 -17 -101 -54q52 -27 101 -80v134z" />
    <glyph glyph-name="onehalf" unicode="&#xbd;" horiz-adv-x="513" 
d="M110 474l-14 24h-102l-67 70h582l70 -70h-184v-6q0 -24 -20 -45.5t-44 -24.5q-37 -5 -81 35q-8 8 -45 42q-5 2 -39 -1q-3 0 0 -5q4 -8 5 -13.5t45 -18.5q21 -7 41 -36.5t25 -53.5v-3q57 66 130 97l97 -64q-62 -59 -80 -92q-46 -85 -46 -166q0 -60 59 -174l-73 37
q-26 78 -29 89q-14 50 -14 92q0 56 18 114q-14 -15 -41 -47q-77 -103 -143 -121q-53 0 -84 47q-23 34 -22 66q0 13 14 26l24 18q16 -62 35 -62q8 0 15 2q21 8 68 59q19 21 19 50q0 13 -5 29t-18 19q-17 5 -28 -1q-2 -72 -63 -72q-76 0 -76 76q0 45 45 74q10 7 26 10z
M326 498h-61q33 -33 39 -33q8 0 15 11t7 19v3z" />
    <glyph glyph-name="threequarters" unicode="&#xbe;" horiz-adv-x="776" 
d="M483 383q-27 -24 -56 -60q-3 -13 -3 -18q0 -19 29 -17q14 1 46.5 19t35.5 18q34 0 72 -88q4 -9 4 -26q0 -43 -19 -82q-13 -27 -49 -44.5t-68 -17.5q-3 0 -61 14q-27 12 -56 42q-13 13 -38 61q-28 -54 -86 -58q-102 -7 -171 94q-24 35 -32 59q-13 43 -26 102l-12 115
l53 -29q5 -33 24 -109q54 -144 134 -144q32 0 55 15q27 18 27 48q0 34 -12 31q-9 -2 -38 -16q-24 -11 -42 -11q-93 0 -96 119q-2 57 36 98h-139l-67 70h844l69 -70h-568q-11 1 -11 -4q0 -9 4 -13q7 -11 52 -24q41 -12 62 -12q51 0 102 29q17 -25 51 -58q38 -27 100 -24
q24 1 70 18l70 -80q-81 -100 -81 -180q0 -57 6 -102q3 -27 10 -87l-53 23q-7 22 -20 95q-5 29 -5 62q0 47 12 103q2 10 22 65q-108 -2 -181 74zM544 214l-1 -1q0 7 -8 17q-21 -13 -60 -23q-18 -4 -50 9q-64 26 -64 98q0 22 7 46l5 15q-71 16 -120 42q-12 7 -29 23.5
t-21 27.5q-44 -64 -42 -91q1 -15 22 -15q22 0 48.5 17.5t34.5 17.5q29 0 53 -40q18 -31 24 -65q7 -43 13 -57q9 -23 38 -47q45 -37 88 -37q59 0 59 56z" />
    <glyph glyph-name="questiondown" unicode="&#xbf;" 
d="M-172 319l1 -1q-6 0 -22 -6q-12 -7 -35 -28q-10 -12 -15 -27q6 1 10 1q22 0 36 -16t14 -37q0 -29 -23.5 -47.5t-52.5 -18.5q-23 0 -46.5 16t-29 36.5t-5.5 39.5q0 35 18 64q9 13 43 51q16 10 46 28q14 15 58 15q64 0 87 -66q4 -10 4 -98v-289l-37 33q-8 17 -24 41
q-22 27 -65 27q-19 0 -53 -7q-38 -7 -53 -8q-36 -2 -74 13q-43 16 -60 44q-32 48 -32 101q0 44 22 93q7 15 18 9l30 -22q-12 -38 -12 -63q0 -50 29 -71q25 -18 123 -8q21 2 30 2q55 0 82 -24l7 -7v185q0 8 -7 28q-4 13 -1 13z" />
    <glyph glyph-name="Agrave" unicode="&#xc0;" horiz-adv-x="599" 
d="M365 497q-14 3 -56 -11q13 -28 54 -47q9 -4 30 -4q72 0 107 32l90 -94q-50 -45 -71 -98q-12 -31 -27 -118q-4 -24 -4 -46q0 -39 16 -84l-6 -200l-39 45q-5 19 -14 40q-18 34 -51 58v-190l-44 64q-48 70 -66 88q-40 38 -99 47l-76 82q28 0 92 36h-2q-81 25 -134 127
q-47 92 -43 182q1 14 13 69l49 -26q-7 -27 -9 -51q-6 -79 67 -166q49 -58 109 -58q33 0 62 14q35 18 35 48q0 7 -5 20t-11 13q-2 0 -36 -13t-53 -13q-50 0 -104 46q-24 22 -27 81q-4 67 52 128h-174l-69 70h677l70 -71h-303zM248 458q-13 -6 -38 -43q-29 -41 -29 -66
q0 -24 30 -24q19 0 58 22t48 22q7 0 14 -5l16 -15q60 -55 60 -118q0 -12 -12 -54q-3 -8 -2 -12q0 -31 1 -37v-86q20 -11 43 -44l5 53q-13 133 -13 179q1 81 38 140q11 0 8 -10q-6 0 -19 -1t-19 -1q-52 0 -106 27q-58 29 -83 73zM331 87q-16 -8 -49 -24q-6 -3 -40 -25
q54 -34 89 -79v128z" />
    <glyph glyph-name="Aacute" unicode="&#xc1;" horiz-adv-x="672" 
d="M333 266q-17 -10 -51 -20t-51 -9q-29 2 -40 4q-35 9 -56 46q-19 31 -20 71q-1 32 16.5 73.5t41.5 66.5h-180l-69 70h746l69 -70h-424q0 -15 -2 -34q7 -27 18 -61q24 -42 34 -42q4 0 12 7q15 20 56 55l28 19q25 12 55 12q82 0 112 -55q18 -42 18 -62q0 -41 -47 -77
q37 -64 37 -95q-1 -41 -37 -65q-31 -21 -74 -21q-42 0 -61 13q-48 31 -77 83q-29 -95 -133 -95q-88 0 -155 75q-40 44 -51 85q-17 41 -34 131l-20 104l60 -31q5 -39 20 -106q11 -51 54 -107q16 -21 47 -43q35 -26 56 -26q35 0 69 22q38 25 38 58q0 13 -5 24zM558 228
q-24 -16 -50 -16q-58 0 -58 51q0 15 7 32q18 41 59 41q21 0 37 -16q20 21 20 34t-22 23.5t-36 10.5q-37 0 -94 -59q-27 -28 -27 -37q1 -50 40.5 -96t89.5 -46q34 0 48 27q5 8 4 13q0 17 -18 38zM243 445q-16 -4 -38 -35.5t-24 -48.5q-5 -47 30 -47q37 0 86 38q-26 39 -54 93
z" />
    <glyph glyph-name="Acircumflex" unicode="&#xc2;" horiz-adv-x="626" 
d="M103 457h8q26 -3 31 -42q4 -29 -16.5 -51t-49.5 -22q-13 0 -24 5q-31 13 -35 17q-21 19 -21 65q0 55 59 90q51 30 109 30q35 0 59 -13q42 -24 64 -50v149l68 -80v-107q2 3 7 11q4 5 25 29q60 67 125 67q49 0 77 -42q25 -36 25 -87q0 -64 -34 -97q38 -36 38 -105
q0 -47 -29 -80t-76 -33q-53 0 -99 41q-40 37 -61 90v-270l-34 30l-30 60q-46 92 -199 107l-66 109q117 79 234 144q-17 62 -105 62q-43 0 -50 -27zM532 458q-11 4 -25 4q-33 0 -91 -44q-50 -38 -50 -62q0 -41 69 -124q27 -32 60 -32q21 0 42 14.5t21 35.5q0 18 -20 35
q-24 -18 -54 -18q-59 0 -59 63q0 31 19.5 55.5t51.5 24.5q23 0 42 -16q22 15 22 28q0 26 -28 36zM286 330q-36 -23 -65 -41q-14 -11 -56 -40q75 -38 121 -95v176z" />
    <glyph glyph-name="Atilde" unicode="&#xc3;" horiz-adv-x="546" 
d="M323 -71q-78 43 -200 56l-76 131q75 -30 129 -30q40 0 87 15q63 18 63 53q0 22 -18 31q-7 2 -13 4q-18 -23 -41 -34q-61 -30 -87 -30q-66 0 -121 47q-30 27 -25 91q3 38 66 77l102 62q48 38 48 64q0 47 -36 47q-27 0 -63 -22q-17 -10 -23 -22q24 -18 24 -42q0 -11 -6 -27
q-11 -34 -54 -34q-62 0 -71 66q-9 61 53 109q56 43 119 43q36 0 65.5 -22t42.5 -57q42 44 60 57q38 28 77 28q40 0 66 -35q24 -31 24 -72t-28 -76q11 -11 23 -33q12 -32 12 -58q0 -39 -20 -64q-23 -27 -61 -27q-52 0 -105 44t-68 96l-23 -29q7 -15 22 -42q10 -12 70 -60
q56 -45 59 -99q1 -31 -27 -64q-24 -28 -57 -45q44 -26 112.5 -82t97.5 -92l7 -76q-80 84 -206 153zM444 357q-15 -16 -36 -16q-24 0 -42.5 19t-18.5 43q0 23 16 38t39 15q15 0 28 -7q21 14 18 37q-2 15 -23 15q-32 0 -82 -34q-31 -21 -31 -58q0 -21 29 -61
q13 -17 36.5 -30.5t43.5 -13.5q13 0 25 8.5t12 21.5q0 9 -14 23zM225 250l-3 -1q-2 7 -14 41q-1 5 -2 9l-112 -70q-1 -1 -1 -2q1 -6 25.5 -14t32.5 -7q21 1 43 9q31 11 27 27z" />
    <glyph glyph-name="Adieresis" unicode="&#xc4;" horiz-adv-x="554" 
d="M300 500q21 20 56 44q29 10 50 10q10 0 18 -2q94 -1 111 -80q1 -7 1 -14q0 -21 -31 -61q31 -37 29 -59q-3 -46 -26 -69l44 -43q-36 -23 -55 -47q-39 -50 -41 -73q-3 -30 7.5 -51t26.5 -50l-41 -38q-52 89 -57 131q-2 17 -2 35q0 22 4 45q14 30 26 61q-30 1 -59 20
q-7 4 -49 39q-31 26 -45 73q-15 -4 -36.5 -39t-21.5 -59t23 -24q8 0 29 15q2 1 18 21q10 13 28 13q8 0 15 -5h-2q14 -6 34 -30q49 -60 49 -115q0 -53 -44.5 -90t-97.5 -37q-84 0 -144 78q-50 65 -62 143q-5 35 -5 156q40 -20 48 -28q-3 -56 8 -95q14 -53 21 -71
q15 -34 42 -60q42 -40 72 -38q33 2 63 15q41 17 41 44q0 10 -4.5 20.5t-12.5 10.5q-3 0 -8 -2q-42 -20 -75 -20q-39 0 -69.5 22.5t-38.5 60.5q-7 35 11 82q10 27 36 58q23 26 46 51q8 9 7 15q-2 27 -14 27q-20 0 -40 -19l-3 -3q-1 1 1 3v0v-2q14 -26 14 -44
q0 -24 -21.5 -45.5t-45.5 -19.5q-67 4 -67 71q0 50 41.5 92t91.5 42q22 0 63 -22q45 -24 43 -43zM467 340v-2q1 0 -15 -4q-19 -5 -28 -5q-34 0 -56 27q-11 14 -11 42q0 26 19 44t44 18q16 0 39 -14q6 4 6 16q0 6 -1 13q-4 18 -25 18q-30 0 -60 -18q-62 -39 -62 -62
q0 -1 1 -3q8 -31 11 -40q18 -47 75 -62q10 -3 17 -3q26 0 44 26q3 5 2 9z" />
    <glyph glyph-name="Aring" unicode="&#xc5;" horiz-adv-x="772" 
d="M724 289q37 -71 36 -108q-2 -103 -91 -103q-36 0 -79 17v-297l-40 46q-24 71 -55 96v-178q-41 35 -75 86.5t-58 71.5q-36 28 -86 30l-74 81q29 3 63 23q44 26 52 28q37 14 68 26q-8 1 -17 1q-23 0 -70 -5.5t-70 -5.5q-164 0 -192 137q-12 59 6 126q14 50 42 69l32 -32
q-30 -42 -30 -88q0 -79 69 -102q35 -11 144 -11q69 0 114 -28l15 -12v308q0 5 -3 15q-2 4 -4 4q-4 4 -11 4q-32 0 -71 -40q-35 -35 -49 -70q8 1 13 1q52 0 52 -68q0 -30 -22 -47.5t-53 -17.5q-94 0 -95 105q0 73 58 132q50 51 126 76q20 6 30 6q32 0 65 -28t33 -59v-68
q25 39 63 69q44 36 83 36q47 0 83 -42.5t36 -90.5q0 -50 -38 -93zM684 244q-39 -19 -52 -19q-27 0 -48.5 18.5t-21.5 44.5t20 46t47 20q13 0 24 -6q5 1 9 1q1 0 20 -4l1 1q14 21 14 38q0 18 -14.5 29t-32.5 11q-43 0 -97 -48t-54 -92q0 -45 55 -84q46 -33 85 -33q25 0 44 9
q24 12 24 35q0 9 -23 33zM526 150q-13 9 -28 27v-175q14 -5 28 -24v172zM426 61q-34 -14 -92 -51q48 -28 92 -81v132z" />
    <glyph glyph-name="AE" unicode="&#xc6;" horiz-adv-x="451" 
d="M159 498v-231q0 -42 27 -42q24 0 67 44q22 28 38 83q-60 18 -60 66q0 28 20 50.5t49 22.5q49 0 80 -58q7 -14 7 -62q0 -58 -38 -140q30 -60 29 -88q-3 -61 -43.5 -92t-101.5 -31q-43 0 -73 12q-25 10 -63 38q-52 39 -83 134q-13 40 -18 81l44 -22q13 -31 44 -83
q59 -76 126 -76q28 0 58 12q59 24 53 50q-3 12 -16 20q-27 -27 -52 -34q-23 -12 -49 -12q-20 0 -37 10q-29 8 -46 28q-11 13 -26 47q-5 11 -5 37v236h-97l-69 70h389q3 0 4 2q10 10 10 19q0 18 -33 23q-22 4 -41 1q-18 -2 -107 -3q-52 0 -76 5q-36 8 -68 36.5t-39 62.5
q-3 18 4 52q10 39 27 39q4 0 8 -2l47 -26q-33 -14 -36 -22v-27q5 -15 36.5 -20t82.5 -5q74 1 84 1q155 -5 165 -136h72l70 -70h-364z" />
    <glyph glyph-name="Ccedilla" unicode="&#xc7;" horiz-adv-x="887" 
d="M625 498v-154q0 -26 -2 -19q20 5 59 46q52 55 63 60q31 -17 50 -41q50 -65 50 -138q0 -114 -71 -169q-43 -33 -99 -33q-75 0 -130 55q-33 34 -80 121q-12 -42 -27 -63q-18 -25 -54 -44q-44 -23 -85 -23q-74 0 -140 60q-38 34 -74 103q-5 16 -23 63q-25 59 -30 102
q-1 12 -8 72l50 -27q23 -73 33 -99q24 -61 49 -92l37 -45q33 -30 93 -30q72 0 111 55q27 38 27 66q0 22 -15 41q-11 -15 -37 -38.5t-42 -33.5q-34 -19 -62 -19q-53 0 -75 71q-2 8 -2 55v98h-191l-70 70h958l69 -70h-332zM773 320q-29 -42 -78 -72q-37 -22 -64 -22
q-52 0 -73 75q-2 13 -2 54v143h-296v-119q3 -1 6 -1q25 0 69 47q14 20 42 52q34 -16 59 -54q14 -21 36 -73q13 -31 52 -121q25 -36 33 -43q39 -34 92 -34q77 0 115 63q23 37 23 64q0 20 -14 41z" />
    <glyph glyph-name="Egrave" unicode="&#xc8;" horiz-adv-x="600" 
d="M98 372q-1 7 -1 13q0 51 61 51q8 0 14 -1q51 -4 51 -68q0 -34 -26 -58.5t-60 -24.5q-31 0 -65.5 16.5t-49.5 42.5q-23 36 -20 108q1 30 27 67q44 63 120 63q24 0 56 -16q43 -16 65 -54v57h223q2 9 3 26q1 11 -14.5 21t-78.5 10q-90 0 -174 -10q-26 -3 -45 -3
q-64 0 -105 31q-46 34 -46 96q0 34 13 51q9 20 20 20q4 0 8 -4q9 -11 15 -32q-13 -13 -13 -23q0 -23 25 -37q21 -11 45 -9l54 4q23 1 83 4q70 4 153 -1q26 -2 44 -12q7 -3 38 -26q39 -35 39 -88q0 -9 -2 -18h51l71 -70h-335v-326q0 -24 19 -24q37 0 105 84q14 17 19 45h-4
q-24 -1 -46 14t-27 39q-3 14 1 32q13 60 71 60q60 0 87 -56q6 -15 13 -61q-6 -51 -16.5 -77.5t-40.5 -71.5q-15 -24 -56.5 -54.5t-67.5 -35.5q-39 -7 -65 11q-50 36 -62 91v223q-7 27 -47 72q-24 27 -76 27q-56 0 -63 -44q-2 -7 -2 -24q0 -30 14 -50z" />
    <glyph glyph-name="Eacute" unicode="&#xc9;" horiz-adv-x="512" 
d="M296 461l-1 5q-2 16 -12 36l-67 130q-32 63 -32 115q0 71 69 121l69 -69q-71 -32 -71 -83q0 -59 75 -148h186l71 -70h-204q86 -122 86 -248q0 -131 -93 -191q-45 -30 -102 -30q-65 0 -111 37q-57 46 -61 91q-6 18 -6 44q0 36 13 52q28 11 70 34q50 26 62 40q20 24 20 46
q0 9 -5 22q3 8 3 16q0 33 -37 57q-33 22 -69 22q-56 0 -63 -44q-2 -7 -2 -24q0 -30 14 -50q-1 7 -1 13q0 51 61 51q8 0 14 -1q51 -4 51 -68q0 -34 -26 -58.5t-60 -24.5q-31 0 -65.5 16.5t-49.5 42.5q-23 36 -20 108q1 30 27 67q44 63 120 63q19 0 56 -16q64 -27 91 -104z
M361 396q-8 -80 -61 -143q-29 -35 -114 -85q-2 -1 -2 -10q0 -21 13 -38q19 -23 57 -23q58 0 102 65q25 37 31 59q9 29 9 58q0 60 -35 117z" />
    <glyph glyph-name="Ecircumflex" unicode="&#xca;" horiz-adv-x="650" 
d="M353 498l-427 -1l66 72h349q67 0 67 37q0 34 -33 34q-2 0 -26 -15q-29 -19 -75 -78l40 122q27 33 69 33q38 0 66 -30t28 -69q0 -48 -39 -78q-35 -27 -85 -27zM-57 430l-3 -2l57 53l490 1q67 0 67 37q0 13 -10 23.5t-23 10.5q1 0 -16 -17q-20 -21 -55 -90l17 133
q22 35 62 35q39 0 66.5 -30t27.5 -70q0 -48 -37.5 -76t-86.5 -28l-554 1q-6 0 0 10q-3 6 -2 9z" />
    <glyph glyph-name="Edieresis" unicode="&#xcb;" horiz-adv-x="509" 
d="M-4 498l-71 70h590l71 -70h-590zM332 11q-55 0 -96 27q-28 17 -75 67q-82 87 -158 357l55 -30q5 -3 22 -52q46 -129 110 -193l34 -34q58 -48 108 -48q39 0 69 21.5t30 59.5q0 17 -19 32q-19 -16 -44 -16q-32 0 -51.5 19.5t-19.5 47.5q0 29 19.5 52t47.5 23q18 0 40 -10
q26 14 26 41q0 51 -51 51q-34 0 -57 -10q-13 -6 -49 -30q-11 -8 -20 -19q25 -25 25 -63q0 -50 -60 -50q-78 0 -78 83q0 27 11 46q65 111 202 113q90 1 129 -95q5 -12 5 -32q0 -68 -33 -115q18 -19 26 -35q10 -50 10 -60q0 -148 -158 -148z" />
    <glyph glyph-name="Igrave" unicode="&#xcc;" horiz-adv-x="511" 
d="M97 459q10 -4 24 -8q35 -17 35 -60q0 -25 -16 -43t-47 -18q-54 -1 -84 60q-17 34 -15 60q10 45 26 64q41 49 91 49q40 0 76 -52l60 64l54 -52q39 -38 49 -60q18 -53 18 -75q0 -54 -57 -112q-7 -8 -39 -27l-20 -12q-4 2 -4 -10q-2 -2 4 -2q0 11 29 -8q49 -30 116 -91v539
l48 -59q-2 -26 11 -37q5 -2 59 -3l25 -29q6 -6 16 -17l4 -6l2 -2q4 -5 1 -11q-4 -7 -11 -5h-87v-541l-42 26q-11 23 -23 45q-18 32 -31 45q-72 68 -154 90q-24 7 -91 13l-102 139q61 -16 87 -16q40 0 91 24q17 8 67 49q25 26 25 50q0 18 -20 40l-52 -61l-54 8q10 18 10 24
q0 17 -11 35t-27 18q-11 0 -24.5 -8t-16.5 -17z" />
    <glyph glyph-name="Iacute" unicode="&#xcd;" 
d="M-159 276q12 -21 12 -46q0 -33 -25.5 -54.5t-58.5 -21.5q-29 0 -52 15q-26 17 -32 44q-4 18 -4 32q0 32 20 60t50 37q24 4 43 8h12q6 0 15 1q24 0 29 -7q103 -26 102 -148q0 -93 -71 -146q-29 -22 -56 -29q-18 -4 -62 -4q-25 0 -48 9q-3 2 -31 14q-110 45 -181 202
q-3 5 -16 41q-44 115 -59 207l43 -25q27 -63 87 -184q92 -165 211 -165q47 0 82 24q40 28 40 73q0 42 -37 60q-6 3 -13 3z" />
    <glyph glyph-name="Icircumflex" unicode="&#xce;" horiz-adv-x="499" 
d="M-5 498l-69 70h577l71 -70h-579zM405 4q-6 26 -24 63q-20 23 -63 23q-23 0 -83 -8q-52 -8 -83 -5q-153 14 -153 174q0 54 25 121q6 17 12 23q13 10 24 -3l25 -27q-29 -38 -31 -93q-2 -51 32 -85q12 -12 43 -16q28 -5 47 -1q34 6 70 6q79 0 122 -28q9 -7 17 -14v266
q-1 5 1 13l-4 2q-5 4 -15 4q-32 0 -74 -42q-28 -17 -43 -54q9 1 13 1q24 0 38 -20.5t14 -44.5q0 -23 -15.5 -44t-37.5 -23q-10 -1 -22 -1q-88 0 -95 101q-4 67 76 139t143 66q12 -1 36 -13q56 -29 56 -74v-444z" />
    <glyph glyph-name="Idieresis" unicode="&#xcf;" horiz-adv-x="539" 
d="M208 192l1 -5q-15 25 -19 61q0 45 13 81q-35 -35 -72 -91q-11 -18 -28 -66l-74 73v253h-33l-70 70h620l71 -70h-518v-156l6 7q71 83 150 126l85 -70q-62 -67 -77 -130q75 90 164 125l89 -61q-77 -102 -79 -178q-3 -19 -3 -38q0 -60 34 -162l-66 43q-13 34 -24 94
q-12 66 -9 94q6 46 15 81q-45 -37 -74 -77q-7 -10 -47 -98q-50 82 -55 94z" />
    <glyph glyph-name="Eth" unicode="&#xd0;" horiz-adv-x="434" 
d="M286 499l47 76l26 -30l7 -28q3 -20 31 -62q13 -28 26 -55q13 -31 14 -59q2 -46 -37 -86q29 -43 29 -94t-37 -78q-33 -24 -84 -24q-209 0 -291 330q-19 78 -19 102q0 7 1 12l36 4q22 -100 50 -166q11 -26 66 -103q9 -12 40 -35q63 -46 114 -46q50 0 50 50q0 2 -1 10
q-14 -8 -30 -8q-43 0 -66 41q-9 17 -9 33q0 27 21 46t48 19q19 0 34 -9q4 1 9 1q-1 0 7 16q3 5 3 14q0 41 -21 76l-54 -82l-28 50q4 29 -20 51q-17 15 -30 18q-8 1 -37 -1q-7 -2 -28 -25q-7 -11 -7 -25q0 -6 1 -13q5 -22 11 -22q-1 -1 -3 -1v-1q5 55 49 53q48 -2 48 -49
q0 -6 -1 -13q-9 -61 -76 -61q-53 0 -82 52q-17 32 -17 61q0 48 34 92t81 44q73 0 95 -72v-3z" />
    <glyph glyph-name="Ntilde" unicode="&#xd1;" horiz-adv-x="487" 
d="M26 301v90h428v-90h-428z" />
    <glyph glyph-name="Ograve" unicode="&#xd2;" horiz-adv-x="466" 
d="M343 496q-21 -27 -56 -27q-36 0 -59 30q-22 27 -22 64q0 50 34 91q31 36 80 57l19 -39q-50 -32 -62 -69q10 4 20 4q29 0 45.5 -19t16.5 -46q0 -26 -16 -46zM173 496q-21 -27 -56 -27q-38 0 -60 29q-21 26 -21 65q0 47 30 87.5t83 59.5l19 -38q-51 -32 -62 -69q10 4 21 4
q29 0 45.5 -19t16.5 -46q0 -26 -16 -46z" />
    <glyph glyph-name="Oacute" unicode="&#xd3;" horiz-adv-x="400" 
d="M245 467l-19 39q51 31 62 68q-11 -4 -21 -4q-28 0 -44.5 19t-16.5 47q0 29 20.5 50.5t50.5 21.5q41 0 61 -27.5t20 -68.5q0 -44 -31 -84.5t-82 -60.5zM75 468l-19 38q50 31 61 68q-10 -4 -20 -4q-28 0 -44.5 19t-16.5 47q0 29 20.5 50.5t50.5 21.5q40 0 62 -30
q19 -25 19 -66q0 -44 -31.5 -85t-81.5 -59z" />
    <glyph glyph-name="Ocircumflex" unicode="&#xd4;" horiz-adv-x="281" 
d="M173 496q-21 -27 -56 -27q-36 0 -59 30q-22 27 -22 64q0 46 30.5 86.5t82.5 61.5l19 -38q-50 -33 -61 -70q10 4 20 4q29 0 45.5 -19t16.5 -46q0 -26 -16 -46z" />
    <glyph glyph-name="Otilde" unicode="&#xd5;" horiz-adv-x="220" 
d="M75 468l-19 38q50 31 61 68q-10 -4 -20 -4q-28 0 -44.5 19t-16.5 47q0 29 20.5 50.5t50.5 21.5q40 0 62 -30q19 -25 19 -66q0 -44 -31.5 -85t-81.5 -59z" />
    <glyph glyph-name="Odieresis" unicode="&#xd6;" 
d="M-147 64q-32 32 -104 32q-37 0 -118 -4q-46 -2 -87 16q-45 19 -68 57q-26 44 -26 98q0 15 3 53q0 9 3 22q3 6 8 6q6 0 42 -36q-7 -14 -7 -24q0 -53 59 -82q14 -7 139 -13q62 -3 120 -26q49 -29 63 -52q38 -47 48 -79q9 -27 9 -90q-25 17 -51.5 65.5t-32.5 56.5z" />
    <glyph glyph-name="multiply" unicode="&#xd7;" horiz-adv-x="559" 
d="M107 382q78 91 154 91q8 0 16 -1q31 -10 46 -24q10 -8 31 -39q10 -14 11 -57q55 25 65 25q22 0 44 -27q19 -24 23 -47l7 -43q-6 -55 -6 -104q0 -79 18 -175q-65 23 -80 74q-2 9 -9 20q-3 60 -3 113q0 25 2 90q-39 -6 -56 -20v-303l-46 41q-28 47 -37 58q-19 22 -58 42
q-34 18 -77 21l-58 77q41 32 94 68q2 1 107 67v42q-1 6 -4 13h-5q-38 0 -85 -35q-40 -30 -65 -68q-23 -34 -41 -69l-57 73v213h-41l-73 70h631l69 -70h-517v-116zM300 113v109q-11 -7 -40 -23q-8 -4 -41 -26q39 -19 81 -60z" />
    <glyph glyph-name="Oslash" unicode="&#xd8;" horiz-adv-x="392" 
d="M109 378q19 27 36 39q71 53 108 53q18 0 40.5 -12t33.5 -27q28 -37 28 -86v-395l-43 50l-22 37q-13 23 -64 53q-25 15 -68 18l-64 71q75 68 189 134l3 54q1 14 -3 14q-34 1 -97 -51q-52 -43 -87 -138l-62 70v236h-41l-69 70h465l69 -70h-352v-120zM284 205
q-44 -23 -67 -38q41 -18 67 -46v84z" />
    <glyph glyph-name="Ugrave" unicode="&#xd9;" horiz-adv-x="486" 
d="M300 124q-9 -65 -75 -65q-19 0 -35 8q-53 20 -53 73q0 35 29 63q26 25 63 24q-4 21 -7 56q0 52 3 73q-52 -55 -115 -159l-69 64v237h-48l-69 70h568l71 -70h-134v-519q-42 26 -45 29q-6 6 -17 45q-17 37 -26 42q-27 27 -41 29zM359 159v339h-249v-125q57 53 72 66
q45 36 84 48l80 -58q-46 -60 -56 -154q-4 -35 -3 -60q40 -15 72 -56z" />
    <glyph glyph-name="Uacute" unicode="&#xda;" horiz-adv-x="464" 
d="M178 400q6 -11 6 -23q0 -31 -21 -50t-52 -19q-34 0 -54 25t-20 59q0 45 30.5 70.5t75.5 25.5q64 0 92 -58q13 -26 12 -51v-1l1 3q17 34 15 50q-4 42 -14 67h-256l-71 70h299q-27 39 -49 91q-26 63 -24 99q4 64 69 110l69 -69q-66 -30 -66 -72q0 -54 74 -159h169l70 -70
h-190q30 -42 46 -77q35 -74 35 -100q10 -71 2 -117q-5 -30 -9 -39q-4 -13 -20 -36q-6 -11 -26 -40q-46 -63 -143 -60q-61 2 -106 38q-49 38 -54 97q-5 60 30 86q11 8 14 13q25 13 62 42q9 5 18.5 27.5t6.5 33.5q-5 22 -21 34zM325 396q-8 -81 -61 -143q-30 -36 -114 -85
q-6 -3 -2 -23q11 -52 66 -52q22 0 50 14q16 8 56 56t40 113q0 63 -35 120z" />
    <glyph glyph-name="Ucircumflex" unicode="&#xdb;" horiz-adv-x="552" 
d="M215 364v-4q0 -19 -17 -33.5t-37 -14.5q-26 0 -42 15q-19 18 -22 60q-3 33 23 54q23 19 56 19q37 0 69 -44v82h-251l-67 70h621l70 -70h-303v-175q0 -5 2 -11q1 -2 3 -2q6 0 28 21.5t26 29.5q24 34 52 75q61 -46 80 -134q5 -24 5 -46q0 -49 -22 -100q-47 -111 -182 -110
q-60 0 -120 39q-56 37 -87 92q-2 3 -40 75q-15 39 -37 125q-5 20 -27 121l69 -69q13 -65 39 -135q12 -30 54 -81q60 -72 151 -72q48 0 93 27q17 10 40 48q13 31 14 42q2 29 -10 53q-17 -27 -63 -56q-35 -27 -65 -27q-39 0 -59 39q-12 35 -24 71q-2 4 -20 26z" />
    <glyph glyph-name="Udieresis" unicode="&#xdc;" horiz-adv-x="550" 
d="M347 498v-113q34 16 65 20q25 3 53.5 -12t23.5 -40q-11 -109 -11 -177q0 -96 23 -189q-81 41 -91 86v240q-7 -1 -20 -6q-18 -6 -44 -19v-333l-46 37l-7 31q-9 23 -17 46q-9 18 -26 38t-29 24q-57 25 -94 24l-57 76q37 26 189 116q-13 28 -53 48q-25 12 -54 4
q14 -23 14 -33q0 -25 -20 -42.5t-46 -17.5q-29 0 -52.5 22.5t-19.5 51.5q2 47 30.5 76t75.5 29q67 0 127 -60q7 -10 16 -23v96h-278l-74 70h623l70 -70h-271zM277 258q-19 -10 -81 -48q43 -25 81 -67v115z" />
    <glyph glyph-name="Yacute" unicode="&#xdd;" horiz-adv-x="536" 
d="M140 371q5 -12 5 -18q0 -20 -19.5 -36.5t-39.5 -16.5q-16 0 -37 8q-42 11 -41 59t53 73q25 12 47 12t51 -16q25 -10 48 -49q21 -35 24 -35q2 -1 2.5 5.5t3.5 13.5q6 11 8 16q-2 15 -5 22q-18 41 -86 52q-35 6 -67 25l-11 12h-81l-70 70h610l70 -70h-134v-517l-71 53v245
q0 9 -6 22t-13 16q-11 15 -28 15q-5 0 -15 -3q-5 -1 -5 0q-6 -7 -27 -42q-22 -46 -63 -97q-18 -22 -53 -22q-28 0 -99 61l22 57q38 -24 41 -24q19 0 32 20q8 10 8 20q0 20 -17 44t-37 25zM299 426q8 5 17 10t19 5q33 0 66 -41v98h-135q24 -24 32 -59q1 -4 1 -13z" />
    <glyph glyph-name="Thorn" unicode="&#xde;" horiz-adv-x="700" 
d="M380 704h2q42 8 104 5q55 -3 86 -21q71 -43 68 -117l60 -3l70 -70h-387v-346q0 -25 18 -25q35 0 101 85q17 22 23 45h-3q-31 -1 -52.5 18t-21.5 48q0 10 2 20q17 58 76 58q43 0 69.5 -34.5t24.5 -77.5q-2 -45 -14 -76q-10 -26 -40 -67q-25 -34 -81 -75q-19 -14 -48 -26
q-86 -10 -118 93q-4 15 -4 74v85q-12 22 -34 50l-138 -134l-95 31l67 66q4 4 5 12q0 21 -24 19h-10l1 1q-9 -10 -52 -20q-17 -4 -34 13.5t-17 35.5q0 16 10 33q49 81 158 90q76 6 158 -101l5 -7v112h-15l-71 70h344l5 13l1 -1l-3 7v6q-4 12 -27.5 20t-38.5 6q-37 0 -99 -5
q-26 -2 -36 -2q-77 0 -126 42q-38 34 -38 80q0 29 17 51q8 15 27 15q7 0 12 -5q3 -11 3 -27q-12 -12 -12 -18q-3 -33 40 -45q14 -5 82 -1zM166 352l59 59q-26 14 -48 14q-50 0 -71 -21q50 -11 60 -52z" />
    <glyph glyph-name="germandbls" unicode="&#xdf;" horiz-adv-x="490" 
d="M493 558l-3 7l67 -67h-138v-177q69 -57 69 -139q0 -70 -54 -112q-50 -39 -121 -39q-30 -4 -70.5 11t-67.5 36q-55 44 -121 155q-16 40 -47 125q-15 39 -20 116l54 -34q16 -57 23 -76q12 -32 34 -73q10 -19 30 -50l44 -49q24 -28 48 -37q48 -16 81 -16q11 0 22 2
q41 0 68 21q32 22 31 61q0 36 -18 48q-25 15 -37 15q11 -19 11 -45q0 -46 -46 -62q-15 -6 -28 -6q-36 0 -57 29q-13 22 -13 45q0 9 2 17q0 37 33.5 63t70.5 26q6 0 13 -1q-5 39 -31 69l-137 -130l-92 37q51 25 62 53q2 7 1 10q-11 11 -18 11q-9 0 -27 -7q-22 -4 -43.5 8
t-21.5 34q0 9 5 22q16 44 63 76t94 32q16 0 33 -5q75 -25 112 -86v195l45 -41q-2 -8 7 -26q4 -25 9 -36q71 1 79 -10zM220 492q-36 0 -61 -26q32 -13 44 -49l62 57q-17 18 -45 18z" />
    <glyph glyph-name="agrave" unicode="&#xe0;" horiz-adv-x="535" 
d="M471 498v-536q-30 20 -78 73q1 101 -3 105q-7 8 -21 20l-158 -168l-103 33l54 58q6 6 6 22q0 41 -22 39q-4 2 -8 2q-4 -6 -28 -14t-33 -8q-17 0 -27 15.5t-10 33.5q1 51 35 90q20 21 77 60q5 5 5 16q0 6 -1 14q-6 25 -21 24q2 0 -8 3q-5 -11 -53 -22q-19 -4 -36.5 13.5
t-17.5 36.5q0 15 10 32q71 118 192 120q113 2 184 -129q-2 74 -5 222l45 -33q2 -4 5 -9q1 -26 11 -36q2 -2 14 -7q8 1 24 1q25 0 34 -2l69 -69h-132zM208 368l93 92q-31 26 -61 26q-66 0 -96 -45q52 -7 64 -73zM394 223v108q-10 25 -15 34q-9 17 -22 29q-37 -32 -85 -77
q74 -7 122 -94zM219 135l93 92q-33 28 -69 28q-66 0 -97 -46q63 -5 73 -74z" />
    <glyph glyph-name="aacute" unicode="&#xe1;" horiz-adv-x="650" 
d="M286 203q8 1 17 21t9 34q0 8 -3 10q-10 10 -25 29q-2 3 -16 15l-75 -66l-59 -61l-88 31l55 51q9 13 9 20q0 9 -12 12q-7 2 -9 1q-17 -4 -48 -12q-44 0 -44 35q0 10 5 22q34 88 143 101q67 8 137 -51q40 -33 56 -58l9 23q2 33 -30 65q-18 18 -60 30q-14 5 -66 42h-197
l-72 71h723l71 -70h-136v-529l-69 64v224l-12 32q-14 35 -38 35q-25 0 -48 -51q-19 -49 -37 -97q-29 -60 -71 -60q-60 0 -104 97l46 48q13 -40 39 -58zM394 416q9 7 22 15q25 2 34 -1q26 -12 61 -50v118h-160q39 -50 43 -82zM177 373q-24 0 -51 -18q20 -10 25 -40l61 41
q-12 17 -35 17z" />
    <glyph glyph-name="acircumflex" unicode="&#xe2;" horiz-adv-x="619" 
d="M234 498h-241l-70 70h693l71 -70h-349l-1 -13q9 -37 107 -48q49 -6 85 19l86 -80q-93 -116 -93 -243q0 -48 36 -151l-66 35q-16 63 -21 89q-7 43 -8 92q-1 91 35 153q-14 3 -45 5t-72 19q-45 18 -64 40q-4 4 -8 10v-119q0 -1 1 -1l26 21t43 21q6 0 9 -4q21 -6 37 -59
q14 -45 14 -78q0 -65 -57 -106q-44 -31 -79 -30q-78 3 -128 37q-47 31 -88 101q-20 36 -46 132q-10 40 -19 118l53 -22q9 -46 27 -107q3 -13 34 -70q17 -32 48 -62q38 -36 68 -38l29 -2q2 -2 7 -2q50 0 79 47q8 13 0 48q-1 7 0 7q-17 -14 -24 -19l1 1q-15 -12 -64 -17
q-21 1 -35 29q-18 48 -39 62q-46 28 -69 25l-36 76q23 29 133 84zM239 352v74q-9 -3 -23 -14q-8 -3 -25 -18q24 -13 48 -42z" />
    <glyph glyph-name="atilde" unicode="&#xe3;" horiz-adv-x="558" 
d="M206 498h-205l-73 70h633l73 -70h-356v-180l10 12q76 86 154 128l96 -71q-95 -131 -86 -228q2 -18 7 -70q3 -26 26 -99l-54 17l-15 39l-15 57q-8 33 -13 114q-2 41 15 105q-26 -21 -53 -55q-51 -65 -70 -134l-77 61q-7 57 -59 82q-43 20 -86 15l-54 93q123 82 202 114z
M207 410q-46 -18 -88 -54q46 -24 88 -65v119z" />
    <glyph glyph-name="adieresis" unicode="&#xe4;" horiz-adv-x="555" 
d="M362 498v-156l67 20q20 3 41 -22q6 -5 35 -40q6 -14 10 -32q-7 -88 -6 -136q2 -76 25 -189q-40 27 -66 47q-9 14 -19 29q-6 20 -14 44l3 190q0 2 -3.5 6.5t-5.5 4.5q-8 0 -40 -10q-10 -2 -20 -3h-7v-340l-29 27q-22 54 -58 88q-65 76 -157 69l-76 96l76 45q-29 8 -49 8
l-76 88q142 101 300 143v23h-294l-74 70h633l71 -70h-267zM293 381q-73 -21 -165 -78q20 -12 49 -31l116 51v58zM293 227q-40 -16 -82 -40q-5 -3 -37 -24q62 -27 119 -87v151z" />
    <glyph glyph-name="aring" unicode="&#xe5;" horiz-adv-x="524" 
d="M-5 498l-69 70h596l69 -70h-596zM411 9q-14 10 -21 41q-11 28 -27 31q-22 9 -46 9q-21 0 -64.5 -4.5t-65.5 -4.5q-161 2 -189 135q-4 19 -4 41q0 55 19 98q9 20 22 15l27 -17q-13 -37 -12 -81q1 -24 22 -49t45.5 -29.5t49.5 -8.5q31 -5 50 -4q30 2 38 2q77 0 116 -29
q5 -4 15 -13v197l-6 -5q-84 -67 -137 -66q-51 1 -90 30q-22 17 -28 35q-17 34 -5 76q17 58 73 65q51 6 72 -41q7 -15 7 -31q0 -9 -9 -32q22 11 59 45q11 18 31 45q5 7 14 7q22 0 54.5 -31t32.5 -53v-408z" />
    <glyph glyph-name="ae" unicode="&#xe6;" horiz-adv-x="199" 
d="M-8 498l-71 70h274l71 -70h-274zM117 253q-28 -20 -57 -20q-59 0 -160 108v57h20l27 -34q46 -58 88 -61q36 -2 49 40q9 26 -6 46q-1 -42 -58 -55q-22 -5 -40.5 14.5t-18.5 46.5q0 28 23 48q28 25 63 25q27 0 76 -34q36 -33 36 -97q0 -54 -42 -84z" />
    <glyph glyph-name="ccedilla" unicode="&#xe7;" horiz-adv-x="656" 
d="M70 487q-6 13 -14 11h-61l-69 70h725l69 -70h-399q14 -29 14 -61q0 -47 -30 -83q2 -8 14 -20q16 -15 44 -22l-99 -87q24 -11 63 -34q19 -13 50 -41v316q22 11 50 11q77 0 124 -29q57 -34 57 -106q0 -45 -23 -76q-26 -36 -69 -36q-55 0 -55 46q1 67 61 67q16 0 29 -7v1
q1 18 -31 40q-14 10 -49 10q-24 0 -24 -2v-395l-35 24q-11 20 -21 41q-12 18 -28 34q-20 20 -35 26q-54 41 -139 41l-62 76q61 51 119 105l-11 3q-10 1 -35 14q-28 11 -41 29q-10 11 -24 29q-12 -52 -59 -55q-7 -2 -15 -2q-27 0 -47 17.5t-19 43.5q2 52 50 66q13 1 25 5z
M242 498h-117q3 -16 45 -44q13 -9 42 -22q14 -4 26 -4q28 0 31 21q2 15 -5.5 30.5t-21.5 18.5z" />
    <glyph glyph-name="egrave" unicode="&#xe8;" 
d="M-242 -111l-26 61q-6 38 -36 76t-66 55.5t-70 13.5q0 7 5 7q-1 1 -1 0q18 -21 19 -23q10 -14 12.5 -26.5t2.5 -23.5q0 -31 -18.5 -52.5t-51.5 -21.5q-40 0 -67 25t-28 65q-1 57 37 91.5t96 34.5q87 0 159 -112v148l66 74v-425z" />
    <glyph glyph-name="eacute" unicode="&#xe9;" horiz-adv-x="585" 
d="M507 188q-2 21 -20 40q-32 33 -71 33h-7v-304l-39 34l-18 41q-39 88 -191 88l-57 83q43 32 113 81q39 20 100 53q0 12 -4 29q-5 22 -11 24t-11 2q-33 0 -30 -80l-56 39q-1 25 -15.5 34t-29.5 9q-72 0 -79 -45q-5 -29 1 -39q3 -5 11 -10q-2 8 -2 17q0 45 58 48
q51 2 60 -39q5 -26 -2 -40q-25 -51 -79 -51q-41 0 -74.5 24.5t-41.5 63.5q-3 16 0 39q16 114 130 114q24 0 43 -13q8 -6 32 -30q12 35 46 37q30 2 48 -11l-2 1q3 -1 20 -20q7 -8 10 -12v69h-350l-71 71h666l72 -71h-247v-159q65 -16 95 -38q43 -30 55 -87q4 -20 4 -36
q0 -36 -22 -66t-57 -30q-22 0 -38 16.5t-16 38.5q0 29 26 51q17 6 31 6q9 0 20 -5zM343 257q-49 -21 -100 -63q19 -7 51 -22q27 -18 49 -44v129z" />
    <glyph glyph-name="ecircumflex" unicode="&#xea;" horiz-adv-x="497" 
d="M411 498v-585l-51 51q0 9 -2 49q-15 56 -21 71q-15 33 -47 60q-44 36 -96 36q-7 0 -10 -2.5t-19 -20.5q58 7 90 -25q26 -25 26 -62q0 -42 -29 -82q-31 -33 -63 -41l-80 44l75 53q34 16 34 46q0 8 -12 8q-16 0 -60 -23t-57 -23q-12 0 -19 9q-24 33 -24 64q0 49 48 89
q45 39 95 39q33 0 75.5 -18.5t59.5 -42.5q3 -4 15 -23v167q1 2 1 3q0 14 -12 31.5t-25 19.5q-24 3 -32 -11q-5 -8 -7 -30t-8 -28q-9 0 -14 4q-11 16 -22 31q-18 22 -30 28q-5 2 -32 10q-16 3 -39 -5q-33 -10 -38 -40q-7 -36 12 -49q-2 8 -2 17q0 45 58 48q51 2 60 -39
q5 -26 -2 -40q-25 -51 -79 -51q-41 0 -74.5 24.5t-41.5 63.5q-3 16 0 39q16 114 130 114q25 0 42 -12q9 -7 31 -31q14 37 57 37q38 0 65 -28l2 -3v59h-343l-71 70h569l70 -70h-153z" />
    <glyph glyph-name="edieresis" unicode="&#xeb;" horiz-adv-x="690" 
d="M534 586l-3 9q2 11 -23 21.5t-44 8.5q-93 1 -166 -3l-4 -1q-7 9 -2 10q-4 0 1 10q-23 -9 -46 -9q-42 0 -79 31q-39 35 -39 80q0 29 18 51q3 7 14 12q14 6 25 -1q3 -12 3 -28q-11 -12 -12 -19q-3 -32 40 -44q18 -6 42 -4q21 1 43 3q126 3 140 2q108 -7 146 -91
q11 -25 3 -56h96l71 -70h-355v-326q0 -24 19 -24q37 0 105 84q14 17 19 45h-4q-24 -1 -46 14t-27 39q-3 14 1 32q13 60 71 60q59 0 85 -56q17 -35 15 -62q-5 -80 -55 -146.5t-126 -89.5q-42 -8 -65 9q-49 35 -60 84q-2 10 -2 72q0 36 1 111q-7 14 -20 30q-17 19 -27 19
q-4 0 -9 -2.5t-6 -6.5q5 -14 7 -43q-30 -23 -42 -23q-8 0 -13 9q-2 13 -16 40q-12 15 -54 27q-8 1 -15 1q-38 0 -59 -38q-8 -14 -8 -27q0 -16 17 -29q-2 8 -2 16q0 45 58 48q51 2 60 -39q5 -26 -2 -40q-25 -51 -79 -51q-41 0 -74.5 24.5t-41.5 63.5q-3 16 0 39
q16 114 130 114q25 0 42 -12q9 -7 32 -31q14 38 59 38q22 0 38 -12l15 -19q6 -6 11 -12v70h-340l-70 70h604q2 8 4 18h1z" />
    <glyph glyph-name="igrave" unicode="&#xec;" horiz-adv-x="618" 
d="M334 427v71h-340l-71 70h699l70 -70h-292v-175q0 -5 2 -11q1 -2 3 -2q6 0 28 21.5t26 29.5q24 34 52 75q61 -46 80 -134q5 -24 5 -46q0 -49 -22 -100q-47 -111 -182 -110q-60 0 -118.5 38.5t-88.5 92.5q-18 34 -18 52q0 22 45 41q24 -63 74 -96t108 -33q48 0 93 27
q17 10 40 48q13 31 14 42q2 29 -10 53q-17 -27 -63 -56q-33 -26 -67 -26q-30 0 -50 18.5t-18 48.5l-1 47q-15 37 -36 47q-4 1 -7 1q-9 0 -19 -7q-5 -13 12 -23q-7 -34 -41 -40l-24 32q-19 25 -32 31q-5 2 -32 10q-16 3 -39 -5q-33 -10 -38 -40q-7 -36 12 -49q-2 8 -2 17
q0 45 58 48q51 2 60 -39q5 -26 -2 -40q-25 -51 -79 -51q-55 0 -86 35.5t-30 90.5q1 52 31 79q24 21 79 34q9 2 20 2q25 0 42 -12q9 -7 32 -31q14 38 56 38q26 0 46 -17q9 -9 21 -27z" />
    <glyph glyph-name="iacute" unicode="&#xed;" horiz-adv-x="524" 
d="M387 465v33h-393l-71 70h607l71 -70h-144v-532l-39 17q-8 52 -12 68q-11 47 -30 64l-167 -170l-94 35l54 57q6 6 6 22q0 41 -22 39q-4 2 -8 2q-7 -10 -53 -21q-18 -4 -36 13.5t-18 36.5q0 25 50 86q2 4 5 8q-57 42 -57 120q0 55 30 100q34 50 88 51q57 1 100 -42l7 -9
q10 17 29.5 32.5t35.5 15.5q38 -1 58 -21zM379 387q-11 13 -25 13q-17 0 -27 -14t-7 -30l5 -33l-52 -20q10 20 1 37q-14 29 -28 40t-44 18q-7 2 -18 2q-32 0 -57 -22.5t-25 -54.5q0 -41 37 -56q-4 12 -4 25q0 28 20.5 45.5t47.5 17.5q42 0 57 -38q8 -20 8 -35
q73 -12 119 -80v136q2 7 2 13q0 15 -10 36zM226 89l94 93q-22 25 -62 25q-66 0 -96 -45q25 -3 42 -24.5t22 -48.5z" />
    <glyph glyph-name="icircumflex" unicode="&#xee;" horiz-adv-x="680" 
d="M320 498v-127q0 -7 31 -59l4 -7l-91 -80q24 -11 63 -34q19 -13 50 -41v316q22 11 50 11q77 0 124 -29q57 -34 57 -106q0 -45 -23 -76q-26 -36 -69 -36q-55 0 -55 46q1 67 61 67q16 0 29 -7v1q1 18 -31 40q-14 10 -49 10q-24 0 -24 -2v-395l-35 24q-11 20 -21 41
q-12 18 -28 34q-20 20 -35 26q-54 41 -139 41l-62 76q86 71 130 115q8 8 8 19q0 16 -15 16q-14 0 -17.5 -27t-13.5 -27q-4 0 -8 3q-13 9 -34 30q-13 37 -39 37q-20 0 -40.5 -11.5t-22.5 -28.5q-4 -24 0 -30q1 -2 5 -5v7q0 20 15 32t36 12q51 0 51 -49q0 -28 -21.5 -49
t-51.5 -21t-52 16q-9 7 -37 39q-18 30 -11 73q17 97 104 98q25 0 47 -12q12 -10 35 -31q11 32 42 32q7 0 14 -2v30h-260l-71 70h758l69 -70h-427z" />
    <glyph glyph-name="idieresis" unicode="&#xef;" horiz-adv-x="497" 
d="M203 378l-8 -9q-26 -31 -55 -27q-57 9 -58 54q-1 55 63 100l-15 15q-22 8 -37 8q-6 0 -12 -1l-34 5l-31 54q25 8 45 8q60 0 79 -16q28 -5 54 -44q31 52 63 46q43 -13 69 -56l47 112q14 -50 38 -100l22 -30q33 -48 40 -68q12 -29 9 -80q-2 -35 -42 -67q12 -24 17 -65
q11 -90 -99 -131q-33 -12 -93 0q-31 7 -82 43q-61 34 -129 163q-33 63 -50 136q-7 32 -25 143l59 -41q3 -11 9 -48q22 -129 100 -208q95 -95 174 -95q28 0 53 9q32 13 32 36q0 5 -1 9q-14 -7 -29 -7q-32 0 -54 22t-22 51q0 27 19.5 48t45.5 21q25 0 43 -14q10 4 18 16
q3 4 3 13q0 19 -14 51q-13 28 -23 40l-52 -93q-31 93 -67 110q-9 8 -13 10q-1 0 -6 -9q18 -12 36 -37q20 -29 20 -49q0 -4 -1 -8l-14 -26q-14 -16 -31 -14q-9 -4 -20 -4q-24 0 -40 22z" />
    <glyph glyph-name="eth" unicode="&#xf0;" horiz-adv-x="635" 
d="M289 519l1 49h344l71 -70h-347q5 -12 9 -28q15 -19 45 -40q7 -5 78 -31q110 -30 109 -99q-1 -96 -107 -201q-63 -62 -112 -62q-33 0 -68 46q-26 34 -26 59v265q0 20 -9 41q-11 25 -27 31q-4 2 -6 2q-8 0 -29 -25q26 -18 36 -36q21 -21 21 -39q0 -10 -6 -23
q-17 -38 -51 -38q-27 0 -51 30q-2 7 -4 15q-9 -14 -33 -35q-25 -14 -42 -14q-24 0 -39 16t-15 40q3 4 5 5q9 26 24 59q12 13 32 27q-32 27 -54 22q-13 1 -23 1t-21 -3l-63 63q53 15 92 11q42 -5 65.5 -16.5t46.5 -42.5q41 63 80 63q16 0 39.5 -14.5t34.5 -27.5zM501 294
q-22 8 -57 24q-57 36 -89 76v-251q0 -18 11 -18q34 0 104 82q32 38 32 74q0 7 -1 13z" />
    <glyph glyph-name="ntilde" unicode="&#xf1;" horiz-adv-x="702" 
d="M156 361q-22 -25 -32 -32q-17 -12 -44 -12q-43 0 -48 52q0 5 2 24q7 28 27 44q11 12 30 25q-22 14 -39 14q-5 0 -10 -1q-29 1 -44 -5l-66 76q52 15 91 11q42 -5 65 -16.5t47 -42.5q40 63 80 63q32 0 74 -46l1 53h407l70 -70h-407l8 -20q11 -11 54 -31q14 -6 31 -6
q13 0 39 4.5t38 4.5q57 0 94.5 -43t37.5 -100q0 -56 -40.5 -107t-94.5 -71q92 -44 205 -160l7 -75q-75 78 -142 118.5t-165 65.5q-39 10 -84 13l-62 121q71 -25 107 -25q44 0 93 18q55 20 78 50q10 13 21 38q12 29 10 40q-5 24 -24 33q-7 8 -24 8q-10 0 -11 6q2 -13 2 -23
q0 -61 -94 -115q-37 -21 -69 -21t-59 20q-30 21 -30 52l-1 117q0 29 -18 53q-13 18 -23 18q-4 0 -10.5 -5.5t-18.5 -19.5q27 -19 41 -43q14 -10 14 -35q0 -23 -16.5 -40.5t-39.5 -17.5q-27 0 -49 28q-4 5 -9 13zM391 396q-13 9 -37 27v-119q0 -20 12 -17q17 4 43.5 22
t36.5 33q6 10 5 26q-21 9 -60 28z" />
    <glyph glyph-name="ograve" unicode="&#xf2;" horiz-adv-x="690" 
d="M386 405l2 4q36 60 86 89q29 17 58 17q40 0 74 -36q45 -36 45 -96q0 -52 -38 -94q10 -18 20 -37q16 -37 16 -71q0 -43 -21 -73q-24 -34 -65 -34q-56 0 -148 75q-12 10 -31 32l1 -206l-38 42q-5 8 -30 53q-38 70 -113 103q-26 18 -49 23q-16 4 -54 4l-75 98q33 32 83 76
q11 9 61 48q-35 10 -104 33q-24 4 -36 8q-20 8 -27 23q0 4 -24 29l-52 53h479l69 -70h-89v-93zM572 346q14 20 14 38q0 11 -6 19q-15 21 -41 21q-31 0 -70 -27q-33 -23 -55 -53q-26 -35 -26 -58q0 -31 31 -64q25 -28 58 -44q21 -11 51 -11q23 0 43 10q25 13 25 34
q0 9 -23 33q-36 -20 -53 -19q-29 2 -49.5 20.5t-20.5 43.5t21.5 45t46.5 20q13 0 24 -6q13 2 30 -2zM316 498h-152q63 -45 90 -80q20 -19 62 -53v133zM315 291q-29 20 -73 60q-27 -20 -78 -73q88 -42 151 -118v131z" />
    <glyph glyph-name="oacute" unicode="&#xf3;" horiz-adv-x="440" 
d="M150 299q-35 -1 -36 0q-60 32 -60 91t44 108h-102l-69 70h343l31 -20q12 7 12 21q0 2 -1 6q1 5 1 8q0 8 -6 19q-1 2 -39 10q-53 -2 -160 -7q-79 2 -128 67q-16 17 -16 49q0 51 27 77l45 -14q-20 -25 -20 -40q0 -12 7 -29q7 -23 82 -23q27 0 73 3.5t55 3.5q46 -5 70 -17
q31 -15 50 -51t19 -73q0 -3 6 2.5t7 5.5h28l52 -68h-109q4 -8 9 -17q10 -24 10 -47q0 -24 -12 -47q-4 -7 -28 -40q-33 -46 -135 -119q-76 -54 -70 -84q3 -15 21 -15q4 1 60 11q15 2 51 20q8 4 25 10q8 3 8 5l3 8q-1 -1 -4 -2q-3 5 -8 10q-17 18 -17 35q0 26 19.5 45.5
t45.5 19.5q30 0 51 -22t21 -52q0 -27 -16 -52q-19 -38 -71 -59q-69 -39 -139 -39q-18 0 -40 4q-82 16 -82 92q0 62 67 116zM251 496q-37 0 -44 -17q16 -22 31 -44q27 -37 28 -36q31 13 31 54q0 43 -46 43zM236 360l-73 92q5 -6 -6 -17q-25 -20 -25 -44q0 -7 3 -16
q9 -34 43 -34q16 0 38 7q19 7 19 14q1 -1 1 -2z" />
    <glyph glyph-name="ocircumflex" unicode="&#xf4;" horiz-adv-x="487" 
d="M238 568q-15 21 -43 63q-37 66 -37 117q0 59 54 111l77 -51q-38 -27 -45 -36q-17 -20 -15 -53q2 -45 26 -82q5 -8 54 -69h181l70 -70h-209q24 -38 49 -96q28 -66 32 -103q0 -3 1 -61q0 -35 -3 -53q-16 -47 -25 -64q-16 -29 -47 -50q-65 -45 -112 -45q-48 0 -85 14
q-48 18 -76 61.5t-28 96.5q0 14 3 32l54 21q-65 30 -74 70q-4 20 24 64.5t28 59.5q0 5 -1 9q-22 44 -71 44h-25l-69 70h312zM257 498h-104q13 -12 44 -38q1 -2 46 -52q12 -12 20 -18q8 27 5 66q-1 19 -11 42zM178 396q-50 -39 -50 -62q1 -43 34 -43q19 0 39 15q33 25 35 32
q-8 8 -33 32q-11 12 -25 26zM333 399q-6 -89 -65 -155q-21 -24 -110 -77q-8 -4 -3 -26q10 -46 65 -46q42 0 78 36q32 31 49 75q14 36 14 74q0 66 -28 119z" />
    <glyph glyph-name="otilde" unicode="&#xf5;" horiz-adv-x="644" 
d="M559 324q-1 7 -25 33q-16 19 -71 19q-28 0 -28 -3v-387l-59 26l-12 51q-9 40 -77 66q-59 24 -106 20l-71 81l122 96l-4 6q-49 -39 -112 -39q-47 0 -78 33t-31 81t41 91h-54l-71 70h725l71 -70h-435q12 -23 12 -56q0 -37 -17 -59q-4 -5 -8 -12l71 -76l-98 -75
q66 -24 119 -79v314q20 8 47 8q101 0 150 -40q55 -44 55 -107q0 -26 -11 -51q-21 -52 -70 -52q-27 0 -44 18q-15 15 -15 45q0 55 55 55q16 0 29 -7zM227 482q-25 13 -32 13q-11 0 -32 -11q-15 -8 -15 -7l61 -54q20 3 25 45q1 8 -7 14zM104 434q-6 -1 -15 -13t-10 -19
q-1 -5 14 -30q7 -12 21 -12q15 0 32 16q21 14 21 13q2 -2 2 -4z" />
    <glyph glyph-name="odieresis" unicode="&#xf6;" horiz-adv-x="560" 
d="M353 139l-4 2q14 -4 37 -21q11 -6 38 -27v585l31 -31q12 -27 38 -79q24 1 67 0l69 -70h-134v-536l-37 13q-12 17 -24 34.5t-28 29.5q-20 14 -35 18q-22 14 -83 24q-23 4 -62 -2l-90 116q43 -7 59 -7q27 0 56 10q81 30 81 61q0 7 -4 14q-54 -24 -124 -54q-9 -3 -17 -3
q-64 0 -82 55q-3 11 -3 21q0 26 19 43t48 20q17 2 39 -6.5t31 -22.5q24 8 30 23q-15 -4 -55 26q-22 17 -43 58q-16 -30 -25 -44q-18 -27 -33 -36q-24 -14 -44 -14q-27 0 -47 21q-13 9 -23 24q-13 17 -9 29l13 22q5 7 11 7q3 0 21 -14.5t21 -14.5q7 2 18 14q26 28 26 65
q0 6 1 6h-104l-71 70h370q22 0 47 -30q32 -39 32 -93q0 -28 -35 -77q16 -17 41 -52q16 -33 16 -66q0 -48 -35 -87q-7 -8 -24 -18q11 -4 15 -6zM286 498h-82q5 -40 62 -56q5 -2 10 -2q29 0 34 21q3 6 3 11q0 21 -27 26z" />
    <glyph glyph-name="divide" unicode="&#xf7;" horiz-adv-x="760" 
d="M445 704h2q42 8 104 5q55 -3 86 -21q71 -43 68 -120h60l70 -70h-387v-325q0 -26 29 -26q34 0 79 45t55 83h-3q-31 -1 -52.5 18t-21.5 48q0 10 2 20q17 58 76 58q43 0 69.5 -34.5t24.5 -77.5q-4 -91 -55 -144q-97 -100 -152 -97q-7 -1 -14 -1q-37 0 -69 22t-41 57v115
l-8 26q-2 17 -19 31.5t-34 14.5q-23 0 -44 -31q-83 -125 -109 -130q-7 -1 -20 -1q-32 0 -45 10q-27 8 -82 111l53 52q3 -29 12 -48q16 -31 28 -31t81 93q-9 95 -81 98q-46 2 -59 5q-34 10 -50 24l-11 25l-62 59h711q0 10 1 18q-8 41 -62 34q-37 0 -99 -5q-26 -2 -36 -2
q-77 0 -126 42q-38 34 -38 80q0 29 17 51q8 15 27 15q7 0 12 -5q3 -11 3 -27q-12 -12 -12 -22q0 -30 40 -41q14 -5 82 -1zM233 399q15 12 38 26q44 3 67 -22q9 -9 37 -44v139h-188q46 -38 46 -99z" />
    <glyph glyph-name="oslash" unicode="&#xf8;" 
d="M-140 138v82h67l1 -245q-28 15 -48 29q-12 52 -13 56q-5 12 -17 12q-24 0 -24 -21q-1 -5 -1 -4l19 -24l-61 -17q-2 15 -11 29q-38 57 -91 57q-72 0 -76 -55q-1 -13 28 -29q0 9 1 14q15 33 66 33q46 0 54 -34q2 -8 -2 -29q-12 -62 -81 -62q-117 0 -139 91q-7 32 8 66
q35 78 118 78q77 0 120 -50q3 16 18.5 26t31.5 8t32 -11z" />
    <glyph glyph-name="ugrave" unicode="&#xf9;" horiz-adv-x="715" 
d="M168 499q-1 0 -1 -1h-172l-67 70h760l70 -70h-296q20 -27 20 -70q0 -29 -20.5 -56t-47.5 -36l23 -36q-39 -34 -101 -85q35 -15 89 -46q20 -16 55 -49v318q23 11 52 11q76 0 126 -34q57 -38 57 -111q0 -43 -19 -74q-23 -37 -64 -37q-27 0 -46.5 21t-19.5 47q0 32 31 49
q13 7 29 7q11 0 22 -4l-2 11q-14 32 -84 32q-14 0 -14 3v-403l-51 26l-22 50q-17 38 -79 75q-43 26 -89 26q-18 0 -44 -5l-53 100q19 14 95 76q16 13 34 31q-34 1 -62 24.5t-39 57.5q-2 9 -6 22q-34 -69 -41 -79q-31 -45 -73 -45q-30 0 -60 34t-27 63l10 26q3 9 16 9
q16 -20 37 -39q22 9 30 21q21 32 44 70zM407 474q-3 15 -20 25h-112q-9 -2 -18 -7q9 -26 26 -37q29 -31 72 -31q17 0 34 10t18 25q2 8 0 15z" />
    <glyph glyph-name="uacute" unicode="&#xfa;" horiz-adv-x="406" 
d="M293 422l-7 52l-7 179l46 -33q2 -4 5 -9q2 -25 10 -34l14 -9q37 4 59 -1l68 -69h-130v-521q-29 29 -75 72l7 260q-13 32 -32 71q-3 6 -14 14l-167 -170l-94 35l54 57q6 6 6 22q0 41 -22 39q2 0 -8 3q-5 -11 -53 -22q-19 -4 -36.5 13.5t-17.5 36.5q0 15 10 32
q71 118 192 120q63 1 116 -40q48 -37 76 -98zM87 368l93 92q-31 26 -61 26q-66 0 -96 -45q52 -7 64 -73z" />
    <glyph glyph-name="ucircumflex" unicode="&#xfb;" horiz-adv-x="442" 
d="M-4 498l-71 70h520l70 -70h-519zM260 110q9 -5 34 -21q56 -38 87 -64q53 -48 106 -95l32 -103q-36 36 -55 53q-44 39 -108 84q-72 50 -117 68q-56 22 -78 30q-45 16 -81 23l-60 153q88 -39 158 -39q34 0 94 22q82 41 82 89q0 11 -4 23q-8 23 -21 50l-70 -91l-17 10
q-4 -7 -16 -1l-31 14q8 22 8 31q-1 37 -43 37q-16 0 -31 -10t-14 -25q0 8 6 8q40 -1 53 -37q5 -11 5 -23q0 -26 -21.5 -43t-51.5 -17q-36 0 -64.5 21.5t-35.5 56.5q-6 31 5 71q20 67 109 84q64 12 112 -60l70 85q63 -63 84 -94q39 -58 35 -118q-5 -67 -52 -111
q-35 -32 -109 -61z" />
    <glyph glyph-name="udieresis" unicode="&#xfc;" horiz-adv-x="522" 
d="M174 475q-17 19 -31 23h-147l-73 70h603l67 -70h-361q3 -4 6.5 -9.5t3.5 -12.5q0 -1 21 -9q63 -3 95 -48q8 -11 20 -45l43 13q18 -13 33 -22q11 -8 51 -54q-4 -18 -8 -38q-15 -76 -15 -95q0 -9 9 -94q9 -31 28 -104q-46 40 -73 60v0q-11 8 -27 55q-6 48 -7 67
q-1 23 8 111q0 19 -8 19q-1 0 -18 -3q-5 -1 -5 -3q-12 -50 -53 -81q-11 -9 -37.5 -20.5t-37.5 -19.5l40 -24q106 -80 135 -115l39 -62l7 -24l19 -68q-186 227 -426 270l-70 170q97 -64 167 -64q30 0 66.5 12t54.5 30q7 7 20 17q14 15 14 31t-14 36q-19 27 -66 27
q-7 0 -12 -1q-4 -37 -46 -74q-26 -23 -58 -23q-58 0 -69 55q-5 26 23 66q15 22 40 34q10 5 49 17z" />
    <glyph glyph-name="yacute" unicode="&#xfd;" horiz-adv-x="595" 
d="M174 478q-13 14 -32 19h-144l-76 71h670l71 -70h-430q4 -12 10 -26q19 2 59 -18q37 -19 52 -35q8 -10 21 -37q56 51 110 51q34 0 61 -24t35 -59q3 -17 3 -33q0 -50 -34 -92q-29 -36 -68 -36q-26 0 -49 21t-24 47q0 15 16 41.5t35 26.5q24 -6 46 -30q18 14 18 33q0 2 -1 4
q-14 29 -46 29q-23 0 -64 -24q-7 -4 -14 -15q-4 -23 -26.5 -58.5t-41.5 -53.5q-26 -25 -84 -54q2 -3 43 -26q54 -31 79 -50q4 -3 80 -66l40 -130q-101 114 -220 183q-98 58 -194 75l-81 167q93 -66 167 -66q24 0 69.5 15.5t60.5 32.5q33 23 33 44q-1 43 -37 58q-20 8 -36 8
q-9 0 -15 -3q-14 -62 -94 -70q-26 -2 -47 7q-26 11 -31 34q-5 25 26 62q22 26 84 47z" />
    <glyph glyph-name="thorn" unicode="&#xfe;" horiz-adv-x="639" 
d="M442 498v-48l81 16l59 -60q-13 -193 -1 -315l-69 -42q-10 145 -9 187q2 64 5 140l-67 -4v-399l-53 52q-17 84 -25 103q-20 49 -69 78q-5 -7 -17 -19q-31 -20 -62 -20q-25 0 -46 14q-24 18 -24 50q0 18 8 37q18 44 75 44h6q2 7 2 16q0 27 -16.5 48t-42.5 21
q-21 -82 -85 -82q-30 0 -49.5 18t-19.5 48q0 26 16 51.5t39 32.5q8 2 18 8q1 6 -24 25h-78l-70 70h715l71 -70h-268zM257 498q3 -11 18 -23q39 -35 96 -29v52h-114zM372 364q-50 5 -89 33q-14 10 -45 46t-43 55q-28 -2 -44 -2h-6l1 -4q3 -8 6 -9q39 -9 68 -35q18 -18 47 -60
q14 -27 14 -54q0 -14 -4 -30q8 -7 19 -20q5 -8 9 -25q31 -7 60 -43q1 -1 7 -11v159z" />
    <glyph glyph-name="ydieresis" unicode="&#xff;" horiz-adv-x="665" 
d="M455 498v-58q10 2 24 2q64 0 108.5 -39.5t44.5 -102.5q0 -38 -17 -64q-19 -30 -56 -30q-60 0 -81 37q-7 13 -7 27q0 16 15 35.5t30 19.5q22 -1 32 -3q18 -3 29 -13q1 5 1 6q0 20 -27 33q-21 10 -45 12q-29 2 -49 -3v-381l-42 51q-22 62 -25 70q-9 23 -34 62
q-14 22 -50 41q-20 -44 -73 -44q-32 0 -53.5 22.5t-21.5 51.5q0 28 20 48q25 27 63 27h5q2 7 2 15q0 24 -17 42.5t-40 19.5q-6 0 -16 -7q-2 -8 -8 -23q-19 -45 -62 -45q-28 0 -49.5 21.5t-21.5 56.5q0 57 44 73q9 -1 17 2q-1 7 -19 26q-8 12 -10 12h-76l-66 70h739l71 -70
h-279zM386 498h-83q-1 0 -1 -12q0 -53 71 -53q8 0 13 1v64zM387 352q-74 10 -119 72q-27 37 -33 74h-97q6 -13 16 -36q0 -3 20 -7q57 -14 102.5 -69t49.5 -114q38 -25 61 -61v141z" />
    <glyph glyph-name="ch264" horiz-adv-x="269" 
 />
    <glyph glyph-name="glyph219" horiz-adv-x="269" 
 />
    <glyph glyph-name="glyph225" horiz-adv-x="269" 
 />
    <glyph glyph-name="ch267" horiz-adv-x="269" 
 />
    <glyph glyph-name="ch268" horiz-adv-x="269" 
 />
    <glyph glyph-name="ch269" horiz-adv-x="269" 
 />
    <glyph glyph-name="ch270" horiz-adv-x="269" 
 />
  </font>
</defs>
</svg>
